{"glyphs":{"0":{"ha":675,"x_min":79,"x_max":596,"o":"m 338 -11 q 160 25 213 -11 q 94 156 108 61 q 79 478 79 250 q 94 800 79 706 q 160 931 108 894 q 338 967 213 967 q 517 931 465 967 q 583 803 569 894 q 596 478 596 711 q 581 156 596 250 q 515 25 567 61 q 338 -11 463 -11 m 338 63 q 460 85 426 63 q 503 186 493 107 q 514 478 514 265 q 503 769 514 690 q 460 871 493 849 q 338 893 426 893 q 215 871 249 893 q 172 769 182 849 q 161 478 161 690 q 172 186 161 265 q 215 85 182 107 q 338 63 249 63 z "},"1":{"ha":374,"x_min":44,"x_max":261,"o":"m 179 0 l 179 853 l 44 781 l 44 860 l 201 956 l 261 956 l 261 0 l 179 0 z "},"2":{"ha":604,"x_min":68,"x_max":536,"o":"m 147 74 l 536 74 l 536 0 l 68 0 l 68 104 q 74 275 68 224 q 103 359 79 326 q 183 425 126 392 l 374 539 q 440 605 424 568 q 456 718 456 642 q 441 830 456 793 q 392 880 426 867 q 288 893 357 893 q 82 878 204 893 l 82 946 q 187 961 124 956 q 307 967 250 967 q 431 951 383 967 q 508 885 479 936 q 536 731 536 833 q 524 606 536 653 q 487 529 513 558 q 414 472 461 500 l 206 350 q 160 301 171 329 q 149 249 151 281 q 147 153 147 217 l 147 74 z "},"3":{"ha":586,"x_min":44,"x_max":511,"o":"m 249 -11 q 147 -5 204 -11 q 44 10 90 1 l 44 79 q 243 63 161 63 q 349 76 310 63 q 408 131 388 90 q 429 251 429 171 q 398 403 429 358 q 292 447 367 447 l 164 447 l 164 521 l 292 521 q 386 561 350 521 q 422 706 422 601 q 403 826 422 786 q 345 879 385 865 q 233 893 306 893 q 49 876 144 893 l 49 946 q 149 960 93 954 q 250 967 206 967 q 401 941 346 967 q 479 861 456 915 q 503 715 503 807 q 472 561 503 614 q 381 492 442 508 l 381 486 q 478 419 444 472 q 511 256 511 367 q 490 107 511 164 q 413 19 469 50 q 249 -11 356 -11 z "},"4":{"ha":649,"x_min":47,"x_max":597,"o":"m 411 0 l 411 233 l 47 233 l 47 300 l 310 956 l 396 956 l 135 307 l 413 307 l 424 686 l 493 686 l 493 307 l 597 307 l 597 233 l 493 233 l 493 0 l 411 0 z "},"5":{"ha":608,"x_min":78,"x_max":544,"o":"m 78 79 q 276 63 197 63 q 394 83 354 63 q 449 148 435 103 q 464 278 464 193 q 448 413 464 371 q 390 470 432 456 q 260 485 349 485 q 86 465 192 485 l 86 956 l 494 956 l 494 882 l 164 882 l 164 544 q 311 558 222 558 q 461 529 411 558 q 528 444 511 500 q 544 289 544 388 q 523 110 544 174 q 446 18 501 47 q 283 -11 390 -11 q 179 -6 238 -11 q 78 10 121 0 l 78 79 z "},"6":{"ha":660,"x_min":79,"x_max":596,"o":"m 349 -11 q 224 1 272 -11 q 146 47 176 14 q 97 143 115 81 q 83 256 86 181 q 79 467 79 332 q 83 672 79 594 q 101 796 88 750 q 188 928 128 890 q 367 967 249 967 q 459 960 406 967 q 560 944 513 954 l 560 876 q 381 893 464 893 q 235 863 279 893 q 176 752 190 832 q 161 490 161 672 l 167 490 q 229 542 188 524 q 358 561 271 561 q 503 543 454 561 q 574 469 551 525 q 596 297 596 414 q 577 108 596 172 q 506 17 558 44 q 349 -11 454 -11 m 340 63 q 452 77 417 63 q 502 135 488 92 q 517 271 517 178 q 503 419 517 375 q 456 475 490 463 q 340 488 421 488 q 224 472 261 488 q 175 421 186 456 q 164 315 164 386 q 179 151 164 204 q 231 81 194 99 q 340 63 267 63 z "},"7":{"ha":556,"x_min":36,"x_max":511,"o":"m 132 0 l 425 882 l 36 882 l 36 956 l 511 956 l 511 890 l 219 0 l 132 0 z "},"8":{"ha":682,"x_min":74,"x_max":607,"o":"m 340 -11 q 173 17 231 -11 q 94 103 115 46 q 74 256 74 160 q 88 382 74 336 q 128 450 101 428 q 201 485 156 472 l 201 490 q 110 559 139 506 q 81 715 81 613 q 103 862 81 808 q 183 941 126 915 q 340 967 239 967 q 498 941 442 967 q 577 862 554 915 q 600 715 600 808 q 571 559 600 613 q 479 490 542 506 l 479 485 q 552 450 525 472 q 593 382 579 428 q 607 256 607 336 q 586 102 607 158 q 508 17 565 46 q 340 -11 450 -11 m 340 519 q 452 535 414 519 q 505 590 490 551 q 519 706 519 629 q 506 822 519 783 q 454 877 492 861 q 340 893 417 893 q 228 877 265 893 q 176 822 190 861 q 163 706 163 783 q 177 590 163 629 q 229 535 192 551 q 340 519 267 519 m 340 63 q 453 77 415 63 q 508 132 492 92 q 525 253 525 172 q 510 379 525 339 q 457 433 494 419 q 340 447 419 447 q 224 433 261 447 q 171 379 186 419 q 156 253 156 339 q 172 132 156 172 q 227 77 189 92 q 340 63 265 63 z "},"9":{"ha":660,"x_min":64,"x_max":581,"o":"m 294 -11 q 199 -5 254 -11 q 100 11 144 1 l 100 79 q 279 63 196 63 q 426 93 381 63 q 485 204 471 124 q 500 465 500 285 l 493 465 q 432 414 475 433 q 301 394 389 394 q 158 413 207 394 q 87 486 110 431 q 64 658 64 542 q 83 847 64 783 q 153 939 101 911 q 311 967 206 967 q 438 954 389 967 q 516 910 486 942 q 561 818 546 878 q 576 697 572 774 q 581 489 581 619 q 575 265 581 346 q 553 138 569 185 q 464 22 524 56 q 294 -11 404 -11 m 319 468 q 436 484 399 468 q 485 535 474 500 q 496 640 496 569 q 481 804 496 751 q 429 875 465 857 q 319 893 393 893 q 208 878 243 893 q 158 821 172 864 q 143 685 143 778 q 156 537 143 581 q 204 481 169 493 q 319 468 239 468 z "},"\u0000":{"ha":0,"x_min":0,"x_max":0,"o":""},"\r":{"ha":264,"x_min":0,"x_max":0,"o":""}," ":{"ha":264,"x_min":0,"x_max":0,"o":""},"A":{"ha":685,"x_min":29,"x_max":656,"o":"m 571 0 l 496 282 l 186 282 l 113 0 l 29 0 l 292 956 l 393 956 l 656 0 l 571 0 m 344 844 l 338 844 l 207 354 l 475 354 l 344 844 z "},"Á":{"ha":685,"x_min":29,"x_max":656,"o":"m 571 0 l 496 282 l 186 282 l 113 0 l 29 0 l 292 956 l 393 956 l 656 0 l 571 0 m 344 844 l 338 844 l 207 354 l 475 354 l 344 844 m 300 1042 l 300 1049 l 378 1236 l 463 1236 l 463 1229 l 357 1042 l 300 1042 z "},"Ă":{"ha":685,"x_min":29,"x_max":656,"o":"m 571 0 l 496 282 l 186 282 l 113 0 l 29 0 l 292 956 l 393 956 l 656 0 l 571 0 m 344 844 l 338 844 l 207 354 l 475 354 l 344 844 m 493 1233 q 484 1124 493 1164 q 442 1061 475 1085 q 340 1038 410 1038 q 239 1061 271 1038 q 199 1124 207 1085 q 190 1233 190 1163 l 250 1233 q 255 1149 250 1176 q 278 1106 260 1121 q 340 1090 297 1090 q 404 1106 385 1090 q 428 1149 424 1121 q 433 1233 433 1176 l 493 1233 z "},"Ắ":{"ha":685,"x_min":29,"x_max":656,"o":"m 571 0 l 496 282 l 186 282 l 113 0 l 29 0 l 292 956 l 393 956 l 656 0 l 571 0 m 344 844 l 338 844 l 207 354 l 475 354 l 344 844 m 493 1233 q 484 1124 493 1164 q 442 1061 475 1085 q 340 1038 410 1038 q 239 1061 271 1038 q 199 1124 207 1085 q 190 1233 190 1163 l 250 1233 q 255 1149 250 1176 q 278 1106 260 1121 q 340 1090 297 1090 q 404 1106 385 1090 q 428 1149 424 1121 q 433 1233 433 1176 l 493 1233 m 311 1279 l 311 1286 l 389 1474 l 474 1474 l 474 1467 l 368 1279 l 311 1279 z "},"Ặ":{"ha":685,"x_min":29,"x_max":656,"o":"m 571 0 l 496 282 l 186 282 l 113 0 l 29 0 l 292 956 l 393 956 l 656 0 l 571 0 m 344 844 l 338 844 l 207 354 l 475 354 l 344 844 m 297 -197 l 297 -86 l 389 -86 l 389 -197 l 297 -197 m 493 1233 q 484 1124 493 1164 q 442 1061 475 1085 q 340 1038 410 1038 q 239 1061 271 1038 q 199 1124 207 1085 q 190 1233 190 1163 l 250 1233 q 255 1149 250 1176 q 278 1106 260 1121 q 340 1090 297 1090 q 404 1106 385 1090 q 428 1149 424 1121 q 433 1233 433 1176 l 493 1233 z "},"Ằ":{"ha":685,"x_min":29,"x_max":656,"o":"m 571 0 l 496 282 l 186 282 l 113 0 l 29 0 l 292 956 l 393 956 l 656 0 l 571 0 m 344 844 l 338 844 l 207 354 l 475 354 l 344 844 m 496 1233 q 487 1124 496 1164 q 445 1061 478 1085 q 343 1038 413 1038 q 242 1061 274 1038 q 201 1124 210 1085 q 193 1233 193 1163 l 253 1233 q 258 1149 253 1176 q 281 1106 263 1121 q 343 1090 300 1090 q 407 1106 388 1090 q 431 1149 426 1121 q 436 1233 436 1176 l 496 1233 m 324 1279 l 218 1467 l 218 1474 l 304 1474 l 381 1286 l 381 1279 l 324 1279 z "},"Ẳ":{"ha":685,"x_min":29,"x_max":656,"o":"m 571 0 l 496 282 l 186 282 l 113 0 l 29 0 l 292 956 l 393 956 l 656 0 l 571 0 m 344 844 l 338 844 l 207 354 l 475 354 l 344 844 m 493 1233 q 484 1124 493 1164 q 442 1061 475 1085 q 340 1038 410 1038 q 239 1061 271 1038 q 199 1124 207 1085 q 190 1233 190 1163 l 250 1233 q 255 1149 250 1176 q 278 1106 260 1121 q 340 1090 297 1090 q 404 1106 385 1090 q 428 1149 424 1121 q 433 1233 433 1176 l 493 1233 m 290 1247 q 301 1290 290 1278 q 343 1313 313 1303 l 364 1318 q 410 1340 399 1329 q 422 1376 422 1350 q 416 1408 422 1397 q 390 1422 410 1418 q 331 1425 371 1425 q 214 1419 303 1425 l 214 1469 q 339 1479 285 1479 q 451 1458 421 1479 q 482 1383 482 1438 q 471 1322 482 1343 q 419 1288 460 1301 l 399 1281 q 353 1261 361 1268 q 344 1233 344 1254 l 290 1233 l 290 1247 z "},"Ẵ":{"ha":685,"x_min":29,"x_max":656,"o":"m 571 0 l 496 282 l 186 282 l 113 0 l 29 0 l 292 956 l 393 956 l 656 0 l 571 0 m 344 844 l 338 844 l 207 354 l 475 354 l 344 844 m 490 1233 q 481 1124 490 1164 q 440 1061 472 1085 q 338 1038 407 1038 q 236 1061 268 1038 q 196 1124 204 1085 q 188 1233 188 1163 l 247 1233 q 252 1149 247 1176 q 276 1106 257 1121 q 338 1090 294 1090 q 401 1106 382 1090 q 426 1149 421 1121 q 431 1233 431 1176 l 490 1233 m 532 1476 q 517 1364 532 1394 q 453 1333 503 1333 q 401 1342 426 1333 q 333 1367 375 1350 q 278 1390 300 1382 q 236 1397 257 1397 q 209 1381 215 1397 q 203 1318 203 1364 l 151 1318 q 167 1430 151 1399 q 232 1461 182 1461 q 287 1452 260 1461 q 354 1425 314 1443 q 409 1404 389 1411 q 449 1397 429 1397 q 475 1413 469 1397 q 481 1476 481 1429 l 532 1476 z "},"Ǎ":{"ha":685,"x_min":29,"x_max":656,"o":"m 571 0 l 496 282 l 186 282 l 113 0 l 29 0 l 292 956 l 393 956 l 656 0 l 571 0 m 344 844 l 338 844 l 207 354 l 475 354 l 344 844 m 297 1042 l 189 1225 l 189 1233 l 246 1233 l 343 1092 l 440 1233 l 496 1233 l 496 1225 l 388 1042 l 297 1042 z "},"Â":{"ha":685,"x_min":29,"x_max":656,"o":"m 571 0 l 496 282 l 186 282 l 113 0 l 29 0 l 292 956 l 393 956 l 656 0 l 571 0 m 344 844 l 338 844 l 207 354 l 475 354 l 344 844 m 188 1042 l 188 1049 l 296 1233 l 386 1233 l 494 1049 l 494 1042 l 439 1042 l 342 1182 l 244 1042 l 188 1042 z "},"Ấ":{"ha":685,"x_min":29,"x_max":656,"o":"m 571 0 l 496 282 l 186 282 l 113 0 l 29 0 l 292 956 l 393 956 l 656 0 l 571 0 m 344 844 l 338 844 l 207 354 l 475 354 l 344 844 m 188 1033 l 188 1040 l 296 1225 l 386 1225 l 494 1040 l 494 1033 l 439 1033 l 342 1174 l 244 1033 l 188 1033 m 414 1235 l 414 1242 l 492 1429 l 576 1429 l 576 1422 l 471 1235 l 414 1235 z "},"Ậ":{"ha":685,"x_min":29,"x_max":656,"o":"m 571 0 l 496 282 l 186 282 l 113 0 l 29 0 l 292 956 l 393 956 l 656 0 l 571 0 m 344 844 l 338 844 l 207 354 l 475 354 l 344 844 m 297 -197 l 297 -86 l 389 -86 l 389 -197 l 297 -197 m 189 1042 l 189 1049 l 297 1233 l 388 1233 l 496 1049 l 496 1042 l 440 1042 l 343 1182 l 246 1042 l 189 1042 z "},"Ầ":{"ha":685,"x_min":29,"x_max":656,"o":"m 571 0 l 496 282 l 186 282 l 113 0 l 29 0 l 292 956 l 393 956 l 656 0 l 571 0 m 344 844 l 338 844 l 207 354 l 475 354 l 344 844 m 188 1029 l 188 1036 l 296 1221 l 386 1221 l 494 1036 l 494 1029 l 439 1029 l 342 1169 l 244 1029 l 188 1029 m 435 1231 l 329 1418 l 329 1425 l 415 1425 l 492 1238 l 492 1231 l 435 1231 z "},"Ẩ":{"ha":685,"x_min":29,"x_max":656,"o":"m 571 0 l 496 282 l 186 282 l 113 0 l 29 0 l 292 956 l 393 956 l 656 0 l 571 0 m 344 844 l 338 844 l 207 354 l 475 354 l 344 844 m 189 1029 l 189 1036 l 297 1221 l 388 1221 l 496 1036 l 496 1029 l 440 1029 l 343 1169 l 246 1029 l 189 1029 m 394 1242 q 406 1285 394 1272 q 447 1307 417 1297 l 468 1313 q 515 1334 503 1324 q 526 1371 526 1344 q 520 1402 526 1392 q 494 1416 514 1413 q 435 1419 475 1419 q 318 1414 407 1419 l 318 1464 q 443 1474 389 1474 q 556 1453 525 1474 q 586 1378 586 1432 q 575 1317 586 1338 q 524 1282 564 1296 l 503 1275 q 457 1256 465 1263 q 449 1228 449 1249 l 394 1228 l 394 1242 z "},"Ẫ":{"ha":685,"x_min":29,"x_max":656,"o":"m 571 0 l 496 282 l 186 282 l 113 0 l 29 0 l 292 956 l 393 956 l 656 0 l 571 0 m 344 844 l 338 844 l 207 354 l 475 354 l 344 844 m 186 1031 l 186 1038 l 294 1222 l 385 1222 l 493 1038 l 493 1031 l 438 1031 l 340 1171 l 243 1031 l 186 1031 m 532 1463 q 517 1350 532 1381 q 453 1319 503 1319 q 401 1328 426 1319 q 333 1353 375 1336 q 278 1376 300 1368 q 236 1383 257 1383 q 209 1367 215 1383 q 203 1304 203 1350 l 151 1304 q 167 1416 151 1385 q 232 1447 182 1447 q 287 1438 260 1447 q 354 1411 314 1429 q 409 1390 389 1397 q 449 1383 429 1383 q 475 1399 469 1383 q 481 1463 481 1415 l 532 1463 z "},"Ȁ":{"ha":685,"x_min":29,"x_max":656,"o":"m 571 0 l 496 282 l 186 282 l 113 0 l 29 0 l 292 956 l 393 956 l 656 0 l 571 0 m 344 844 l 338 844 l 207 354 l 475 354 l 344 844 m 283 1047 l 232 1047 l 133 1213 l 133 1219 l 211 1219 l 283 1054 l 283 1047 m 467 1047 l 415 1047 l 315 1213 l 315 1219 l 394 1219 l 467 1054 l 467 1047 z "},"Ä":{"ha":685,"x_min":29,"x_max":656,"o":"m 571 0 l 496 282 l 186 282 l 113 0 l 29 0 l 292 956 l 393 956 l 656 0 l 571 0 m 344 844 l 338 844 l 207 354 l 475 354 l 344 844 m 181 1074 l 181 1171 l 260 1171 l 260 1074 l 181 1074 m 425 1074 l 425 1171 l 504 1171 l 504 1074 l 425 1074 z "},"Ạ":{"ha":685,"x_min":29,"x_max":656,"o":"m 571 0 l 496 282 l 186 282 l 113 0 l 29 0 l 292 956 l 393 956 l 656 0 l 571 0 m 344 844 l 338 844 l 207 354 l 475 354 l 344 844 m 297 -197 l 297 -86 l 389 -86 l 389 -197 l 297 -197 z "},"À":{"ha":685,"x_min":29,"x_max":656,"o":"m 571 0 l 496 282 l 186 282 l 113 0 l 29 0 l 292 956 l 393 956 l 656 0 l 571 0 m 344 844 l 338 844 l 207 354 l 475 354 l 344 844 m 328 1042 l 222 1229 l 222 1236 l 308 1236 l 385 1049 l 385 1042 l 328 1042 z "},"Ả":{"ha":685,"x_min":29,"x_max":656,"o":"m 571 0 l 496 282 l 186 282 l 113 0 l 29 0 l 292 956 l 393 956 l 656 0 l 571 0 m 344 844 l 338 844 l 207 354 l 475 354 l 344 844 m 285 1036 q 296 1081 285 1068 q 338 1101 307 1093 l 358 1108 q 405 1130 393 1119 q 417 1165 417 1140 q 410 1197 417 1188 q 385 1211 404 1207 q 325 1215 365 1215 q 208 1208 282 1215 l 208 1260 q 333 1269 279 1269 q 446 1249 415 1269 q 476 1174 476 1228 q 465 1112 476 1133 q 414 1076 454 1090 l 393 1069 q 355 1056 365 1061 q 342 1044 344 1050 q 339 1022 339 1038 l 285 1022 l 285 1036 z "},"Ȃ":{"ha":685,"x_min":29,"x_max":656,"o":"m 571 0 l 496 282 l 186 282 l 113 0 l 29 0 l 292 956 l 393 956 l 656 0 l 571 0 m 344 844 l 338 844 l 207 354 l 475 354 l 344 844 m 190 1046 q 199 1155 190 1115 q 241 1218 208 1194 q 343 1242 274 1242 q 444 1218 413 1242 q 485 1156 476 1194 q 493 1046 493 1117 l 433 1046 q 428 1131 433 1103 q 405 1174 424 1158 q 343 1189 386 1189 q 279 1174 299 1189 q 255 1131 260 1158 q 250 1046 250 1103 l 190 1046 z "},"Ā":{"ha":685,"x_min":29,"x_max":656,"o":"m 571 0 l 496 282 l 186 282 l 113 0 l 29 0 l 292 956 l 393 956 l 656 0 l 571 0 m 344 844 l 338 844 l 207 354 l 475 354 l 344 844 m 210 1158 l 210 1233 l 475 1233 l 475 1158 l 210 1158 z "},"Ą":{"ha":685,"x_min":31,"x_max":656,"o":"m 557 -154 q 621 -214 557 -214 q 644 -212 633 -214 l 644 -269 q 603 -272 628 -272 q 515 -244 542 -272 q 488 -168 488 -215 q 510 -81 488 -128 q 571 3 533 -35 l 496 281 l 186 281 l 113 0 l 31 0 l 292 956 l 394 956 l 656 0 l 638 0 q 582 -74 607 -29 q 557 -154 557 -118 m 207 354 l 475 354 l 344 844 l 338 844 l 207 354 z "},"Å":{"ha":685,"x_min":29,"x_max":656,"o":"m 656 0 l 571 0 l 496 282 l 186 282 l 113 0 l 29 0 l 289 947 q 234 967 251 953 q 212 1005 217 981 q 207 1074 207 1029 q 215 1152 207 1126 q 252 1190 224 1178 q 342 1203 281 1203 q 432 1190 403 1203 q 469 1152 461 1178 q 478 1074 478 1126 q 472 1005 478 1029 q 449 967 467 981 q 396 949 432 953 l 656 0 m 265 1074 q 269 1023 265 1039 q 290 1000 274 1007 q 342 993 306 993 q 394 1000 378 993 q 415 1023 410 1007 q 419 1074 419 1039 q 415 1124 419 1108 q 394 1147 410 1140 q 342 1154 378 1154 q 290 1147 306 1154 q 269 1124 274 1140 q 265 1074 265 1108 m 207 354 l 475 354 l 344 844 l 338 844 l 207 354 z "},"Ǻ":{"ha":685,"x_min":29,"x_max":656,"o":"m 656 0 l 571 0 l 496 282 l 186 282 l 113 0 l 29 0 l 289 947 q 234 967 251 953 q 212 1005 217 981 q 207 1074 207 1029 q 215 1152 207 1126 q 252 1190 224 1178 q 342 1203 281 1203 q 432 1190 403 1203 q 469 1152 461 1178 q 478 1074 478 1126 q 472 1005 478 1029 q 449 967 467 981 q 396 949 432 953 l 656 0 m 265 1074 q 269 1023 265 1039 q 290 1000 274 1007 q 342 993 306 993 q 394 1000 378 993 q 415 1023 410 1007 q 419 1074 419 1039 q 415 1124 419 1108 q 394 1147 410 1140 q 342 1154 378 1154 q 290 1147 306 1154 q 269 1124 274 1140 q 265 1074 265 1108 m 207 354 l 475 354 l 344 844 l 338 844 l 207 354 m 306 1286 l 306 1293 l 383 1481 l 468 1481 l 468 1474 l 363 1286 l 306 1286 z "},"Ã":{"ha":685,"x_min":29,"x_max":656,"o":"m 571 0 l 496 282 l 186 282 l 113 0 l 29 0 l 292 956 l 393 956 l 656 0 l 571 0 m 344 844 l 338 844 l 207 354 l 475 354 l 344 844 m 532 1200 q 517 1088 532 1118 q 453 1057 503 1057 q 401 1065 426 1057 q 333 1090 375 1074 q 278 1113 300 1106 q 236 1121 257 1121 q 209 1104 215 1121 q 203 1042 203 1088 l 151 1042 q 167 1153 151 1122 q 232 1185 182 1185 q 287 1176 260 1185 q 354 1149 314 1167 q 409 1128 389 1135 q 449 1121 429 1121 q 475 1137 469 1121 q 481 1200 481 1153 l 532 1200 z "},"Æ":{"ha":942,"x_min":-4,"x_max":889,"o":"m 536 0 l 486 282 l 178 282 l 78 0 l -4 0 l 343 956 l 889 956 l 889 882 l 460 882 l 525 519 l 842 519 l 842 446 l 539 446 l 607 74 l 889 74 l 889 0 l 536 0 m 386 844 l 379 844 l 204 354 l 474 354 l 386 844 z "},"Ǽ":{"ha":942,"x_min":-4,"x_max":889,"o":"m 536 0 l 486 282 l 178 282 l 78 0 l -4 0 l 343 956 l 889 956 l 889 882 l 460 882 l 525 519 l 842 519 l 842 446 l 539 446 l 607 74 l 889 74 l 889 0 l 536 0 m 386 844 l 379 844 l 204 354 l 474 354 l 386 844 m 435 1039 l 435 1046 l 513 1233 l 597 1233 l 597 1226 l 492 1039 l 435 1039 z "},"B":{"ha":685,"x_min":103,"x_max":613,"o":"m 103 956 l 388 956 q 555 894 506 956 q 604 717 604 832 q 571 564 604 619 q 463 492 538 508 l 463 486 q 581 409 550 469 q 613 251 613 349 q 563 68 613 136 q 379 0 514 0 l 103 0 l 103 956 m 367 521 q 522 701 522 521 q 490 841 522 800 q 367 882 457 882 l 185 882 l 185 521 l 367 521 m 371 72 q 495 116 460 72 q 531 260 531 160 q 494 404 531 361 q 371 447 457 447 l 185 447 l 185 72 l 371 72 z "},"C":{"ha":557,"x_min":79,"x_max":508,"o":"m 508 4 q 435 -7 478 -3 q 356 -11 392 -11 q 176 24 232 -11 q 99 159 119 60 q 79 478 79 258 q 99 794 79 694 q 176 930 119 893 q 356 967 232 967 q 435 961 393 967 q 506 949 478 956 l 506 881 q 372 893 431 893 q 228 867 269 893 q 174 759 188 840 q 161 478 161 678 q 174 197 161 278 q 228 89 188 115 q 372 63 269 63 q 508 75 443 63 l 508 4 z "},"Ć":{"ha":557,"x_min":79,"x_max":508,"o":"m 508 4 q 435 -7 478 -3 q 356 -11 392 -11 q 176 24 232 -11 q 99 159 119 60 q 79 478 79 258 q 99 794 79 694 q 176 930 119 893 q 356 967 232 967 q 435 961 393 967 q 506 949 478 956 l 506 881 q 372 893 431 893 q 228 867 269 893 q 174 759 188 840 q 161 478 161 678 q 174 197 161 278 q 228 89 188 115 q 372 63 269 63 q 508 75 443 63 l 508 4 m 242 1039 l 242 1046 l 319 1233 l 404 1233 l 404 1226 l 299 1039 l 242 1039 z "},"Č":{"ha":557,"x_min":79,"x_max":508,"o":"m 508 4 q 435 -7 478 -3 q 356 -11 392 -11 q 176 24 232 -11 q 99 159 119 60 q 79 478 79 258 q 99 794 79 694 q 176 930 119 893 q 356 967 232 967 q 435 961 393 967 q 506 949 478 956 l 506 881 q 372 893 431 893 q 228 867 269 893 q 174 759 188 840 q 161 478 161 678 q 174 197 161 278 q 228 89 188 115 q 372 63 269 63 q 508 75 443 63 l 508 4 m 232 1042 l 124 1225 l 124 1233 l 181 1233 l 278 1092 l 375 1233 l 431 1233 l 431 1225 l 322 1042 l 232 1042 z "},"Ç":{"ha":557,"x_min":79,"x_max":508,"o":"m 372 63 q 508 75 443 63 l 508 4 q 435 -7 478 -3 q 356 -11 392 -11 q 304 -10 319 -11 l 247 -264 l 168 -264 l 168 -257 l 247 -3 q 141 58 176 11 q 92 201 106 106 q 79 478 79 296 q 99 794 79 694 q 176 930 119 893 q 356 967 232 967 q 435 961 393 967 q 506 949 478 956 l 506 881 q 372 893 431 893 q 228 867 269 893 q 174 759 188 840 q 161 478 161 678 q 174 197 161 278 q 228 89 188 115 q 372 63 269 63 z "},"Ĉ":{"ha":557,"x_min":79,"x_max":508,"o":"m 508 4 q 435 -7 478 -3 q 356 -11 392 -11 q 176 24 232 -11 q 99 159 119 60 q 79 478 79 258 q 99 794 79 694 q 176 930 119 893 q 356 967 232 967 q 435 961 393 967 q 506 949 478 956 l 506 881 q 372 893 431 893 q 228 867 269 893 q 174 759 188 840 q 161 478 161 678 q 174 197 161 278 q 228 89 188 115 q 372 63 269 63 q 508 75 443 63 l 508 4 m 124 1042 l 124 1049 l 232 1233 l 322 1233 l 431 1049 l 431 1042 l 375 1042 l 278 1182 l 181 1042 l 124 1042 z "},"Ċ":{"ha":557,"x_min":79,"x_max":508,"o":"m 508 4 q 435 -7 478 -3 q 356 -11 392 -11 q 176 24 232 -11 q 99 159 119 60 q 79 478 79 258 q 99 794 79 694 q 176 930 119 893 q 356 967 232 967 q 435 961 393 967 q 506 949 478 956 l 506 881 q 372 893 431 893 q 228 867 269 893 q 174 759 188 840 q 161 478 161 678 q 174 197 161 278 q 228 89 188 115 q 372 63 269 63 q 508 75 443 63 l 508 4 m 238 1118 l 238 1215 l 317 1215 l 317 1118 l 238 1118 z "},"D":{"ha":692,"x_min":103,"x_max":613,"o":"m 103 956 l 325 956 q 519 921 461 956 q 595 792 578 886 q 613 478 613 699 q 595 163 613 257 q 519 35 578 69 q 325 0 461 0 l 103 0 l 103 956 m 319 74 q 465 94 425 74 q 517 194 504 115 q 531 478 531 274 q 517 761 531 682 q 463 861 503 840 q 319 882 424 882 l 185 882 l 185 74 l 319 74 z "},"Ǳ":{"ha":1278,"x_min":103,"x_max":1236,"o":"m 103 956 l 325 956 q 519 921 461 956 q 595 792 578 886 q 613 478 613 699 q 595 163 613 257 q 519 35 578 69 q 325 0 461 0 l 103 0 l 103 956 m 319 74 q 465 94 425 74 q 517 194 504 115 q 531 478 531 274 q 517 761 531 682 q 463 861 503 840 q 319 882 424 882 l 185 882 l 185 74 l 319 74 m 735 0 l 735 69 l 1135 882 l 746 882 l 746 956 l 1229 956 l 1229 888 l 831 72 l 1236 72 l 1236 0 l 735 0 z "},"Ǆ":{"ha":1278,"x_min":103,"x_max":1236,"o":"m 103 956 l 325 956 q 519 921 461 956 q 595 792 578 886 q 613 478 613 699 q 595 163 613 257 q 519 35 578 69 q 325 0 461 0 l 103 0 l 103 956 m 319 74 q 465 94 425 74 q 517 194 504 115 q 531 478 531 274 q 517 761 531 682 q 463 861 503 840 q 319 882 424 882 l 185 882 l 185 74 l 319 74 m 735 0 l 735 69 l 1135 882 l 746 882 l 746 956 l 1229 956 l 1229 888 l 831 72 l 1236 72 l 1236 0 l 735 0 m 940 1042 l 832 1225 l 832 1233 l 889 1233 l 986 1092 l 1083 1233 l 1139 1233 l 1139 1225 l 1031 1042 l 940 1042 z "},"Ð":{"ha":692,"x_min":22,"x_max":613,"o":"m 103 449 l 22 449 l 22 521 l 103 521 l 103 956 l 325 956 q 519 921 461 956 q 595 792 578 886 q 613 478 613 699 q 595 163 613 257 q 519 35 578 69 q 325 0 461 0 l 103 0 l 103 449 m 319 74 q 465 94 425 74 q 517 194 504 115 q 531 478 531 274 q 517 761 531 682 q 463 861 503 840 q 319 882 424 882 l 185 882 l 185 521 l 338 521 l 338 449 l 185 449 l 185 74 l 319 74 z "},"Ď":{"ha":692,"x_min":103,"x_max":613,"o":"m 103 956 l 325 956 q 519 921 461 956 q 595 792 578 886 q 613 478 613 699 q 595 163 613 257 q 519 35 578 69 q 325 0 461 0 l 103 0 l 103 956 m 319 74 q 465 94 425 74 q 517 194 504 115 q 531 478 531 274 q 517 761 531 682 q 463 861 503 840 q 319 882 424 882 l 185 882 l 185 74 l 319 74 m 300 1042 l 192 1225 l 192 1233 l 249 1233 l 346 1092 l 443 1233 l 499 1233 l 499 1225 l 390 1042 l 300 1042 z "},"Đ":{"ha":692,"x_min":22,"x_max":613,"o":"m 103 449 l 22 449 l 22 521 l 103 521 l 103 956 l 325 956 q 519 921 461 956 q 595 792 578 886 q 613 478 613 699 q 595 163 613 257 q 519 35 578 69 q 325 0 461 0 l 103 0 l 103 449 m 319 74 q 465 94 425 74 q 517 194 504 115 q 531 478 531 274 q 517 761 531 682 q 463 861 503 840 q 319 882 424 882 l 185 882 l 185 521 l 338 521 l 338 449 l 185 449 l 185 74 l 319 74 z "},"Ḍ":{"ha":692,"x_min":103,"x_max":613,"o":"m 103 956 l 325 956 q 519 921 461 956 q 595 792 578 886 q 613 478 613 699 q 595 163 613 257 q 519 35 578 69 q 325 0 461 0 l 103 0 l 103 956 m 319 74 q 465 94 425 74 q 517 194 504 115 q 531 478 531 274 q 517 761 531 682 q 463 861 503 840 q 319 882 424 882 l 185 882 l 185 74 l 319 74 m 300 -197 l 300 -86 l 392 -86 l 392 -197 l 300 -197 z "},"ǲ":{"ha":1204,"x_min":103,"x_max":1156,"o":"m 103 956 l 325 956 q 519 921 461 956 q 595 792 578 886 q 613 478 613 699 q 595 163 613 257 q 519 35 578 69 q 325 0 461 0 l 103 0 l 103 956 m 319 74 q 465 94 425 74 q 517 194 504 115 q 531 478 531 274 q 517 761 531 682 q 463 861 503 840 q 319 882 424 882 l 185 882 l 185 74 l 319 74 m 740 0 l 740 63 l 1060 640 l 751 640 l 751 708 l 1154 708 l 1154 647 l 833 68 l 1156 68 l 1156 0 l 740 0 z "},"ǅ":{"ha":1204,"x_min":103,"x_max":1156,"o":"m 103 956 l 325 956 q 519 921 461 956 q 595 792 578 886 q 613 478 613 699 q 595 163 613 257 q 519 35 578 69 q 325 0 461 0 l 103 0 l 103 956 m 319 74 q 465 94 425 74 q 517 194 504 115 q 531 478 531 274 q 517 761 531 682 q 463 861 503 840 q 319 882 424 882 l 185 882 l 185 74 l 319 74 m 740 0 l 740 63 l 1060 640 l 751 640 l 751 708 l 1154 708 l 1154 647 l 833 68 l 1156 68 l 1156 0 l 740 0 m 914 840 l 806 1024 l 806 1032 l 863 1032 l 960 890 l 1057 1032 l 1113 1032 l 1113 1024 l 1004 840 l 914 840 z "},"E":{"ha":600,"x_min":103,"x_max":547,"o":"m 103 0 l 103 956 l 547 956 l 547 882 l 186 882 l 186 519 l 500 519 l 500 447 l 186 447 l 186 74 l 547 74 l 547 0 l 103 0 z "},"É":{"ha":600,"x_min":103,"x_max":547,"o":"m 103 0 l 103 956 l 547 956 l 547 882 l 186 882 l 186 519 l 500 519 l 500 447 l 186 447 l 186 74 l 547 74 l 547 0 l 103 0 m 299 1042 l 299 1049 l 376 1236 l 461 1236 l 461 1229 l 356 1042 l 299 1042 z "},"Ĕ":{"ha":600,"x_min":103,"x_max":547,"o":"m 103 0 l 103 956 l 547 956 l 547 882 l 186 882 l 186 519 l 500 519 l 500 447 l 186 447 l 186 74 l 547 74 l 547 0 l 103 0 m 475 1233 q 466 1124 475 1164 q 424 1061 457 1085 q 322 1038 392 1038 q 221 1061 253 1038 q 181 1124 189 1085 q 172 1233 172 1163 l 232 1233 q 237 1149 232 1176 q 260 1106 242 1121 q 322 1090 279 1090 q 386 1106 367 1090 q 410 1149 406 1121 q 415 1233 415 1176 l 475 1233 z "},"Ě":{"ha":600,"x_min":103,"x_max":547,"o":"m 103 0 l 103 956 l 547 956 l 547 882 l 186 882 l 186 519 l 500 519 l 500 447 l 186 447 l 186 74 l 547 74 l 547 0 l 103 0 m 279 1042 l 171 1225 l 171 1233 l 228 1233 l 325 1092 l 422 1233 l 478 1233 l 478 1225 l 369 1042 l 279 1042 z "},"Ê":{"ha":600,"x_min":103,"x_max":547,"o":"m 103 0 l 103 956 l 547 956 l 547 882 l 186 882 l 186 519 l 500 519 l 500 447 l 186 447 l 186 74 l 547 74 l 547 0 l 103 0 m 171 1042 l 171 1049 l 279 1233 l 369 1233 l 478 1049 l 478 1042 l 422 1042 l 325 1182 l 228 1042 l 171 1042 z "},"Ế":{"ha":600,"x_min":103,"x_max":558,"o":"m 103 0 l 103 956 l 547 956 l 547 882 l 186 882 l 186 519 l 500 519 l 500 447 l 186 447 l 186 74 l 547 74 l 547 0 l 103 0 m 169 1033 l 169 1040 l 278 1225 l 368 1225 l 476 1040 l 476 1033 l 421 1033 l 324 1174 l 226 1033 l 169 1033 m 396 1235 l 396 1242 l 474 1429 l 558 1429 l 558 1422 l 453 1235 l 396 1235 z "},"Ệ":{"ha":600,"x_min":103,"x_max":547,"o":"m 103 0 l 103 956 l 547 956 l 547 882 l 186 882 l 186 519 l 500 519 l 500 447 l 186 447 l 186 74 l 547 74 l 547 0 l 103 0 m 279 -197 l 279 -86 l 371 -86 l 371 -197 l 279 -197 m 171 1042 l 171 1049 l 279 1233 l 369 1233 l 478 1049 l 478 1042 l 422 1042 l 325 1182 l 228 1042 l 171 1042 z "},"Ề":{"ha":600,"x_min":103,"x_max":547,"o":"m 103 0 l 103 956 l 547 956 l 547 882 l 186 882 l 186 519 l 500 519 l 500 447 l 186 447 l 186 74 l 547 74 l 547 0 l 103 0 m 169 1029 l 169 1036 l 278 1221 l 368 1221 l 476 1036 l 476 1029 l 421 1029 l 324 1169 l 226 1029 l 169 1029 m 417 1231 l 311 1418 l 311 1425 l 397 1425 l 474 1238 l 474 1231 l 417 1231 z "},"Ể":{"ha":600,"x_min":103,"x_max":568,"o":"m 103 0 l 103 956 l 547 956 l 547 882 l 186 882 l 186 519 l 500 519 l 500 447 l 186 447 l 186 74 l 547 74 l 547 0 l 103 0 m 171 1029 l 171 1036 l 279 1221 l 369 1221 l 478 1036 l 478 1029 l 422 1029 l 325 1169 l 228 1029 l 171 1029 m 376 1242 q 388 1285 376 1272 q 429 1307 399 1297 l 450 1313 q 497 1334 485 1324 q 508 1371 508 1344 q 502 1402 508 1392 q 476 1416 496 1413 q 417 1419 457 1419 q 300 1414 389 1419 l 300 1464 q 425 1474 371 1474 q 538 1453 507 1474 q 568 1378 568 1432 q 557 1317 568 1338 q 506 1282 546 1296 l 485 1275 q 439 1256 447 1263 q 431 1228 431 1249 l 376 1228 l 376 1242 z "},"Ễ":{"ha":600,"x_min":103,"x_max":547,"o":"m 103 0 l 103 956 l 547 956 l 547 882 l 186 882 l 186 519 l 500 519 l 500 447 l 186 447 l 186 74 l 547 74 l 547 0 l 103 0 m 168 1031 l 168 1038 l 276 1222 l 367 1222 l 475 1038 l 475 1031 l 419 1031 l 322 1171 l 225 1031 l 168 1031 m 514 1463 q 499 1350 514 1381 q 435 1319 485 1319 q 383 1328 408 1319 q 315 1353 357 1336 q 260 1376 282 1368 q 218 1383 239 1383 q 191 1367 197 1383 q 185 1304 185 1350 l 133 1304 q 149 1416 133 1385 q 214 1447 164 1447 q 269 1438 242 1447 q 336 1411 296 1429 q 391 1390 371 1397 q 431 1383 411 1383 q 457 1399 451 1383 q 463 1463 463 1415 l 514 1463 z "},"Ȅ":{"ha":600,"x_min":103,"x_max":547,"o":"m 103 0 l 103 956 l 547 956 l 547 882 l 186 882 l 186 519 l 500 519 l 500 447 l 186 447 l 186 74 l 547 74 l 547 0 l 103 0 m 265 1047 l 214 1047 l 115 1213 l 115 1219 l 193 1219 l 265 1054 l 265 1047 m 449 1047 l 397 1047 l 297 1213 l 297 1219 l 376 1219 l 449 1054 l 449 1047 z "},"Ë":{"ha":600,"x_min":103,"x_max":547,"o":"m 103 0 l 103 956 l 547 956 l 547 882 l 186 882 l 186 519 l 500 519 l 500 447 l 186 447 l 186 74 l 547 74 l 547 0 l 103 0 m 165 1074 l 165 1171 l 244 1171 l 244 1074 l 165 1074 m 410 1074 l 410 1171 l 489 1171 l 489 1074 l 410 1074 z "},"Ė":{"ha":600,"x_min":103,"x_max":547,"o":"m 103 0 l 103 956 l 547 956 l 547 882 l 186 882 l 186 519 l 500 519 l 500 447 l 186 447 l 186 74 l 547 74 l 547 0 l 103 0 m 285 1118 l 285 1215 l 364 1215 l 364 1118 l 285 1118 z "},"Ẹ":{"ha":600,"x_min":103,"x_max":547,"o":"m 103 0 l 103 956 l 547 956 l 547 882 l 186 882 l 186 519 l 500 519 l 500 447 l 186 447 l 186 74 l 547 74 l 547 0 l 103 0 m 279 -197 l 279 -86 l 371 -86 l 371 -197 l 279 -197 z "},"È":{"ha":600,"x_min":103,"x_max":547,"o":"m 103 0 l 103 956 l 547 956 l 547 882 l 186 882 l 186 519 l 500 519 l 500 447 l 186 447 l 186 74 l 547 74 l 547 0 l 103 0 m 315 1042 l 210 1229 l 210 1236 l 296 1236 l 372 1049 l 372 1042 l 315 1042 z "},"Ẻ":{"ha":600,"x_min":103,"x_max":547,"o":"m 103 0 l 103 956 l 547 956 l 547 882 l 186 882 l 186 519 l 500 519 l 500 447 l 186 447 l 186 74 l 547 74 l 547 0 l 103 0 m 267 1036 q 278 1081 267 1068 q 319 1101 289 1093 l 340 1108 q 387 1130 375 1119 q 399 1165 399 1140 q 392 1197 399 1188 q 367 1211 386 1207 q 307 1215 347 1215 q 190 1208 264 1215 l 190 1260 q 315 1269 261 1269 q 428 1249 397 1269 q 458 1174 458 1228 q 447 1112 458 1133 q 396 1076 436 1090 l 375 1069 q 337 1056 347 1061 q 324 1044 326 1050 q 321 1022 321 1038 l 267 1022 l 267 1036 z "},"Ȇ":{"ha":600,"x_min":103,"x_max":547,"o":"m 103 0 l 103 956 l 547 956 l 547 882 l 186 882 l 186 519 l 500 519 l 500 447 l 186 447 l 186 74 l 547 74 l 547 0 l 103 0 m 172 1046 q 181 1155 172 1115 q 223 1218 190 1194 q 325 1242 256 1242 q 426 1218 394 1242 q 467 1156 458 1194 q 475 1046 475 1117 l 415 1046 q 410 1131 415 1103 q 387 1174 406 1158 q 325 1189 368 1189 q 261 1174 281 1189 q 237 1131 242 1158 q 232 1046 232 1103 l 172 1046 z "},"Ē":{"ha":600,"x_min":103,"x_max":547,"o":"m 103 0 l 103 956 l 547 956 l 547 882 l 186 882 l 186 519 l 500 519 l 500 447 l 186 447 l 186 74 l 547 74 l 547 0 l 103 0 m 192 1158 l 192 1233 l 457 1233 l 457 1158 l 192 1158 z "},"Ę":{"ha":600,"x_min":104,"x_max":546,"o":"m 499 -272 q 411 -244 439 -272 q 383 -172 383 -217 q 408 -83 383 -128 q 476 0 433 -37 l 104 0 l 104 956 l 546 956 l 546 882 l 186 882 l 186 519 l 500 519 l 500 446 l 186 446 l 186 74 l 546 74 l 546 0 q 482 -72 511 -26 q 453 -156 453 -117 q 468 -197 453 -181 q 517 -214 483 -214 q 540 -212 529 -214 l 540 -269 q 499 -272 513 -272 z "},"Ẽ":{"ha":600,"x_min":103,"x_max":547,"o":"m 103 0 l 103 956 l 547 956 l 547 882 l 186 882 l 186 519 l 500 519 l 500 447 l 186 447 l 186 74 l 547 74 l 547 0 l 103 0 m 514 1233 q 499 1121 514 1151 q 435 1090 485 1090 q 383 1099 408 1090 q 315 1124 357 1107 q 260 1147 282 1139 q 218 1154 239 1154 q 191 1138 197 1154 q 185 1075 185 1121 l 133 1075 q 149 1187 133 1156 q 214 1218 164 1218 q 269 1209 242 1218 q 336 1182 296 1200 q 391 1161 371 1168 q 431 1154 411 1154 q 457 1170 451 1154 q 463 1233 463 1186 l 514 1233 z "},"F":{"ha":567,"x_min":103,"x_max":526,"o":"m 103 0 l 103 956 l 526 956 l 526 882 l 186 882 l 186 499 l 490 499 l 490 426 l 186 426 l 186 0 l 103 0 z "},"G":{"ha":672,"x_min":79,"x_max":590,"o":"m 351 426 l 351 499 l 590 499 l 590 14 q 480 -4 540 3 q 371 -11 419 -11 q 186 25 246 -11 q 103 162 126 61 q 79 478 79 263 q 102 791 79 690 q 185 929 125 892 q 372 967 246 967 q 487 959 426 967 q 588 940 547 951 l 588 872 q 494 887 546 881 q 410 893 443 893 q 246 872 293 893 q 180 767 199 850 q 161 478 161 683 q 175 206 161 289 q 231 92 189 122 q 371 61 274 61 q 445 65 406 61 q 510 75 485 69 l 510 426 l 351 426 z "},"Ǵ":{"ha":672,"x_min":79,"x_max":590,"o":"m 351 426 l 351 499 l 590 499 l 590 14 q 480 -4 540 3 q 371 -11 419 -11 q 186 25 246 -11 q 103 162 126 61 q 79 478 79 263 q 102 791 79 690 q 185 929 125 892 q 372 967 246 967 q 487 959 426 967 q 588 940 547 951 l 588 872 q 494 887 546 881 q 410 893 443 893 q 246 872 293 893 q 180 767 199 850 q 161 478 161 683 q 175 206 161 289 q 231 92 189 122 q 371 61 274 61 q 445 65 406 61 q 510 75 485 69 l 510 426 l 351 426 m 300 1039 l 300 1046 l 378 1233 l 463 1233 l 463 1226 l 357 1039 l 300 1039 z "},"Ğ":{"ha":672,"x_min":79,"x_max":590,"o":"m 351 426 l 351 499 l 590 499 l 590 14 q 480 -4 540 3 q 371 -11 419 -11 q 186 25 246 -11 q 103 162 126 61 q 79 478 79 263 q 102 791 79 690 q 185 929 125 892 q 372 967 246 967 q 487 959 426 967 q 588 940 547 951 l 588 872 q 494 887 546 881 q 410 893 443 893 q 246 872 293 893 q 180 767 199 850 q 161 478 161 683 q 175 206 161 289 q 231 92 189 122 q 371 61 274 61 q 445 65 406 61 q 510 75 485 69 l 510 426 l 351 426 m 486 1233 q 477 1124 486 1164 q 435 1061 468 1085 q 333 1038 403 1038 q 232 1061 264 1038 q 192 1124 200 1085 q 183 1233 183 1163 l 243 1233 q 248 1149 243 1176 q 272 1106 253 1121 q 333 1090 290 1090 q 397 1106 378 1090 q 422 1149 417 1121 q 426 1233 426 1176 l 486 1233 z "},"Ǧ":{"ha":672,"x_min":79,"x_max":590,"o":"m 351 426 l 351 499 l 590 499 l 590 14 q 480 -4 540 3 q 371 -11 419 -11 q 186 25 246 -11 q 103 162 126 61 q 79 478 79 263 q 102 791 79 690 q 185 929 125 892 q 372 967 246 967 q 487 959 426 967 q 588 940 547 951 l 588 872 q 494 887 546 881 q 410 893 443 893 q 246 872 293 893 q 180 767 199 850 q 161 478 161 683 q 175 206 161 289 q 231 92 189 122 q 371 61 274 61 q 445 65 406 61 q 510 75 485 69 l 510 426 l 351 426 m 290 1042 l 182 1225 l 182 1233 l 239 1233 l 336 1092 l 433 1233 l 489 1233 l 489 1225 l 381 1042 l 290 1042 z "},"Ĝ":{"ha":672,"x_min":79,"x_max":590,"o":"m 351 426 l 351 499 l 590 499 l 590 14 q 480 -4 540 3 q 371 -11 419 -11 q 186 25 246 -11 q 103 162 126 61 q 79 478 79 263 q 102 791 79 690 q 185 929 125 892 q 372 967 246 967 q 487 959 426 967 q 588 940 547 951 l 588 872 q 494 887 546 881 q 410 893 443 893 q 246 872 293 893 q 180 767 199 850 q 161 478 161 683 q 175 206 161 289 q 231 92 189 122 q 371 61 274 61 q 445 65 406 61 q 510 75 485 69 l 510 426 l 351 426 m 182 1042 l 182 1049 l 290 1233 l 381 1233 l 489 1049 l 489 1042 l 433 1042 l 336 1182 l 239 1042 l 182 1042 z "},"Ģ":{"ha":672,"x_min":79,"x_max":590,"o":"m 351 426 l 351 499 l 590 499 l 590 14 q 480 -4 540 3 q 371 -11 419 -11 q 186 25 246 -11 q 103 162 126 61 q 79 478 79 263 q 102 791 79 690 q 185 929 125 892 q 372 967 246 967 q 487 959 426 967 q 588 940 547 951 l 588 872 q 494 887 546 881 q 410 893 443 893 q 246 872 293 893 q 180 767 199 850 q 161 478 161 683 q 175 206 161 289 q 231 92 189 122 q 371 61 274 61 q 445 65 406 61 q 510 75 485 69 l 510 426 l 351 426 m 275 -300 q 331 -284 319 -300 q 343 -218 343 -268 l 343 -194 l 304 -194 l 304 -86 l 397 -86 l 397 -193 q 388 -285 397 -254 q 353 -328 379 -315 q 275 -340 328 -340 l 275 -300 z "},"Ġ":{"ha":672,"x_min":79,"x_max":590,"o":"m 351 426 l 351 499 l 590 499 l 590 14 q 480 -4 540 3 q 371 -11 419 -11 q 186 25 246 -11 q 103 162 126 61 q 79 478 79 263 q 102 791 79 690 q 185 929 125 892 q 372 967 246 967 q 487 959 426 967 q 588 940 547 951 l 588 872 q 494 887 546 881 q 410 893 443 893 q 246 872 293 893 q 180 767 199 850 q 161 478 161 683 q 175 206 161 289 q 231 92 189 122 q 371 61 274 61 q 445 65 406 61 q 510 75 485 69 l 510 426 l 351 426 m 296 1118 l 296 1215 l 375 1215 l 375 1118 l 296 1118 z "},"H":{"ha":736,"x_min":104,"x_max":632,"o":"m 551 0 l 551 444 l 185 444 l 185 0 l 104 0 l 104 956 l 185 956 l 185 521 l 551 521 l 551 956 l 632 956 l 632 0 l 551 0 z "},"Ħ":{"ha":736,"x_min":104,"x_max":632,"o":"m 551 956 l 632 956 l 632 0 l 551 0 l 551 410 l 185 410 l 185 0 l 104 0 l 104 956 l 185 956 l 185 751 l 551 751 l 551 956 m 185 485 l 551 485 l 551 678 l 185 678 l 185 485 z "},"Ĥ":{"ha":736,"x_min":104,"x_max":632,"o":"m 551 0 l 551 444 l 185 444 l 185 0 l 104 0 l 104 956 l 185 956 l 185 521 l 551 521 l 551 956 l 632 956 l 632 0 l 551 0 m 214 1042 l 214 1049 l 322 1233 l 413 1233 l 521 1049 l 521 1042 l 465 1042 l 368 1182 l 271 1042 l 214 1042 z "},"Ḥ":{"ha":736,"x_min":104,"x_max":632,"o":"m 551 0 l 551 444 l 185 444 l 185 0 l 104 0 l 104 956 l 185 956 l 185 521 l 551 521 l 551 956 l 632 956 l 632 0 l 551 0 m 322 -197 l 322 -86 l 414 -86 l 414 -197 l 322 -197 z "},"I":{"ha":297,"x_min":108,"x_max":189,"o":"m 108 0 l 108 956 l 189 956 l 189 0 l 108 0 z "},"Ĳ":{"ha":631,"x_min":108,"x_max":535,"o":"m 108 0 l 108 956 l 189 956 l 189 0 l 108 0 m 321 71 q 416 88 392 74 q 447 147 440 101 q 453 326 453 192 l 453 956 l 535 956 l 535 344 q 524 103 535 168 q 472 20 513 39 q 321 0 432 1 l 321 71 z "},"Í":{"ha":297,"x_min":107,"x_max":269,"o":"m 108 0 l 108 956 l 189 956 l 189 0 l 108 0 m 107 1042 l 107 1049 l 185 1236 l 269 1236 l 269 1229 l 164 1042 l 107 1042 z "},"Ĭ":{"ha":297,"x_min":-4,"x_max":299,"o":"m 108 0 l 108 956 l 189 956 l 189 0 l 108 0 m 299 1233 q 290 1124 299 1164 q 248 1061 281 1085 q 146 1038 215 1038 q 44 1061 76 1038 q 4 1124 13 1085 q -4 1233 -4 1163 l 56 1233 q 60 1149 56 1176 q 84 1106 65 1121 q 146 1090 103 1090 q 210 1106 190 1090 q 234 1149 229 1121 q 239 1233 239 1176 l 299 1233 z "},"Ǐ":{"ha":297,"x_min":-6,"x_max":301,"o":"m 108 0 l 108 956 l 189 956 l 189 0 l 108 0 m 103 1042 l -6 1225 l -6 1233 l 51 1233 l 149 1092 l 246 1233 l 301 1233 l 301 1225 l 193 1042 l 103 1042 z "},"Î":{"ha":297,"x_min":-6,"x_max":301,"o":"m 108 0 l 108 956 l 189 956 l 189 0 l 108 0 m -6 1042 l -6 1049 l 103 1233 l 193 1233 l 301 1049 l 301 1042 l 246 1042 l 149 1182 l 51 1042 l -6 1042 z "},"Ȉ":{"ha":297,"x_min":-61,"x_max":272,"o":"m 108 0 l 108 956 l 189 956 l 189 0 l 108 0 m 89 1047 l 38 1047 l -61 1213 l -61 1219 l 17 1219 l 89 1054 l 89 1047 m 272 1047 l 221 1047 l 121 1213 l 121 1219 l 200 1219 l 272 1054 l 272 1047 z "},"Ï":{"ha":297,"x_min":-12,"x_max":311,"o":"m 108 0 l 108 956 l 189 956 l 189 0 l 108 0 m -12 1074 l -12 1171 l 67 1171 l 67 1074 l -12 1074 m 232 1074 l 232 1171 l 311 1171 l 311 1074 l 232 1074 z "},"İ":{"ha":297,"x_min":108,"x_max":189,"o":"m 108 0 l 108 956 l 189 956 l 189 0 l 108 0 m 108 1118 l 108 1215 l 188 1215 l 188 1118 l 108 1118 z "},"Ị":{"ha":297,"x_min":103,"x_max":194,"o":"m 108 0 l 108 956 l 189 956 l 189 0 l 108 0 m 103 -197 l 103 -86 l 194 -86 l 194 -197 l 103 -197 z "},"Ì":{"ha":297,"x_min":29,"x_max":192,"o":"m 108 0 l 108 956 l 189 956 l 189 0 l 108 0 m 135 1042 l 29 1229 l 29 1236 l 115 1236 l 192 1049 l 192 1042 l 135 1042 z "},"Ỉ":{"ha":297,"x_min":14,"x_max":282,"o":"m 108 0 l 108 956 l 189 956 l 189 0 l 108 0 m 90 1036 q 101 1081 90 1068 q 143 1101 113 1093 l 164 1108 q 210 1130 199 1119 q 222 1165 222 1140 q 216 1197 222 1188 q 190 1211 210 1207 q 131 1215 171 1215 q 14 1208 88 1215 l 14 1260 q 139 1269 85 1269 q 251 1249 221 1269 q 282 1174 282 1228 q 271 1112 282 1133 q 219 1076 260 1090 l 199 1069 q 160 1056 171 1061 q 147 1044 150 1050 q 144 1022 144 1038 l 90 1022 l 90 1036 z "},"Ȋ":{"ha":297,"x_min":-4,"x_max":299,"o":"m 108 0 l 108 956 l 189 956 l 189 0 l 108 0 m -4 1046 q 5 1155 -4 1115 q 47 1218 14 1194 q 149 1242 79 1242 q 250 1218 218 1242 q 290 1156 282 1194 q 299 1046 299 1117 l 239 1046 q 234 1131 239 1103 q 210 1174 229 1158 q 149 1189 192 1189 q 85 1174 104 1189 q 60 1131 65 1158 q 56 1046 56 1103 l -4 1046 z "},"Ī":{"ha":297,"x_min":15,"x_max":281,"o":"m 108 0 l 108 956 l 189 956 l 189 0 l 108 0 m 15 1158 l 15 1233 l 281 1233 l 281 1158 l 15 1158 z "},"Į":{"ha":297,"x_min":33,"x_max":190,"o":"m 150 -272 q 61 -244 89 -272 q 33 -168 33 -215 q 57 -83 33 -128 q 119 0 81 -37 l 108 0 l 108 956 l 189 956 l 189 0 q 131 -72 158 -26 q 104 -154 104 -118 q 168 -214 104 -214 q 190 -212 181 -214 l 190 -269 q 150 -272 165 -272 z "},"Ĩ":{"ha":297,"x_min":-43,"x_max":338,"o":"m 108 0 l 108 956 l 189 956 l 189 0 l 108 0 m 338 1233 q 323 1121 338 1151 q 258 1090 308 1090 q 206 1099 232 1090 q 139 1124 181 1107 q 84 1147 106 1139 q 42 1154 63 1154 q 15 1138 21 1154 q 8 1075 8 1121 l -43 1075 q -28 1187 -43 1156 q 38 1218 -12 1218 q 92 1209 65 1218 q 160 1182 119 1200 q 215 1161 194 1168 q 254 1154 235 1154 q 281 1170 275 1154 q 286 1233 286 1186 l 338 1233 z "},"J":{"ha":333,"x_min":24,"x_max":238,"o":"m 24 71 q 119 88 94 74 q 149 147 143 101 q 156 326 156 192 l 156 956 l 238 956 l 238 344 q 226 103 238 168 q 175 20 215 39 q 24 0 135 1 l 24 71 z "},"Ĵ":{"ha":333,"x_min":24,"x_max":350,"o":"m 24 71 q 119 88 94 74 q 149 147 143 101 q 156 326 156 192 l 156 956 l 238 956 l 238 344 q 226 103 238 168 q 175 20 215 39 q 24 0 135 1 l 24 71 m 43 1042 l 43 1049 l 151 1233 l 242 1233 l 350 1049 l 350 1042 l 294 1042 l 197 1182 l 100 1042 l 43 1042 z "},"K":{"ha":665,"x_min":103,"x_max":640,"o":"m 550 0 l 313 449 l 185 449 l 185 0 l 103 0 l 103 956 l 185 956 l 185 521 l 313 521 l 550 956 l 638 956 l 381 488 l 640 0 l 550 0 z "},"Ķ":{"ha":665,"x_min":103,"x_max":640,"o":"m 550 0 l 313 449 l 185 449 l 185 0 l 103 0 l 103 956 l 185 956 l 185 521 l 313 521 l 550 956 l 638 956 l 381 488 l 640 0 l 550 0 m 272 -300 q 328 -284 317 -300 q 340 -218 340 -268 l 340 -194 l 301 -194 l 301 -86 l 394 -86 l 394 -193 q 385 -285 394 -254 q 351 -328 376 -315 q 272 -340 325 -340 l 272 -300 z "},"L":{"ha":525,"x_min":103,"x_max":507,"o":"m 103 0 l 103 956 l 186 956 l 186 75 l 507 75 l 507 0 l 103 0 z "},"Ǉ":{"ha":858,"x_min":103,"x_max":763,"o":"m 103 0 l 103 956 l 186 956 l 186 75 l 507 75 l 507 0 l 103 0 m 549 71 q 644 88 619 74 q 674 147 668 101 q 681 326 681 192 l 681 956 l 763 956 l 763 344 q 751 103 763 168 q 700 20 740 39 q 549 0 660 1 l 549 71 z "},"Ĺ":{"ha":525,"x_min":103,"x_max":507,"o":"m 103 0 l 103 956 l 186 956 l 186 75 l 507 75 l 507 0 l 103 0 m 118 1039 l 118 1046 l 196 1233 l 281 1233 l 281 1226 l 175 1039 l 118 1039 z "},"Ľ":{"ha":525,"x_min":103,"x_max":507,"o":"m 103 0 l 103 956 l 186 956 l 186 75 l 507 75 l 507 0 l 103 0 m 338 639 l 356 857 l 356 971 l 435 971 l 435 857 l 390 639 l 338 639 z "},"Ļ":{"ha":525,"x_min":103,"x_max":507,"o":"m 103 0 l 103 956 l 186 956 l 186 75 l 507 75 l 507 0 l 103 0 m 218 -300 q 274 -284 263 -300 q 286 -218 286 -268 l 286 -194 l 247 -194 l 247 -86 l 340 -86 l 340 -193 q 331 -285 340 -254 q 297 -328 322 -315 q 218 -340 271 -340 l 218 -300 z "},"Ŀ":{"ha":526,"x_min":103,"x_max":507,"o":"m 103 0 l 103 956 l 186 956 l 186 75 l 507 75 l 507 0 l 103 0 m 378 443 l 378 554 l 469 554 l 469 443 l 378 443 z "},"ǈ":{"ha":789,"x_min":103,"x_max":699,"o":"m 103 0 l 103 956 l 186 956 l 186 75 l 507 75 l 507 0 l 103 0 m 615 928 l 615 1032 l 699 1032 l 699 928 l 615 928 m 519 -204 q 585 -197 565 -204 q 612 -175 606 -190 q 618 -126 618 -160 l 618 708 l 696 708 l 696 -104 q 679 -215 696 -181 q 627 -258 663 -249 q 519 -268 592 -268 l 519 -204 z "},"Ł":{"ha":526,"x_min":33,"x_max":507,"o":"m 186 75 l 507 75 l 507 0 l 103 0 l 103 400 l 33 374 l 33 443 l 103 469 l 103 956 l 186 956 l 186 500 l 389 575 l 389 506 l 186 431 l 186 75 z "},"M":{"ha":922,"x_min":104,"x_max":819,"o":"m 739 0 l 739 799 l 733 799 l 499 0 l 421 0 l 188 799 l 182 799 l 182 0 l 104 0 l 104 956 l 221 956 l 458 143 l 465 143 l 704 956 l 819 956 l 819 0 l 739 0 z "},"N":{"ha":736,"x_min":104,"x_max":633,"o":"m 549 0 l 188 776 l 182 776 l 182 0 l 104 0 l 104 956 l 192 956 l 549 186 l 554 186 l 554 956 l 633 956 l 633 0 l 549 0 z "},"Ǌ":{"ha":1069,"x_min":104,"x_max":974,"o":"m 549 0 l 188 776 l 182 776 l 182 0 l 104 0 l 104 956 l 192 956 l 549 186 l 554 186 l 554 956 l 633 956 l 633 0 l 549 0 m 760 71 q 855 88 831 74 q 885 147 879 101 q 892 326 892 192 l 892 956 l 974 956 l 974 344 q 963 103 974 168 q 911 20 951 39 q 760 0 871 1 l 760 71 z "},"Ń":{"ha":736,"x_min":104,"x_max":633,"o":"m 549 0 l 188 776 l 182 776 l 182 0 l 104 0 l 104 956 l 192 956 l 549 186 l 554 186 l 554 956 l 633 956 l 633 0 l 549 0 m 332 1039 l 332 1046 l 410 1233 l 494 1233 l 494 1226 l 389 1039 l 332 1039 z "},"Ň":{"ha":736,"x_min":104,"x_max":633,"o":"m 549 0 l 188 776 l 182 776 l 182 0 l 104 0 l 104 956 l 192 956 l 549 186 l 554 186 l 554 956 l 633 956 l 633 0 l 549 0 m 322 1042 l 214 1225 l 214 1233 l 271 1233 l 368 1092 l 465 1233 l 521 1233 l 521 1225 l 413 1042 l 322 1042 z "},"Ņ":{"ha":736,"x_min":104,"x_max":633,"o":"m 549 0 l 188 776 l 182 776 l 182 0 l 104 0 l 104 956 l 192 956 l 549 186 l 554 186 l 554 956 l 633 956 l 633 0 l 549 0 m 307 -300 q 363 -284 351 -300 q 375 -218 375 -268 l 375 -194 l 336 -194 l 336 -86 l 429 -86 l 429 -193 q 420 -285 429 -254 q 385 -328 411 -315 q 307 -340 360 -340 l 307 -300 z "},"Ṅ":{"ha":736,"x_min":104,"x_max":633,"o":"m 549 0 l 188 776 l 182 776 l 182 0 l 104 0 l 104 956 l 192 956 l 549 186 l 554 186 l 554 956 l 633 956 l 633 0 l 549 0 m 328 1118 l 328 1215 l 407 1215 l 407 1118 l 328 1118 z "},"Ŋ":{"ha":736,"x_min":104,"x_max":633,"o":"m 633 956 l 633 -104 q 616 -215 633 -181 q 564 -258 599 -249 q 456 -268 529 -268 l 456 -204 q 522 -197 501 -204 q 548 -175 542 -190 q 554 -126 554 -160 l 554 1 l 188 776 l 182 776 l 182 0 l 104 0 l 104 956 l 192 956 l 549 193 l 554 193 l 554 956 l 633 956 z "},"Ɲ":{"ha":736,"x_min":4,"x_max":633,"o":"m 633 956 l 633 0 l 549 0 l 188 776 l 182 776 l 182 -104 q 165 -215 182 -181 q 113 -258 147 -249 q 4 -268 78 -268 l 4 -204 q 71 -197 50 -204 q 98 -175 92 -190 q 104 -126 104 -160 l 104 956 l 192 956 l 549 186 l 554 186 l 554 956 l 633 956 z "},"ǋ":{"ha":1000,"x_min":104,"x_max":910,"o":"m 549 0 l 188 776 l 182 776 l 182 0 l 104 0 l 104 956 l 192 956 l 549 186 l 554 186 l 554 956 l 633 956 l 633 0 l 549 0 m 826 928 l 826 1032 l 910 1032 l 910 928 l 826 928 m 731 -204 q 797 -197 776 -204 q 823 -175 817 -190 q 829 -126 829 -160 l 829 708 l 907 708 l 907 -104 q 890 -215 907 -181 q 838 -258 874 -249 q 731 -268 803 -268 l 731 -204 z "},"Ñ":{"ha":736,"x_min":104,"x_max":633,"o":"m 549 0 l 188 776 l 182 776 l 182 0 l 104 0 l 104 956 l 192 956 l 549 186 l 554 186 l 554 956 l 633 956 l 633 0 l 549 0 m 560 1201 q 545 1089 560 1119 q 481 1058 531 1058 q 428 1067 454 1058 q 361 1092 403 1075 q 306 1115 328 1107 q 264 1122 285 1122 q 237 1106 243 1122 q 231 1043 231 1089 l 179 1043 q 194 1155 179 1124 q 260 1186 210 1186 q 315 1177 288 1186 q 382 1150 342 1168 q 437 1129 417 1136 q 476 1122 457 1122 q 503 1138 497 1122 q 508 1201 508 1154 l 560 1201 z "},"O":{"ha":724,"x_min":79,"x_max":643,"o":"m 361 -11 q 171 25 228 -11 q 97 157 114 61 q 79 478 79 253 q 97 799 79 703 q 171 931 114 894 q 361 967 228 967 q 553 931 496 967 q 626 799 610 894 q 643 478 643 704 q 626 156 643 251 q 553 25 610 61 q 361 -11 496 -11 m 361 63 q 497 84 460 63 q 548 188 535 106 q 561 478 561 269 q 548 768 561 686 q 497 872 535 850 q 361 893 460 893 q 225 872 263 893 q 174 768 188 850 q 161 478 161 686 q 174 188 161 269 q 225 84 188 106 q 361 63 263 63 z "},"Ó":{"ha":724,"x_min":79,"x_max":643,"o":"m 361 -11 q 171 25 228 -11 q 97 157 114 61 q 79 478 79 253 q 97 799 79 703 q 171 931 114 894 q 361 967 228 967 q 553 931 496 967 q 626 799 610 894 q 643 478 643 704 q 626 156 643 251 q 553 25 610 61 q 361 -11 496 -11 m 361 63 q 497 84 460 63 q 548 188 535 106 q 561 478 561 269 q 548 768 561 686 q 497 872 535 850 q 361 893 460 893 q 225 872 263 893 q 174 768 188 850 q 161 478 161 686 q 174 188 161 269 q 225 84 188 106 q 361 63 263 63 m 324 1042 l 324 1049 l 401 1236 l 486 1236 l 486 1229 l 381 1042 l 324 1042 z "},"Ŏ":{"ha":724,"x_min":79,"x_max":643,"o":"m 361 -11 q 171 25 228 -11 q 97 157 114 61 q 79 478 79 253 q 97 799 79 703 q 171 931 114 894 q 361 967 228 967 q 553 931 496 967 q 626 799 610 894 q 643 478 643 704 q 626 156 643 251 q 553 25 610 61 q 361 -11 496 -11 m 361 63 q 497 84 460 63 q 548 188 535 106 q 561 478 561 269 q 548 768 561 686 q 497 872 535 850 q 361 893 460 893 q 225 872 263 893 q 174 768 188 850 q 161 478 161 686 q 174 188 161 269 q 225 84 188 106 q 361 63 263 63 m 511 1233 q 502 1124 511 1164 q 460 1061 493 1085 q 358 1038 428 1038 q 257 1061 289 1038 q 217 1124 225 1085 q 208 1233 208 1163 l 268 1233 q 273 1149 268 1176 q 297 1106 278 1121 q 358 1090 315 1090 q 422 1106 403 1090 q 447 1149 442 1121 q 451 1233 451 1176 l 511 1233 z "},"Ǒ":{"ha":724,"x_min":79,"x_max":643,"o":"m 361 -11 q 171 25 228 -11 q 97 157 114 61 q 79 478 79 253 q 97 799 79 703 q 171 931 114 894 q 361 967 228 967 q 553 931 496 967 q 626 799 610 894 q 643 478 643 704 q 626 156 643 251 q 553 25 610 61 q 361 -11 496 -11 m 361 63 q 497 84 460 63 q 548 188 535 106 q 561 478 561 269 q 548 768 561 686 q 497 872 535 850 q 361 893 460 893 q 225 872 263 893 q 174 768 188 850 q 161 478 161 686 q 174 188 161 269 q 225 84 188 106 q 361 63 263 63 m 315 1042 l 207 1225 l 207 1233 l 264 1233 l 361 1092 l 458 1233 l 514 1233 l 514 1225 l 406 1042 l 315 1042 z "},"Ô":{"ha":724,"x_min":79,"x_max":643,"o":"m 361 -11 q 171 25 228 -11 q 97 157 114 61 q 79 478 79 253 q 97 799 79 703 q 171 931 114 894 q 361 967 228 967 q 553 931 496 967 q 626 799 610 894 q 643 478 643 704 q 626 156 643 251 q 553 25 610 61 q 361 -11 496 -11 m 361 63 q 497 84 460 63 q 548 188 535 106 q 561 478 561 269 q 548 768 561 686 q 497 872 535 850 q 361 893 460 893 q 225 872 263 893 q 174 768 188 850 q 161 478 161 686 q 174 188 161 269 q 225 84 188 106 q 361 63 263 63 m 207 1042 l 207 1049 l 315 1233 l 406 1233 l 514 1049 l 514 1042 l 458 1042 l 361 1182 l 264 1042 l 207 1042 z "},"Ố":{"ha":724,"x_min":79,"x_max":643,"o":"m 361 -11 q 171 25 228 -11 q 97 157 114 61 q 79 478 79 253 q 97 799 79 703 q 171 931 114 894 q 361 967 228 967 q 553 931 496 967 q 626 799 610 894 q 643 478 643 704 q 626 156 643 251 q 553 25 610 61 q 361 -11 496 -11 m 361 63 q 497 84 460 63 q 548 188 535 106 q 561 478 561 269 q 548 768 561 686 q 497 872 535 850 q 361 893 460 893 q 225 872 263 893 q 174 768 188 850 q 161 478 161 686 q 174 188 161 269 q 225 84 188 106 q 361 63 263 63 m 206 1033 l 206 1040 l 314 1225 l 404 1225 l 513 1040 l 513 1033 l 457 1033 l 360 1174 l 263 1033 l 206 1033 m 432 1235 l 432 1242 l 510 1429 l 594 1429 l 594 1422 l 489 1235 l 432 1235 z "},"Ộ":{"ha":724,"x_min":79,"x_max":643,"o":"m 361 -11 q 171 25 228 -11 q 97 157 114 61 q 79 478 79 253 q 97 799 79 703 q 171 931 114 894 q 361 967 228 967 q 553 931 496 967 q 626 799 610 894 q 643 478 643 704 q 626 156 643 251 q 553 25 610 61 q 361 -11 496 -11 m 361 63 q 497 84 460 63 q 548 188 535 106 q 561 478 561 269 q 548 768 561 686 q 497 872 535 850 q 361 893 460 893 q 225 872 263 893 q 174 768 188 850 q 161 478 161 686 q 174 188 161 269 q 225 84 188 106 q 361 63 263 63 m 315 -197 l 315 -86 l 407 -86 l 407 -197 l 315 -197 m 207 1042 l 207 1049 l 315 1233 l 406 1233 l 514 1049 l 514 1042 l 458 1042 l 361 1182 l 264 1042 l 207 1042 z "},"Ồ":{"ha":724,"x_min":79,"x_max":643,"o":"m 361 -11 q 171 25 228 -11 q 97 157 114 61 q 79 478 79 253 q 97 799 79 703 q 171 931 114 894 q 361 967 228 967 q 553 931 496 967 q 626 799 610 894 q 643 478 643 704 q 626 156 643 251 q 553 25 610 61 q 361 -11 496 -11 m 361 63 q 497 84 460 63 q 548 188 535 106 q 561 478 561 269 q 548 768 561 686 q 497 872 535 850 q 361 893 460 893 q 225 872 263 893 q 174 768 188 850 q 161 478 161 686 q 174 188 161 269 q 225 84 188 106 q 361 63 263 63 m 206 1029 l 206 1036 l 314 1221 l 404 1221 l 513 1036 l 513 1029 l 457 1029 l 360 1169 l 263 1029 l 206 1029 m 453 1231 l 347 1418 l 347 1425 l 433 1425 l 510 1238 l 510 1231 l 453 1231 z "},"Ổ":{"ha":724,"x_min":79,"x_max":643,"o":"m 361 -11 q 171 25 228 -11 q 97 157 114 61 q 79 478 79 253 q 97 799 79 703 q 171 931 114 894 q 361 967 228 967 q 553 931 496 967 q 626 799 610 894 q 643 478 643 704 q 626 156 643 251 q 553 25 610 61 q 361 -11 496 -11 m 361 63 q 497 84 460 63 q 548 188 535 106 q 561 478 561 269 q 548 768 561 686 q 497 872 535 850 q 361 893 460 893 q 225 872 263 893 q 174 768 188 850 q 161 478 161 686 q 174 188 161 269 q 225 84 188 106 q 361 63 263 63 m 207 1029 l 207 1036 l 315 1221 l 406 1221 l 514 1036 l 514 1029 l 458 1029 l 361 1169 l 264 1029 l 207 1029 m 413 1242 q 424 1285 413 1272 q 465 1307 435 1297 l 486 1313 q 533 1334 521 1324 q 544 1371 544 1344 q 538 1402 544 1392 q 513 1416 532 1413 q 453 1419 493 1419 q 336 1414 425 1419 l 336 1464 q 461 1474 407 1474 q 574 1453 543 1474 q 604 1378 604 1432 q 593 1317 604 1338 q 542 1282 582 1296 l 521 1275 q 475 1256 483 1263 q 467 1228 467 1249 l 413 1228 l 413 1242 z "},"Ỗ":{"ha":724,"x_min":79,"x_max":643,"o":"m 361 -11 q 171 25 228 -11 q 97 157 114 61 q 79 478 79 253 q 97 799 79 703 q 171 931 114 894 q 361 967 228 967 q 553 931 496 967 q 626 799 610 894 q 643 478 643 704 q 626 156 643 251 q 553 25 610 61 q 361 -11 496 -11 m 361 63 q 497 84 460 63 q 548 188 535 106 q 561 478 561 269 q 548 768 561 686 q 497 872 535 850 q 361 893 460 893 q 225 872 263 893 q 174 768 188 850 q 161 478 161 686 q 174 188 161 269 q 225 84 188 106 q 361 63 263 63 m 204 1031 l 204 1038 l 313 1222 l 403 1222 l 511 1038 l 511 1031 l 456 1031 l 358 1171 l 261 1031 l 204 1031 m 550 1463 q 535 1350 550 1381 q 471 1319 521 1319 q 419 1328 444 1319 q 351 1353 393 1336 q 297 1376 318 1368 q 254 1383 275 1383 q 227 1367 233 1383 q 221 1304 221 1350 l 169 1304 q 185 1416 169 1385 q 250 1447 200 1447 q 305 1438 278 1447 q 372 1411 332 1429 q 427 1390 407 1397 q 467 1383 447 1383 q 493 1399 488 1383 q 499 1463 499 1415 l 550 1463 z "},"Ȍ":{"ha":724,"x_min":79,"x_max":643,"o":"m 361 -11 q 171 25 228 -11 q 97 157 114 61 q 79 478 79 253 q 97 799 79 703 q 171 931 114 894 q 361 967 228 967 q 553 931 496 967 q 626 799 610 894 q 643 478 643 704 q 626 156 643 251 q 553 25 610 61 q 361 -11 496 -11 m 361 63 q 497 84 460 63 q 548 188 535 106 q 561 478 561 269 q 548 768 561 686 q 497 872 535 850 q 361 893 460 893 q 225 872 263 893 q 174 768 188 850 q 161 478 161 686 q 174 188 161 269 q 225 84 188 106 q 361 63 263 63 m 301 1047 l 250 1047 l 151 1213 l 151 1219 l 229 1219 l 301 1054 l 301 1047 m 485 1047 l 433 1047 l 333 1213 l 333 1219 l 413 1219 l 485 1054 l 485 1047 z "},"Ö":{"ha":724,"x_min":79,"x_max":643,"o":"m 361 -11 q 171 25 228 -11 q 97 157 114 61 q 79 478 79 253 q 97 799 79 703 q 171 931 114 894 q 361 967 228 967 q 553 931 496 967 q 626 799 610 894 q 643 478 643 704 q 626 156 643 251 q 553 25 610 61 q 361 -11 496 -11 m 361 63 q 497 84 460 63 q 548 188 535 106 q 561 478 561 269 q 548 768 561 686 q 497 872 535 850 q 361 893 460 893 q 225 872 263 893 q 174 768 188 850 q 161 478 161 686 q 174 188 161 269 q 225 84 188 106 q 361 63 263 63 m 200 1074 l 200 1171 l 279 1171 l 279 1074 l 200 1074 m 444 1074 l 444 1171 l 524 1171 l 524 1074 l 444 1074 z "},"Ọ":{"ha":724,"x_min":79,"x_max":643,"o":"m 361 -11 q 171 25 228 -11 q 97 157 114 61 q 79 478 79 253 q 97 799 79 703 q 171 931 114 894 q 361 967 228 967 q 553 931 496 967 q 626 799 610 894 q 643 478 643 704 q 626 156 643 251 q 553 25 610 61 q 361 -11 496 -11 m 361 63 q 497 84 460 63 q 548 188 535 106 q 561 478 561 269 q 548 768 561 686 q 497 872 535 850 q 361 893 460 893 q 225 872 263 893 q 174 768 188 850 q 161 478 161 686 q 174 188 161 269 q 225 84 188 106 q 361 63 263 63 m 315 -197 l 315 -86 l 407 -86 l 407 -197 l 315 -197 z "},"Ò":{"ha":724,"x_min":79,"x_max":643,"o":"m 361 -11 q 171 25 228 -11 q 97 157 114 61 q 79 478 79 253 q 97 799 79 703 q 171 931 114 894 q 361 967 228 967 q 553 931 496 967 q 626 799 610 894 q 643 478 643 704 q 626 156 643 251 q 553 25 610 61 q 361 -11 496 -11 m 361 63 q 497 84 460 63 q 548 188 535 106 q 561 478 561 269 q 548 768 561 686 q 497 872 535 850 q 361 893 460 893 q 225 872 263 893 q 174 768 188 850 q 161 478 161 686 q 174 188 161 269 q 225 84 188 106 q 361 63 263 63 m 340 1042 l 235 1229 l 235 1236 l 321 1236 l 397 1049 l 397 1042 l 340 1042 z "},"Ỏ":{"ha":724,"x_min":79,"x_max":643,"o":"m 361 -11 q 171 25 228 -11 q 97 157 114 61 q 79 478 79 253 q 97 799 79 703 q 171 931 114 894 q 361 967 228 967 q 553 931 496 967 q 626 799 610 894 q 643 478 643 704 q 626 156 643 251 q 553 25 610 61 q 361 -11 496 -11 m 361 63 q 497 84 460 63 q 548 188 535 106 q 561 478 561 269 q 548 768 561 686 q 497 872 535 850 q 361 893 460 893 q 225 872 263 893 q 174 768 188 850 q 161 478 161 686 q 174 188 161 269 q 225 84 188 106 q 361 63 263 63 m 303 1036 q 314 1081 303 1068 q 356 1101 325 1093 l 376 1108 q 423 1130 411 1119 q 435 1165 435 1140 q 428 1197 435 1188 q 403 1211 422 1207 q 343 1215 383 1215 q 226 1208 300 1215 l 226 1260 q 351 1269 297 1269 q 464 1249 433 1269 q 494 1174 494 1228 q 483 1112 494 1133 q 432 1076 472 1090 l 411 1069 q 373 1056 383 1061 q 360 1044 363 1050 q 357 1022 357 1038 l 303 1022 l 303 1036 z "},"Ơ":{"ha":724,"x_min":79,"x_max":685,"o":"m 685 1090 l 685 1044 q 676 965 685 993 q 645 924 668 938 q 578 908 622 911 q 631 771 619 864 q 643 478 643 678 q 626 156 643 251 q 553 25 610 61 q 361 -11 496 -11 q 171 25 228 -11 q 97 157 114 61 q 79 478 79 253 q 97 799 79 703 q 171 931 114 894 q 361 967 228 967 q 492 956 446 967 l 553 956 q 612 972 599 956 q 625 1032 625 988 l 625 1090 l 685 1090 m 361 63 q 497 84 460 63 q 548 188 535 106 q 561 478 561 269 q 548 768 561 686 q 497 872 535 850 q 361 893 460 893 q 225 872 263 893 q 174 768 188 850 q 161 478 161 686 q 174 188 161 269 q 225 84 188 106 q 361 63 263 63 z "},"Ớ":{"ha":724,"x_min":79,"x_max":685,"o":"m 685 1090 l 685 1044 q 676 965 685 993 q 645 924 668 938 q 578 908 622 911 q 631 771 619 864 q 643 478 643 678 q 626 156 643 251 q 553 25 610 61 q 361 -11 496 -11 q 171 25 228 -11 q 97 157 114 61 q 79 478 79 253 q 97 799 79 703 q 171 931 114 894 q 361 967 228 967 q 492 956 446 967 l 553 956 q 612 972 599 956 q 625 1032 625 988 l 625 1090 l 685 1090 m 361 63 q 497 84 460 63 q 548 188 535 106 q 561 478 561 269 q 548 768 561 686 q 497 872 535 850 q 361 893 460 893 q 225 872 263 893 q 174 768 188 850 q 161 478 161 686 q 174 188 161 269 q 225 84 188 106 q 361 63 263 63 m 325 1039 l 325 1046 l 403 1233 l 488 1233 l 488 1226 l 382 1039 l 325 1039 z "},"Ợ":{"ha":724,"x_min":79,"x_max":685,"o":"m 685 1090 l 685 1044 q 676 965 685 993 q 645 924 668 938 q 578 908 622 911 q 631 771 619 864 q 643 478 643 678 q 626 156 643 251 q 553 25 610 61 q 361 -11 496 -11 q 171 25 228 -11 q 97 157 114 61 q 79 478 79 253 q 97 799 79 703 q 171 931 114 894 q 361 967 228 967 q 492 956 446 967 l 553 956 q 612 972 599 956 q 625 1032 625 988 l 625 1090 l 685 1090 m 361 63 q 497 84 460 63 q 548 188 535 106 q 561 478 561 269 q 548 768 561 686 q 497 872 535 850 q 361 893 460 893 q 225 872 263 893 q 174 768 188 850 q 161 478 161 686 q 174 188 161 269 q 225 84 188 106 q 361 63 263 63 m 315 -197 l 315 -86 l 407 -86 l 407 -197 l 315 -197 z "},"Ờ":{"ha":724,"x_min":79,"x_max":685,"o":"m 685 1090 l 685 1044 q 676 965 685 993 q 645 924 668 938 q 578 908 622 911 q 631 771 619 864 q 643 478 643 678 q 626 156 643 251 q 553 25 610 61 q 361 -11 496 -11 q 171 25 228 -11 q 97 157 114 61 q 79 478 79 253 q 97 799 79 703 q 171 931 114 894 q 361 967 228 967 q 492 956 446 967 l 553 956 q 612 972 599 956 q 625 1032 625 988 l 625 1090 l 685 1090 m 361 63 q 497 84 460 63 q 548 188 535 106 q 561 478 561 269 q 548 768 561 686 q 497 872 535 850 q 361 893 460 893 q 225 872 263 893 q 174 768 188 850 q 161 478 161 686 q 174 188 161 269 q 225 84 188 106 q 361 63 263 63 m 339 1039 l 233 1226 l 233 1233 l 319 1233 l 396 1046 l 396 1039 l 339 1039 z "},"Ở":{"ha":724,"x_min":79,"x_max":685,"o":"m 685 1090 l 685 1044 q 676 965 685 993 q 645 924 668 938 q 578 908 622 911 q 631 771 619 864 q 643 478 643 678 q 626 156 643 251 q 553 25 610 61 q 361 -11 496 -11 q 171 25 228 -11 q 97 157 114 61 q 79 478 79 253 q 97 799 79 703 q 171 931 114 894 q 361 967 228 967 q 492 956 446 967 l 553 956 q 612 972 599 956 q 625 1032 625 988 l 625 1090 l 685 1090 m 361 63 q 497 84 460 63 q 548 188 535 106 q 561 478 561 269 q 548 768 561 686 q 497 872 535 850 q 361 893 460 893 q 225 872 263 893 q 174 768 188 850 q 161 478 161 686 q 174 188 161 269 q 225 84 188 106 q 361 63 263 63 m 303 1036 q 314 1081 303 1068 q 356 1101 325 1093 l 376 1108 q 423 1130 411 1119 q 435 1165 435 1140 q 428 1197 435 1188 q 403 1211 422 1207 q 343 1215 383 1215 q 226 1208 300 1215 l 226 1260 q 351 1269 297 1269 q 464 1249 433 1269 q 494 1174 494 1228 q 483 1112 494 1133 q 432 1076 472 1090 l 411 1069 q 373 1056 383 1061 q 360 1044 363 1050 q 357 1022 357 1038 l 303 1022 l 303 1036 z "},"Ỡ":{"ha":724,"x_min":79,"x_max":685,"o":"m 685 1090 l 685 1044 q 676 965 685 993 q 645 924 668 938 q 578 908 622 911 q 631 771 619 864 q 643 478 643 678 q 626 156 643 251 q 553 25 610 61 q 361 -11 496 -11 q 171 25 228 -11 q 97 157 114 61 q 79 478 79 253 q 97 799 79 703 q 171 931 114 894 q 361 967 228 967 q 492 956 446 967 l 553 956 q 612 972 599 956 q 625 1032 625 988 l 625 1090 l 685 1090 m 361 63 q 497 84 460 63 q 548 188 535 106 q 561 478 561 269 q 548 768 561 686 q 497 872 535 850 q 361 893 460 893 q 225 872 263 893 q 174 768 188 850 q 161 478 161 686 q 174 188 161 269 q 225 84 188 106 q 361 63 263 63 m 550 1233 q 535 1121 550 1151 q 471 1090 521 1090 q 419 1099 444 1090 q 351 1124 393 1107 q 297 1147 318 1139 q 254 1154 275 1154 q 227 1138 233 1154 q 221 1075 221 1121 l 169 1075 q 185 1187 169 1156 q 250 1218 200 1218 q 305 1209 278 1218 q 372 1182 332 1200 q 427 1161 407 1168 q 467 1154 447 1154 q 493 1170 488 1154 q 499 1233 499 1186 l 550 1233 z "},"Ő":{"ha":724,"x_min":79,"x_max":643,"o":"m 361 -11 q 171 25 228 -11 q 97 157 114 61 q 79 478 79 253 q 97 799 79 703 q 171 931 114 894 q 361 967 228 967 q 553 931 496 967 q 626 799 610 894 q 643 478 643 704 q 626 156 643 251 q 553 25 610 61 q 361 -11 496 -11 m 361 63 q 497 84 460 63 q 548 188 535 106 q 561 478 561 269 q 548 768 561 686 q 497 872 535 850 q 361 893 460 893 q 225 872 263 893 q 174 768 188 850 q 161 478 161 686 q 174 188 161 269 q 225 84 188 106 q 361 63 263 63 m 244 1047 l 244 1054 l 317 1219 l 396 1219 l 396 1213 l 296 1047 l 244 1047 m 428 1047 l 428 1054 l 500 1219 l 578 1219 l 578 1213 l 479 1047 l 428 1047 z "},"Ȏ":{"ha":724,"x_min":79,"x_max":643,"o":"m 361 -11 q 171 25 228 -11 q 97 157 114 61 q 79 478 79 253 q 97 799 79 703 q 171 931 114 894 q 361 967 228 967 q 553 931 496 967 q 626 799 610 894 q 643 478 643 704 q 626 156 643 251 q 553 25 610 61 q 361 -11 496 -11 m 361 63 q 497 84 460 63 q 548 188 535 106 q 561 478 561 269 q 548 768 561 686 q 497 872 535 850 q 361 893 460 893 q 225 872 263 893 q 174 768 188 850 q 161 478 161 686 q 174 188 161 269 q 225 84 188 106 q 361 63 263 63 m 208 1046 q 217 1155 208 1115 q 259 1218 226 1194 q 361 1242 292 1242 q 463 1218 431 1242 q 503 1156 494 1194 q 511 1046 511 1117 l 451 1046 q 447 1131 451 1103 q 423 1174 442 1158 q 361 1189 404 1189 q 297 1174 317 1189 q 273 1131 278 1158 q 268 1046 268 1103 l 208 1046 z "},"Ō":{"ha":724,"x_min":79,"x_max":643,"o":"m 361 -11 q 171 25 228 -11 q 97 157 114 61 q 79 478 79 253 q 97 799 79 703 q 171 931 114 894 q 361 967 228 967 q 553 931 496 967 q 626 799 610 894 q 643 478 643 704 q 626 156 643 251 q 553 25 610 61 q 361 -11 496 -11 m 361 63 q 497 84 460 63 q 548 188 535 106 q 561 478 561 269 q 548 768 561 686 q 497 872 535 850 q 361 893 460 893 q 225 872 263 893 q 174 768 188 850 q 161 478 161 686 q 174 188 161 269 q 225 84 188 106 q 361 63 263 63 m 228 1158 l 228 1233 l 493 1233 l 493 1158 l 228 1158 z "},"Ǫ":{"ha":724,"x_min":79,"x_max":644,"o":"m 492 -272 q 403 -244 432 -272 q 375 -172 375 -217 q 395 -89 375 -132 q 451 -7 415 -46 q 361 -11 414 -11 q 171 25 228 -11 q 97 157 114 61 q 79 478 79 253 q 97 799 79 703 q 171 931 114 894 q 361 967 228 967 q 553 931 496 967 q 627 799 610 894 q 644 478 644 703 q 638 240 644 325 q 613 102 632 154 q 553 24 593 50 q 477 -57 510 -4 q 444 -156 444 -110 q 460 -198 444 -182 q 508 -214 475 -214 q 532 -212 521 -214 l 532 -269 q 492 -272 515 -272 m 361 63 q 498 84 460 63 q 549 188 536 106 q 563 478 563 269 q 549 768 563 686 q 498 872 536 850 q 361 893 460 893 q 225 872 263 893 q 174 768 188 850 q 161 478 161 686 q 174 188 161 269 q 225 84 188 106 q 361 63 263 63 z "},"Ø":{"ha":722,"x_min":79,"x_max":643,"o":"m 585 901 q 632 762 621 856 q 643 478 643 668 q 626 156 643 251 q 553 25 610 61 q 361 -11 496 -11 q 192 13 246 -11 l 153 -76 l 79 -76 l 138 56 q 90 194 101 101 q 79 478 79 288 q 97 799 79 703 q 171 931 114 894 q 361 967 228 967 q 531 943 478 967 l 569 1032 l 643 1032 l 585 901 m 161 478 q 165 267 161 342 q 179 150 168 192 l 500 874 q 449 890 479 886 q 361 893 418 893 q 225 872 263 893 q 174 768 188 850 q 161 478 161 686 m 561 478 q 558 689 561 614 q 543 806 554 764 l 222 82 q 274 66 243 69 q 361 63 304 63 q 497 84 460 63 q 548 188 535 106 q 561 478 561 269 z "},"Ǿ":{"ha":722,"x_min":79,"x_max":643,"o":"m 585 901 q 632 762 621 856 q 643 478 643 668 q 626 156 643 251 q 553 25 610 61 q 361 -11 496 -11 q 192 13 246 -11 l 153 -76 l 79 -76 l 138 56 q 90 194 101 101 q 79 478 79 288 q 97 799 79 703 q 171 931 114 894 q 361 967 228 967 q 531 943 478 967 l 569 1032 l 643 1032 l 585 901 m 161 478 q 165 267 161 342 q 179 150 168 192 l 500 874 q 449 890 479 886 q 361 893 418 893 q 225 872 263 893 q 174 768 188 850 q 161 478 161 686 m 561 478 q 558 689 561 614 q 543 806 554 764 l 222 82 q 274 66 243 69 q 361 63 304 63 q 497 84 460 63 q 548 188 535 106 q 561 478 561 269 m 325 1039 l 325 1046 l 403 1233 l 488 1233 l 488 1226 l 382 1039 l 325 1039 z "},"Õ":{"ha":724,"x_min":79,"x_max":643,"o":"m 361 -11 q 171 25 228 -11 q 97 157 114 61 q 79 478 79 253 q 97 799 79 703 q 171 931 114 894 q 361 967 228 967 q 553 931 496 967 q 626 799 610 894 q 643 478 643 704 q 626 156 643 251 q 553 25 610 61 q 361 -11 496 -11 m 361 63 q 497 84 460 63 q 548 188 535 106 q 561 478 561 269 q 548 768 561 686 q 497 872 535 850 q 361 893 460 893 q 225 872 263 893 q 174 768 188 850 q 161 478 161 686 q 174 188 161 269 q 225 84 188 106 q 361 63 263 63 m 551 1201 q 537 1089 551 1119 q 472 1058 522 1058 q 420 1067 446 1058 q 353 1092 394 1075 q 298 1115 319 1107 q 256 1122 276 1122 q 228 1106 235 1122 q 222 1043 222 1089 l 171 1043 q 186 1155 171 1124 q 251 1186 201 1186 q 306 1177 279 1186 q 374 1150 333 1168 q 428 1129 408 1136 q 468 1122 449 1122 q 494 1138 489 1122 q 500 1201 500 1154 l 551 1201 z "},"Œ":{"ha":1038,"x_min":79,"x_max":985,"o":"m 361 0 q 171 35 228 0 q 97 165 114 71 q 79 478 79 258 q 97 791 79 697 q 171 920 114 885 q 361 956 228 956 l 985 956 l 985 882 l 656 882 q 575 889 624 882 q 628 768 614 851 q 643 519 642 685 l 938 519 l 938 446 l 643 446 q 628 190 642 275 q 574 67 614 104 q 656 74 622 74 l 985 74 l 985 0 l 361 0 m 361 74 q 497 95 460 74 q 548 196 535 117 q 561 478 561 275 q 548 760 561 681 q 497 860 535 839 q 361 882 460 882 q 225 860 263 882 q 174 760 188 839 q 161 478 161 681 q 174 196 161 275 q 225 95 188 117 q 361 74 263 74 z "},"P":{"ha":646,"x_min":103,"x_max":600,"o":"m 103 956 l 382 956 q 526 918 478 956 q 587 819 574 881 q 600 661 600 758 q 586 506 600 567 q 524 406 572 444 q 381 367 476 367 l 185 367 l 185 0 l 103 0 l 103 956 m 364 439 q 466 464 433 439 q 508 534 499 489 q 518 661 518 579 q 509 789 518 744 q 467 858 500 833 q 365 882 435 882 l 185 882 l 185 439 l 364 439 z "},"Þ":{"ha":646,"x_min":103,"x_max":600,"o":"m 103 956 l 185 956 l 185 781 l 382 781 q 526 743 478 781 q 587 644 574 706 q 600 486 600 583 q 586 331 600 392 q 524 231 572 269 q 381 192 476 192 l 185 192 l 185 0 l 103 0 l 103 956 m 364 265 q 466 290 433 265 q 508 359 499 314 q 518 486 518 404 q 509 615 518 571 q 467 684 500 660 q 365 708 435 708 l 185 708 l 185 265 l 364 265 z "},"Q":{"ha":724,"x_min":79,"x_max":661,"o":"m 661 -157 l 661 -160 l 574 -160 l 486 -1 q 361 -11 438 -11 q 171 25 228 -11 q 97 157 114 61 q 79 478 79 253 q 97 799 79 703 q 171 931 114 894 q 361 967 228 967 q 553 931 496 967 q 626 799 610 894 q 643 478 643 704 q 637 246 643 331 q 613 108 631 161 q 557 28 594 56 l 661 -157 m 361 63 q 449 67 425 63 l 317 303 l 403 303 l 517 100 q 552 214 543 132 q 561 478 561 296 q 548 768 561 686 q 497 872 535 850 q 361 893 460 893 q 225 872 263 893 q 174 768 188 850 q 161 478 161 686 q 174 188 161 269 q 225 84 188 106 q 361 63 263 63 z "},"R":{"ha":686,"x_min":103,"x_max":624,"o":"m 536 0 l 411 394 l 385 394 l 185 394 l 185 0 l 103 0 l 103 956 l 392 956 q 535 919 488 956 q 595 825 582 883 q 608 675 608 767 q 587 502 608 568 q 492 410 565 436 l 624 0 l 536 0 m 372 467 q 474 490 442 467 q 517 556 507 514 q 526 675 526 599 q 517 794 526 753 q 476 859 508 836 q 375 882 444 882 l 185 882 l 185 467 l 372 467 z "},"Ŕ":{"ha":686,"x_min":103,"x_max":624,"o":"m 536 0 l 411 394 l 385 394 l 185 394 l 185 0 l 103 0 l 103 956 l 392 956 q 535 919 488 956 q 595 825 582 883 q 608 675 608 767 q 587 502 608 568 q 492 410 565 436 l 624 0 l 536 0 m 372 467 q 474 490 442 467 q 517 556 507 514 q 526 675 526 599 q 517 794 526 753 q 476 859 508 836 q 375 882 444 882 l 185 882 l 185 467 l 372 467 m 307 1039 l 307 1046 l 385 1233 l 469 1233 l 469 1226 l 364 1039 l 307 1039 z "},"Ř":{"ha":686,"x_min":103,"x_max":624,"o":"m 536 0 l 411 394 l 385 394 l 185 394 l 185 0 l 103 0 l 103 956 l 392 956 q 535 919 488 956 q 595 825 582 883 q 608 675 608 767 q 587 502 608 568 q 492 410 565 436 l 624 0 l 536 0 m 372 467 q 474 490 442 467 q 517 556 507 514 q 526 675 526 599 q 517 794 526 753 q 476 859 508 836 q 375 882 444 882 l 185 882 l 185 467 l 372 467 m 297 1042 l 189 1225 l 189 1233 l 246 1233 l 343 1092 l 440 1233 l 496 1233 l 496 1225 l 388 1042 l 297 1042 z "},"Ŗ":{"ha":686,"x_min":103,"x_max":624,"o":"m 536 0 l 411 394 l 385 394 l 185 394 l 185 0 l 103 0 l 103 956 l 392 956 q 535 919 488 956 q 595 825 582 883 q 608 675 608 767 q 587 502 608 568 q 492 410 565 436 l 624 0 l 536 0 m 372 467 q 474 490 442 467 q 517 556 507 514 q 526 675 526 599 q 517 794 526 753 q 476 859 508 836 q 375 882 444 882 l 185 882 l 185 467 l 372 467 m 282 -300 q 338 -284 326 -300 q 350 -218 350 -268 l 350 -194 l 311 -194 l 311 -86 l 404 -86 l 404 -193 q 395 -285 404 -254 q 360 -328 386 -315 q 282 -340 335 -340 l 282 -300 z "},"Ȑ":{"ha":686,"x_min":103,"x_max":624,"o":"m 536 0 l 411 394 l 385 394 l 185 394 l 185 0 l 103 0 l 103 956 l 392 956 q 535 919 488 956 q 595 825 582 883 q 608 675 608 767 q 587 502 608 568 q 492 410 565 436 l 624 0 l 536 0 m 372 467 q 474 490 442 467 q 517 556 507 514 q 526 675 526 599 q 517 794 526 753 q 476 859 508 836 q 375 882 444 882 l 185 882 l 185 467 l 372 467 m 283 1047 l 232 1047 l 133 1213 l 133 1219 l 211 1219 l 283 1054 l 283 1047 m 467 1047 l 415 1047 l 315 1213 l 315 1219 l 394 1219 l 467 1054 l 467 1047 z "},"Ṛ":{"ha":686,"x_min":103,"x_max":624,"o":"m 536 0 l 411 394 l 385 394 l 185 394 l 185 0 l 103 0 l 103 956 l 392 956 q 535 919 488 956 q 595 825 582 883 q 608 675 608 767 q 587 502 608 568 q 492 410 565 436 l 624 0 l 536 0 m 372 467 q 474 490 442 467 q 517 556 507 514 q 526 675 526 599 q 517 794 526 753 q 476 859 508 836 q 375 882 444 882 l 185 882 l 185 467 l 372 467 m 297 -197 l 297 -86 l 389 -86 l 389 -197 l 297 -197 z "},"Ȓ":{"ha":686,"x_min":103,"x_max":624,"o":"m 536 0 l 411 394 l 385 394 l 185 394 l 185 0 l 103 0 l 103 956 l 392 956 q 535 919 488 956 q 595 825 582 883 q 608 675 608 767 q 587 502 608 568 q 492 410 565 436 l 624 0 l 536 0 m 372 467 q 474 490 442 467 q 517 556 507 514 q 526 675 526 599 q 517 794 526 753 q 476 859 508 836 q 375 882 444 882 l 185 882 l 185 467 l 372 467 m 190 1046 q 199 1155 190 1115 q 241 1218 208 1194 q 343 1242 274 1242 q 444 1218 413 1242 q 485 1156 476 1194 q 493 1046 493 1117 l 433 1046 q 428 1131 433 1103 q 405 1174 424 1158 q 343 1189 386 1189 q 279 1174 299 1189 q 255 1131 260 1158 q 250 1046 250 1103 l 190 1046 z "},"S":{"ha":617,"x_min":61,"x_max":556,"o":"m 314 -11 q 192 -6 257 -11 q 81 7 128 -1 l 81 79 q 188 67 129 72 q 289 63 247 63 q 378 70 344 63 q 438 99 413 78 q 467 156 460 117 q 474 258 474 194 q 468 376 474 343 q 440 422 463 408 q 361 444 418 435 l 190 471 q 104 508 132 479 q 69 583 76 538 q 61 707 61 628 q 120 907 61 847 q 314 967 179 967 q 428 961 371 967 q 519 947 486 956 l 519 876 q 428 888 481 883 q 331 893 375 893 q 231 883 268 893 q 175 849 194 872 q 149 792 156 825 q 143 707 143 760 q 149 608 143 639 q 173 565 156 578 q 232 546 190 553 l 393 521 q 490 490 456 510 q 542 424 524 471 q 556 268 556 388 q 533 104 556 164 q 459 17 511 44 q 314 -11 407 -11 z "},"Ś":{"ha":617,"x_min":61,"x_max":556,"o":"m 314 -11 q 192 -6 257 -11 q 81 7 128 -1 l 81 79 q 188 67 129 72 q 289 63 247 63 q 378 70 344 63 q 438 99 413 78 q 467 156 460 117 q 474 258 474 194 q 468 376 474 343 q 440 422 463 408 q 361 444 418 435 l 190 471 q 104 508 132 479 q 69 583 76 538 q 61 707 61 628 q 120 907 61 847 q 314 967 179 967 q 428 961 371 967 q 519 947 486 956 l 519 876 q 428 888 481 883 q 331 893 375 893 q 231 883 268 893 q 175 849 194 872 q 149 792 156 825 q 143 707 143 760 q 149 608 143 639 q 173 565 156 578 q 232 546 190 553 l 393 521 q 490 490 456 510 q 542 424 524 471 q 556 268 556 388 q 533 104 556 164 q 459 17 511 44 q 314 -11 407 -11 m 272 1039 l 272 1046 l 350 1233 l 435 1233 l 435 1226 l 329 1039 l 272 1039 z "},"Ꞌ":{"ha":147,"x_min":33,"x_max":113,"o":"m 33 401 l 33 956 l 113 956 l 113 710 l 88 401 l 33 401 z "},"Š":{"ha":618,"x_min":61,"x_max":556,"o":"m 314 -11 q 192 -6 257 -11 q 81 7 128 -1 l 81 79 q 188 67 129 72 q 289 63 247 63 q 378 70 344 63 q 438 99 413 78 q 467 156 460 117 q 474 258 474 194 q 468 376 474 343 q 440 422 463 408 q 361 444 418 435 l 190 471 q 104 508 132 479 q 69 583 76 538 q 61 707 61 628 q 120 907 61 847 q 314 967 179 967 q 428 961 371 967 q 519 947 486 956 l 519 876 q 428 888 481 883 q 331 893 375 893 q 231 883 268 893 q 175 849 194 872 q 149 792 156 825 q 143 707 143 760 q 149 608 143 639 q 173 565 156 578 q 232 546 190 553 l 393 521 q 490 490 456 510 q 542 424 524 471 q 556 268 556 388 q 533 104 556 164 q 459 17 511 44 q 314 -11 407 -11 m 269 1042 l 161 1225 l 161 1233 l 218 1233 l 315 1092 l 413 1233 l 468 1233 l 468 1225 l 360 1042 l 269 1042 z "},"Ş":{"ha":617,"x_min":61,"x_max":556,"o":"m 556 268 q 535 108 556 168 q 467 20 515 49 q 335 -11 419 -8 l 278 -264 l 199 -264 l 199 -257 l 275 -11 q 81 7 150 -6 l 81 79 q 188 67 129 72 q 289 63 247 63 q 378 70 344 63 q 438 99 413 78 q 467 156 460 117 q 474 258 474 194 q 468 376 474 343 q 440 422 463 408 q 361 444 418 435 l 190 471 q 104 508 132 479 q 69 583 76 538 q 61 707 61 628 q 120 907 61 847 q 314 967 179 967 q 428 961 371 967 q 519 947 486 956 l 519 876 q 428 888 481 883 q 331 893 375 893 q 231 883 268 893 q 175 849 194 872 q 149 792 156 825 q 143 707 143 760 q 149 608 143 639 q 173 565 156 578 q 232 546 190 553 l 393 521 q 490 490 456 510 q 542 424 524 471 q 556 268 556 388 z "},"Ŝ":{"ha":617,"x_min":61,"x_max":556,"o":"m 314 -11 q 192 -6 257 -11 q 81 7 128 -1 l 81 79 q 188 67 129 72 q 289 63 247 63 q 378 70 344 63 q 438 99 413 78 q 467 156 460 117 q 474 258 474 194 q 468 376 474 343 q 440 422 463 408 q 361 444 418 435 l 190 471 q 104 508 132 479 q 69 583 76 538 q 61 707 61 628 q 120 907 61 847 q 314 967 179 967 q 428 961 371 967 q 519 947 486 956 l 519 876 q 428 888 481 883 q 331 893 375 893 q 231 883 268 893 q 175 849 194 872 q 149 792 156 825 q 143 707 143 760 q 149 608 143 639 q 173 565 156 578 q 232 546 190 553 l 393 521 q 490 490 456 510 q 542 424 524 471 q 556 268 556 388 q 533 104 556 164 q 459 17 511 44 q 314 -11 407 -11 m 154 1042 l 154 1049 l 263 1233 l 353 1233 l 461 1049 l 461 1042 l 406 1042 l 308 1182 l 211 1042 l 154 1042 z "},"Ș":{"ha":617,"x_min":61,"x_max":556,"o":"m 314 -11 q 192 -6 257 -11 q 81 7 128 -1 l 81 79 q 188 67 129 72 q 289 63 247 63 q 378 70 344 63 q 438 99 413 78 q 467 156 460 117 q 474 258 474 194 q 468 376 474 343 q 440 422 463 408 q 361 444 418 435 l 190 471 q 104 508 132 479 q 69 583 76 538 q 61 707 61 628 q 120 907 61 847 q 314 967 179 967 q 428 961 371 967 q 519 947 486 956 l 519 876 q 428 888 481 883 q 331 893 375 893 q 231 883 268 893 q 175 849 194 872 q 149 792 156 825 q 143 707 143 760 q 149 608 143 639 q 173 565 156 578 q 232 546 190 553 l 393 521 q 490 490 456 510 q 542 424 524 471 q 556 268 556 388 q 533 104 556 164 q 459 17 511 44 q 314 -11 407 -11 m 247 -300 q 303 -284 292 -300 q 315 -218 315 -268 l 315 -194 l 276 -194 l 276 -86 l 369 -86 l 369 -193 q 360 -285 369 -254 q 326 -328 351 -315 q 247 -340 300 -340 l 247 -300 z "},"Ṣ":{"ha":617,"x_min":61,"x_max":556,"o":"m 314 -11 q 192 -6 257 -11 q 81 7 128 -1 l 81 79 q 188 67 129 72 q 289 63 247 63 q 378 70 344 63 q 438 99 413 78 q 467 156 460 117 q 474 258 474 194 q 468 376 474 343 q 440 422 463 408 q 361 444 418 435 l 190 471 q 104 508 132 479 q 69 583 76 538 q 61 707 61 628 q 120 907 61 847 q 314 967 179 967 q 428 961 371 967 q 519 947 486 956 l 519 876 q 428 888 481 883 q 331 893 375 893 q 231 883 268 893 q 175 849 194 872 q 149 792 156 825 q 143 707 143 760 q 149 608 143 639 q 173 565 156 578 q 232 546 190 553 l 393 521 q 490 490 456 510 q 542 424 524 471 q 556 268 556 388 q 533 104 556 164 q 459 17 511 44 q 314 -11 407 -11 m 263 -197 l 263 -86 l 354 -86 l 354 -197 l 263 -197 z "},"ẞ":{"ha":765,"x_min":96,"x_max":693,"o":"m 482 515 q 642 453 592 515 q 693 254 693 390 q 672 106 693 164 q 596 19 650 49 q 446 -11 542 -11 q 361 -5 408 -11 q 276 10 314 1 l 276 79 q 440 63 372 63 q 539 77 503 63 q 593 133 575 92 q 611 253 611 175 q 581 403 611 358 q 481 447 551 447 l 358 447 l 358 508 l 561 865 q 365 893 472 893 q 239 868 276 893 q 189 770 201 843 q 176 522 176 697 l 176 0 l 96 0 l 96 522 q 115 803 96 711 q 187 931 133 894 q 353 967 240 967 q 514 952 438 967 q 644 915 590 938 l 644 854 l 451 515 l 482 515 z "},"Ə":{"ha":714,"x_min":79,"x_max":635,"o":"m 343 967 q 533 931 474 967 q 613 797 592 896 q 635 478 635 697 q 618 157 635 253 q 545 25 601 61 q 357 -11 489 -11 q 169 25 225 -11 q 96 157 113 61 q 79 478 79 253 l 79 519 l 553 519 q 535 770 551 696 q 474 869 519 844 q 318 893 428 893 q 235 888 281 893 q 157 876 189 883 l 157 947 q 243 961 192 956 q 343 967 294 967 m 357 61 q 488 82 451 61 q 538 179 525 103 q 553 447 551 256 l 161 447 q 176 179 163 256 q 227 82 190 103 q 357 61 264 61 z "},"T":{"ha":574,"x_min":26,"x_max":547,"o":"m 246 0 l 246 881 l 26 881 l 26 956 l 547 956 l 547 881 l 328 881 l 328 0 l 246 0 z "},"Ŧ":{"ha":574,"x_min":26,"x_max":547,"o":"m 547 881 l 328 881 l 328 514 l 508 514 l 508 446 l 328 446 l 328 0 l 246 0 l 246 446 l 65 446 l 65 514 l 246 514 l 246 881 l 26 881 l 26 956 l 547 956 l 547 881 z "},"Ť":{"ha":574,"x_min":26,"x_max":547,"o":"m 246 0 l 246 881 l 26 881 l 26 956 l 547 956 l 547 881 l 328 881 l 328 0 l 246 0 m 240 1042 l 132 1225 l 132 1233 l 189 1233 l 286 1092 l 383 1233 l 439 1233 l 439 1225 l 331 1042 l 240 1042 z "},"Ţ":{"ha":574,"x_min":26,"x_max":547,"o":"m 26 956 l 547 956 l 547 881 l 328 881 l 328 0 l 314 0 l 256 -264 l 176 -264 l 176 -257 l 257 0 l 246 0 l 246 881 l 26 881 l 26 956 z "},"Ț":{"ha":574,"x_min":26,"x_max":547,"o":"m 246 0 l 246 881 l 26 881 l 26 956 l 547 956 l 547 881 l 328 881 l 328 0 l 246 0 m 225 -300 q 281 -284 269 -300 q 293 -218 293 -268 l 293 -194 l 254 -194 l 254 -86 l 347 -86 l 347 -193 q 338 -285 347 -254 q 303 -328 329 -315 q 225 -340 278 -340 l 225 -300 z "},"Ṭ":{"ha":574,"x_min":26,"x_max":547,"o":"m 246 0 l 246 881 l 26 881 l 26 956 l 547 956 l 547 881 l 328 881 l 328 0 l 246 0 m 240 -197 l 240 -86 l 332 -86 l 332 -197 l 240 -197 z "},"U":{"ha":718,"x_min":96,"x_max":622,"o":"m 622 956 l 622 413 q 606 144 622 228 q 535 24 589 60 q 360 -11 481 -11 q 183 24 238 -11 q 113 144 129 60 q 96 413 96 228 l 96 956 l 176 956 l 176 367 q 187 170 176 229 q 235 87 197 111 q 360 63 272 63 q 483 87 446 63 q 530 170 519 111 q 540 367 540 229 l 540 956 l 622 956 z "},"Ú":{"ha":718,"x_min":96,"x_max":622,"o":"m 622 956 l 622 413 q 606 144 622 228 q 535 24 589 60 q 360 -11 481 -11 q 183 24 238 -11 q 113 144 129 60 q 96 413 96 228 l 96 956 l 176 956 l 176 367 q 187 170 176 229 q 235 87 197 111 q 360 63 272 63 q 483 87 446 63 q 530 170 519 111 q 540 367 540 229 l 540 956 l 622 956 m 326 1042 l 326 1049 l 404 1236 l 489 1236 l 489 1229 l 383 1042 l 326 1042 z "},"Ŭ":{"ha":718,"x_min":96,"x_max":622,"o":"m 622 956 l 622 413 q 606 144 622 228 q 535 24 589 60 q 360 -11 481 -11 q 183 24 238 -11 q 113 144 129 60 q 96 413 96 228 l 96 956 l 176 956 l 176 367 q 187 170 176 229 q 235 87 197 111 q 360 63 272 63 q 483 87 446 63 q 530 170 519 111 q 540 367 540 229 l 540 956 l 622 956 m 510 1233 q 501 1124 510 1164 q 459 1061 492 1085 q 357 1038 426 1038 q 256 1061 288 1038 q 215 1124 224 1085 q 207 1233 207 1163 l 267 1233 q 272 1149 267 1176 q 295 1106 276 1121 q 357 1090 314 1090 q 421 1106 401 1090 q 445 1149 440 1121 q 450 1233 450 1176 l 510 1233 z "},"Ǔ":{"ha":718,"x_min":96,"x_max":622,"o":"m 622 956 l 622 413 q 606 144 622 228 q 535 24 589 60 q 360 -11 481 -11 q 183 24 238 -11 q 113 144 129 60 q 96 413 96 228 l 96 956 l 176 956 l 176 367 q 187 170 176 229 q 235 87 197 111 q 360 63 272 63 q 483 87 446 63 q 530 170 519 111 q 540 367 540 229 l 540 956 l 622 956 m 314 1042 l 206 1225 l 206 1233 l 263 1233 l 360 1092 l 457 1233 l 513 1233 l 513 1225 l 404 1042 l 314 1042 z "},"Û":{"ha":718,"x_min":96,"x_max":622,"o":"m 622 956 l 622 413 q 606 144 622 228 q 535 24 589 60 q 360 -11 481 -11 q 183 24 238 -11 q 113 144 129 60 q 96 413 96 228 l 96 956 l 176 956 l 176 367 q 187 170 176 229 q 235 87 197 111 q 360 63 272 63 q 483 87 446 63 q 530 170 519 111 q 540 367 540 229 l 540 956 l 622 956 m 206 1042 l 206 1049 l 314 1233 l 404 1233 l 513 1049 l 513 1042 l 457 1042 l 360 1182 l 263 1042 l 206 1042 z "},"Ȕ":{"ha":718,"x_min":96,"x_max":622,"o":"m 622 956 l 622 413 q 606 144 622 228 q 535 24 589 60 q 360 -11 481 -11 q 183 24 238 -11 q 113 144 129 60 q 96 413 96 228 l 96 956 l 176 956 l 176 367 q 187 170 176 229 q 235 87 197 111 q 360 63 272 63 q 483 87 446 63 q 530 170 519 111 q 540 367 540 229 l 540 956 l 622 956 m 300 1047 l 249 1047 l 150 1213 l 150 1219 l 228 1219 l 300 1054 l 300 1047 m 483 1047 l 432 1047 l 332 1213 l 332 1219 l 411 1219 l 483 1054 l 483 1047 z "},"Ü":{"ha":718,"x_min":96,"x_max":622,"o":"m 622 956 l 622 413 q 606 144 622 228 q 535 24 589 60 q 360 -11 481 -11 q 183 24 238 -11 q 113 144 129 60 q 96 413 96 228 l 96 956 l 176 956 l 176 367 q 187 170 176 229 q 235 87 197 111 q 360 63 272 63 q 483 87 446 63 q 530 170 519 111 q 540 367 540 229 l 540 956 l 622 956 m 197 1074 l 197 1171 l 276 1171 l 276 1074 l 197 1074 m 442 1074 l 442 1171 l 521 1171 l 521 1074 l 442 1074 z "},"Ǘ":{"ha":718,"x_min":96,"x_max":622,"o":"m 622 956 l 622 413 q 606 144 622 228 q 535 24 589 60 q 360 -11 481 -11 q 183 24 238 -11 q 113 144 129 60 q 96 413 96 228 l 96 956 l 176 956 l 176 367 q 187 170 176 229 q 235 87 197 111 q 360 63 272 63 q 483 87 446 63 q 530 170 519 111 q 540 367 540 229 l 540 956 l 622 956 m 197 1118 l 197 1215 l 276 1215 l 276 1118 l 197 1118 m 442 1118 l 442 1215 l 521 1215 l 521 1118 l 442 1118 m 326 1215 l 326 1222 l 404 1410 l 489 1410 l 489 1403 l 383 1215 l 326 1215 z "},"Ǚ":{"ha":718,"x_min":96,"x_max":622,"o":"m 622 956 l 622 413 q 606 144 622 228 q 535 24 589 60 q 360 -11 481 -11 q 183 24 238 -11 q 113 144 129 60 q 96 413 96 228 l 96 956 l 176 956 l 176 367 q 187 170 176 229 q 235 87 197 111 q 360 63 272 63 q 483 87 446 63 q 530 170 519 111 q 540 367 540 229 l 540 956 l 622 956 m 197 1118 l 197 1215 l 276 1215 l 276 1118 l 197 1118 m 442 1118 l 442 1215 l 521 1215 l 521 1118 l 442 1118 m 317 1218 l 208 1401 l 208 1410 l 265 1410 l 363 1268 l 460 1410 l 515 1410 l 515 1401 l 407 1218 l 317 1218 z "},"Ǜ":{"ha":718,"x_min":96,"x_max":622,"o":"m 622 956 l 622 413 q 606 144 622 228 q 535 24 589 60 q 360 -11 481 -11 q 183 24 238 -11 q 113 144 129 60 q 96 413 96 228 l 96 956 l 176 956 l 176 367 q 187 170 176 229 q 235 87 197 111 q 360 63 272 63 q 483 87 446 63 q 530 170 519 111 q 540 367 540 229 l 540 956 l 622 956 m 197 1118 l 197 1215 l 276 1215 l 276 1118 l 197 1118 m 442 1118 l 442 1215 l 521 1215 l 521 1118 l 442 1118 m 340 1215 l 235 1403 l 235 1410 l 321 1410 l 397 1222 l 397 1215 l 340 1215 z "},"Ǖ":{"ha":718,"x_min":96,"x_max":622,"o":"m 622 956 l 622 413 q 606 144 622 228 q 535 24 589 60 q 360 -11 481 -11 q 183 24 238 -11 q 113 144 129 60 q 96 413 96 228 l 96 956 l 176 956 l 176 367 q 187 170 176 229 q 235 87 197 111 q 360 63 272 63 q 483 87 446 63 q 530 170 519 111 q 540 367 540 229 l 540 956 l 622 956 m 197 1118 l 197 1215 l 276 1215 l 276 1118 l 197 1118 m 442 1118 l 442 1215 l 521 1215 l 521 1118 l 442 1118 m 229 1335 l 229 1410 l 494 1410 l 494 1335 l 229 1335 z "},"Ụ":{"ha":718,"x_min":96,"x_max":622,"o":"m 622 956 l 622 413 q 606 144 622 228 q 535 24 589 60 q 360 -11 481 -11 q 183 24 238 -11 q 113 144 129 60 q 96 413 96 228 l 96 956 l 176 956 l 176 367 q 187 170 176 229 q 235 87 197 111 q 360 63 272 63 q 483 87 446 63 q 530 170 519 111 q 540 367 540 229 l 540 956 l 622 956 m 314 -197 l 314 -86 l 406 -86 l 406 -197 l 314 -197 z "},"Ù":{"ha":718,"x_min":96,"x_max":622,"o":"m 622 956 l 622 413 q 606 144 622 228 q 535 24 589 60 q 360 -11 481 -11 q 183 24 238 -11 q 113 144 129 60 q 96 413 96 228 l 96 956 l 176 956 l 176 367 q 187 170 176 229 q 235 87 197 111 q 360 63 272 63 q 483 87 446 63 q 530 170 519 111 q 540 367 540 229 l 540 956 l 622 956 m 349 1042 l 243 1229 l 243 1236 l 329 1236 l 406 1049 l 406 1042 l 349 1042 z "},"Ủ":{"ha":718,"x_min":96,"x_max":622,"o":"m 622 956 l 622 413 q 606 144 622 228 q 535 24 589 60 q 360 -11 481 -11 q 183 24 238 -11 q 113 144 129 60 q 96 413 96 228 l 96 956 l 176 956 l 176 367 q 187 170 176 229 q 235 87 197 111 q 360 63 272 63 q 483 87 446 63 q 530 170 519 111 q 540 367 540 229 l 540 956 l 622 956 m 301 1036 q 313 1081 301 1068 q 354 1101 324 1093 l 375 1108 q 422 1130 410 1119 q 433 1165 433 1140 q 427 1197 433 1188 q 401 1211 421 1207 q 342 1215 382 1215 q 225 1208 299 1215 l 225 1260 q 350 1269 296 1269 q 463 1249 432 1269 q 493 1174 493 1228 q 482 1112 493 1133 q 431 1076 471 1090 l 410 1069 q 372 1056 382 1061 q 358 1044 361 1050 q 356 1022 356 1038 l 301 1022 l 301 1036 z "},"Ư":{"ha":718,"x_min":96,"x_max":747,"o":"m 747 1090 l 747 1044 q 738 961 747 989 q 701 922 728 933 q 622 908 675 910 l 622 413 q 606 144 622 228 q 535 24 589 60 q 360 -11 481 -11 q 183 24 238 -11 q 113 144 129 60 q 96 413 96 228 l 96 956 l 176 956 l 176 367 q 187 170 176 229 q 235 87 197 111 q 360 63 272 63 q 483 87 446 63 q 530 170 519 111 q 540 367 540 229 l 540 956 l 615 956 q 674 972 661 956 q 688 1032 688 988 l 688 1090 l 747 1090 z "},"Ứ":{"ha":718,"x_min":96,"x_max":747,"o":"m 747 1090 l 747 1044 q 738 961 747 989 q 701 922 728 933 q 622 908 675 910 l 622 413 q 606 144 622 228 q 535 24 589 60 q 360 -11 481 -11 q 183 24 238 -11 q 113 144 129 60 q 96 413 96 228 l 96 956 l 176 956 l 176 367 q 187 170 176 229 q 235 87 197 111 q 360 63 272 63 q 483 87 446 63 q 530 170 519 111 q 540 367 540 229 l 540 956 l 615 956 q 674 972 661 956 q 688 1032 688 988 l 688 1090 l 747 1090 m 324 1039 l 324 1046 l 401 1233 l 486 1233 l 486 1226 l 381 1039 l 324 1039 z "},"Ự":{"ha":718,"x_min":96,"x_max":747,"o":"m 747 1090 l 747 1044 q 738 961 747 989 q 701 922 728 933 q 622 908 675 910 l 622 413 q 606 144 622 228 q 535 24 589 60 q 360 -11 481 -11 q 183 24 238 -11 q 113 144 129 60 q 96 413 96 228 l 96 956 l 176 956 l 176 367 q 187 170 176 229 q 235 87 197 111 q 360 63 272 63 q 483 87 446 63 q 530 170 519 111 q 540 367 540 229 l 540 956 l 615 956 q 674 972 661 956 q 688 1032 688 988 l 688 1090 l 747 1090 m 314 -197 l 314 -86 l 406 -86 l 406 -197 l 314 -197 z "},"Ừ":{"ha":718,"x_min":96,"x_max":747,"o":"m 747 1090 l 747 1044 q 738 961 747 989 q 701 922 728 933 q 622 908 675 910 l 622 413 q 606 144 622 228 q 535 24 589 60 q 360 -11 481 -11 q 183 24 238 -11 q 113 144 129 60 q 96 413 96 228 l 96 956 l 176 956 l 176 367 q 187 170 176 229 q 235 87 197 111 q 360 63 272 63 q 483 87 446 63 q 530 170 519 111 q 540 367 540 229 l 540 956 l 615 956 q 674 972 661 956 q 688 1032 688 988 l 688 1090 l 747 1090 m 338 1039 l 232 1226 l 232 1233 l 318 1233 l 394 1046 l 394 1039 l 338 1039 z "},"Ử":{"ha":718,"x_min":96,"x_max":747,"o":"m 747 1090 l 747 1044 q 738 961 747 989 q 701 922 728 933 q 622 908 675 910 l 622 413 q 606 144 622 228 q 535 24 589 60 q 360 -11 481 -11 q 183 24 238 -11 q 113 144 129 60 q 96 413 96 228 l 96 956 l 176 956 l 176 367 q 187 170 176 229 q 235 87 197 111 q 360 63 272 63 q 483 87 446 63 q 530 170 519 111 q 540 367 540 229 l 540 956 l 615 956 q 674 972 661 956 q 688 1032 688 988 l 688 1090 l 747 1090 m 301 1036 q 313 1081 301 1068 q 354 1101 324 1093 l 375 1108 q 422 1130 410 1119 q 433 1165 433 1140 q 427 1197 433 1188 q 401 1211 421 1207 q 342 1215 382 1215 q 225 1208 299 1215 l 225 1260 q 350 1269 296 1269 q 463 1249 432 1269 q 493 1174 493 1228 q 482 1112 493 1133 q 431 1076 471 1090 l 410 1069 q 372 1056 382 1061 q 358 1044 361 1050 q 356 1022 356 1038 l 301 1022 l 301 1036 z "},"Ữ":{"ha":718,"x_min":96,"x_max":747,"o":"m 747 1090 l 747 1044 q 738 961 747 989 q 701 922 728 933 q 622 908 675 910 l 622 413 q 606 144 622 228 q 535 24 589 60 q 360 -11 481 -11 q 183 24 238 -11 q 113 144 129 60 q 96 413 96 228 l 96 956 l 176 956 l 176 367 q 187 170 176 229 q 235 87 197 111 q 360 63 272 63 q 483 87 446 63 q 530 170 519 111 q 540 367 540 229 l 540 956 l 615 956 q 674 972 661 956 q 688 1032 688 988 l 688 1090 l 747 1090 m 549 1233 q 534 1121 549 1151 q 469 1090 519 1090 q 417 1099 443 1090 q 350 1124 392 1107 q 295 1147 317 1139 q 253 1154 274 1154 q 226 1138 232 1154 q 219 1075 219 1121 l 168 1075 q 183 1187 168 1156 q 249 1218 199 1218 q 303 1209 276 1218 q 371 1182 331 1200 q 426 1161 406 1168 q 465 1154 446 1154 q 492 1170 486 1154 q 497 1233 497 1186 l 549 1233 z "},"Ű":{"ha":718,"x_min":96,"x_max":622,"o":"m 622 956 l 622 413 q 606 144 622 228 q 535 24 589 60 q 360 -11 481 -11 q 183 24 238 -11 q 113 144 129 60 q 96 413 96 228 l 96 956 l 176 956 l 176 367 q 187 170 176 229 q 235 87 197 111 q 360 63 272 63 q 483 87 446 63 q 530 170 519 111 q 540 367 540 229 l 540 956 l 622 956 m 243 1047 l 243 1054 l 315 1219 l 394 1219 l 394 1213 l 294 1047 l 243 1047 m 426 1047 l 426 1054 l 499 1219 l 576 1219 l 576 1213 l 478 1047 l 426 1047 z "},"Ȗ":{"ha":718,"x_min":96,"x_max":622,"o":"m 622 956 l 622 413 q 606 144 622 228 q 535 24 589 60 q 360 -11 481 -11 q 183 24 238 -11 q 113 144 129 60 q 96 413 96 228 l 96 956 l 176 956 l 176 367 q 187 170 176 229 q 235 87 197 111 q 360 63 272 63 q 483 87 446 63 q 530 170 519 111 q 540 367 540 229 l 540 956 l 622 956 m 207 1046 q 216 1155 207 1115 q 258 1218 225 1194 q 360 1242 290 1242 q 461 1218 429 1242 q 501 1156 493 1194 q 510 1046 510 1117 l 450 1046 q 445 1131 450 1103 q 422 1174 440 1158 q 360 1189 403 1189 q 296 1174 315 1189 q 272 1131 276 1158 q 267 1046 267 1103 l 207 1046 z "},"Ū":{"ha":718,"x_min":96,"x_max":622,"o":"m 622 956 l 622 413 q 606 144 622 228 q 535 24 589 60 q 360 -11 481 -11 q 183 24 238 -11 q 113 144 129 60 q 96 413 96 228 l 96 956 l 176 956 l 176 367 q 187 170 176 229 q 235 87 197 111 q 360 63 272 63 q 483 87 446 63 q 530 170 519 111 q 540 367 540 229 l 540 956 l 622 956 m 226 1158 l 226 1233 l 492 1233 l 492 1158 l 226 1158 z "},"Ų":{"ha":718,"x_min":96,"x_max":622,"o":"m 622 956 l 622 413 q 616 215 622 288 q 591 95 610 142 q 535 24 572 49 q 458 -56 489 -7 q 426 -154 426 -104 q 490 -214 426 -214 q 514 -212 503 -214 l 514 -269 q 472 -272 496 -272 q 384 -244 411 -272 q 357 -168 357 -215 q 378 -87 357 -131 q 435 -6 399 -44 q 360 -11 406 -11 q 183 24 238 -11 q 113 144 129 60 q 96 413 96 228 l 96 956 l 176 956 l 176 367 q 187 170 176 229 q 235 87 197 111 q 360 63 272 63 q 483 87 446 63 q 530 170 519 111 q 540 367 540 229 l 540 956 l 622 956 z "},"Ů":{"ha":718,"x_min":96,"x_max":622,"o":"m 622 956 l 622 413 q 606 144 622 228 q 535 24 589 60 q 360 -11 481 -11 q 183 24 238 -11 q 113 144 129 60 q 96 413 96 228 l 96 956 l 176 956 l 176 367 q 187 170 176 229 q 235 87 197 111 q 360 63 272 63 q 483 87 446 63 q 530 170 519 111 q 540 367 540 229 l 540 956 l 622 956 m 358 1013 q 267 1025 296 1013 q 231 1063 239 1038 q 222 1142 222 1089 q 231 1221 222 1194 q 267 1260 239 1247 q 358 1272 296 1272 q 449 1260 421 1272 q 486 1221 478 1247 q 494 1142 494 1194 q 486 1063 494 1089 q 449 1025 478 1038 q 358 1013 421 1013 m 358 1061 q 410 1068 394 1061 q 431 1091 426 1075 q 436 1142 436 1107 q 431 1192 436 1176 q 410 1215 426 1208 q 358 1222 394 1222 q 306 1215 322 1222 q 286 1193 290 1208 q 282 1142 282 1178 q 286 1090 282 1106 q 306 1068 290 1075 q 358 1061 322 1061 z "},"Ũ":{"ha":718,"x_min":96,"x_max":622,"o":"m 622 956 l 622 413 q 606 144 622 228 q 535 24 589 60 q 360 -11 481 -11 q 183 24 238 -11 q 113 144 129 60 q 96 413 96 228 l 96 956 l 176 956 l 176 367 q 187 170 176 229 q 235 87 197 111 q 360 63 272 63 q 483 87 446 63 q 530 170 519 111 q 540 367 540 229 l 540 956 l 622 956 m 549 1233 q 534 1121 549 1151 q 469 1090 519 1090 q 417 1099 443 1090 q 350 1124 392 1107 q 295 1147 317 1139 q 253 1154 274 1154 q 226 1138 232 1154 q 219 1075 219 1121 l 168 1075 q 183 1187 168 1156 q 249 1218 199 1218 q 303 1209 276 1218 q 371 1182 331 1200 q 426 1161 406 1168 q 465 1154 446 1154 q 492 1170 486 1154 q 497 1233 497 1186 l 549 1233 z "},"V":{"ha":639,"x_min":18,"x_max":621,"o":"m 268 0 l 18 956 l 103 956 l 318 118 l 325 118 l 540 956 l 621 956 l 371 0 l 268 0 z "},"W":{"ha":956,"x_min":24,"x_max":933,"o":"m 650 0 l 481 808 l 475 808 l 307 0 l 210 0 l 24 956 l 107 956 l 258 132 l 265 132 l 433 956 l 525 956 l 694 132 l 703 132 l 851 956 l 933 956 l 749 0 l 650 0 z "},"Ẃ":{"ha":956,"x_min":24,"x_max":933,"o":"m 650 0 l 481 808 l 475 808 l 307 0 l 210 0 l 24 956 l 107 956 l 258 132 l 265 132 l 433 956 l 525 956 l 694 132 l 703 132 l 851 956 l 933 956 l 749 0 l 650 0 m 442 1039 l 442 1046 l 519 1233 l 604 1233 l 604 1226 l 499 1039 l 442 1039 z "},"Ŵ":{"ha":956,"x_min":24,"x_max":933,"o":"m 650 0 l 481 808 l 475 808 l 307 0 l 210 0 l 24 956 l 107 956 l 258 132 l 265 132 l 433 956 l 525 956 l 694 132 l 703 132 l 851 956 l 933 956 l 749 0 l 650 0 m 324 1042 l 324 1049 l 432 1233 l 522 1233 l 631 1049 l 631 1042 l 575 1042 l 478 1182 l 381 1042 l 324 1042 z "},"Ẅ":{"ha":956,"x_min":24,"x_max":933,"o":"m 650 0 l 481 808 l 475 808 l 307 0 l 210 0 l 24 956 l 107 956 l 258 132 l 265 132 l 433 956 l 525 956 l 694 132 l 703 132 l 851 956 l 933 956 l 749 0 l 650 0 m 315 1118 l 315 1215 l 394 1215 l 394 1118 l 315 1118 m 560 1118 l 560 1215 l 639 1215 l 639 1118 l 560 1118 z "},"Ẁ":{"ha":956,"x_min":24,"x_max":933,"o":"m 650 0 l 481 808 l 475 808 l 307 0 l 210 0 l 24 956 l 107 956 l 258 132 l 265 132 l 433 956 l 525 956 l 694 132 l 703 132 l 851 956 l 933 956 l 749 0 l 650 0 m 456 1039 l 350 1226 l 350 1233 l 436 1233 l 513 1046 l 513 1039 l 456 1039 z "},"X":{"ha":669,"x_min":26,"x_max":643,"o":"m 551 0 l 338 407 l 329 407 l 115 0 l 26 0 l 283 481 l 31 956 l 122 956 l 333 554 l 340 554 l 550 956 l 639 956 l 388 482 l 643 0 l 551 0 z "},"Y":{"ha":594,"x_min":6,"x_max":589,"o":"m 256 0 l 256 376 l 6 956 l 92 956 l 294 478 l 303 478 l 506 956 l 589 956 l 338 376 l 338 0 l 256 0 z "},"Ý":{"ha":594,"x_min":6,"x_max":589,"o":"m 256 0 l 256 376 l 6 956 l 92 956 l 294 478 l 303 478 l 506 956 l 589 956 l 338 376 l 338 0 l 256 0 m 269 1042 l 269 1049 l 347 1236 l 432 1236 l 432 1229 l 326 1042 l 269 1042 z "},"Ŷ":{"ha":594,"x_min":6,"x_max":589,"o":"m 256 0 l 256 376 l 6 956 l 92 956 l 294 478 l 303 478 l 506 956 l 589 956 l 338 376 l 338 0 l 256 0 m 143 1042 l 143 1049 l 251 1233 l 342 1233 l 450 1049 l 450 1042 l 394 1042 l 297 1182 l 200 1042 l 143 1042 z "},"Ÿ":{"ha":594,"x_min":6,"x_max":589,"o":"m 256 0 l 256 376 l 6 956 l 92 956 l 294 478 l 303 478 l 506 956 l 589 956 l 338 376 l 338 0 l 256 0 m 138 1074 l 138 1171 l 217 1171 l 217 1074 l 138 1074 m 382 1074 l 382 1171 l 461 1171 l 461 1074 l 382 1074 z "},"Ỵ":{"ha":594,"x_min":6,"x_max":589,"o":"m 256 0 l 256 376 l 6 956 l 92 956 l 294 478 l 303 478 l 506 956 l 589 956 l 338 376 l 338 0 l 256 0 m 251 -197 l 251 -86 l 343 -86 l 343 -197 l 251 -197 z "},"Ỳ":{"ha":594,"x_min":6,"x_max":589,"o":"m 256 0 l 256 376 l 6 956 l 92 956 l 294 478 l 303 478 l 506 956 l 589 956 l 338 376 l 338 0 l 256 0 m 275 1039 l 169 1226 l 169 1233 l 256 1233 l 332 1046 l 332 1039 l 275 1039 z "},"Ỷ":{"ha":594,"x_min":6,"x_max":589,"o":"m 256 0 l 256 376 l 6 956 l 92 956 l 294 478 l 303 478 l 506 956 l 589 956 l 338 376 l 338 0 l 256 0 m 239 1036 q 250 1081 239 1068 q 292 1101 261 1093 l 313 1108 q 359 1130 347 1119 q 371 1165 371 1140 q 365 1197 371 1188 q 339 1211 358 1207 q 279 1215 319 1215 q 163 1208 236 1215 l 163 1260 q 288 1269 233 1269 q 400 1249 369 1269 q 431 1174 431 1228 q 419 1112 431 1133 q 368 1076 408 1090 l 347 1069 q 309 1056 319 1061 q 296 1044 299 1050 q 293 1022 293 1038 l 239 1022 l 239 1036 z "},"Ȳ":{"ha":594,"x_min":6,"x_max":589,"o":"m 256 0 l 256 376 l 6 956 l 92 956 l 294 478 l 303 478 l 506 956 l 589 956 l 338 376 l 338 0 l 256 0 m 164 1158 l 164 1233 l 429 1233 l 429 1158 l 164 1158 z "},"Ỹ":{"ha":594,"x_min":6,"x_max":589,"o":"m 256 0 l 256 376 l 6 956 l 92 956 l 294 478 l 303 478 l 506 956 l 589 956 l 338 376 l 338 0 l 256 0 m 486 1233 q 472 1121 486 1151 q 407 1090 457 1090 q 355 1099 381 1090 q 288 1124 329 1107 q 233 1147 254 1139 q 190 1154 211 1154 q 163 1138 169 1154 q 157 1075 157 1121 l 106 1075 q 121 1187 106 1156 q 186 1218 136 1218 q 241 1209 214 1218 q 308 1182 268 1200 q 363 1161 343 1168 q 403 1154 383 1154 q 429 1170 424 1154 q 435 1233 435 1186 l 486 1233 z "},"Z":{"ha":586,"x_min":43,"x_max":544,"o":"m 43 0 l 43 69 l 443 882 l 54 882 l 54 956 l 538 956 l 538 888 l 139 72 l 544 72 l 544 0 l 43 0 z "},"Ź":{"ha":586,"x_min":43,"x_max":544,"o":"m 43 0 l 43 69 l 443 882 l 54 882 l 54 956 l 538 956 l 538 888 l 139 72 l 544 72 l 544 0 l 43 0 m 257 1039 l 257 1046 l 335 1233 l 419 1233 l 419 1226 l 314 1039 l 257 1039 z "},"Ž":{"ha":588,"x_min":43,"x_max":544,"o":"m 43 0 l 43 69 l 443 882 l 54 882 l 54 956 l 538 956 l 538 888 l 139 72 l 544 72 l 544 0 l 43 0 m 257 1042 l 149 1225 l 149 1233 l 206 1233 l 303 1092 l 400 1233 l 456 1233 l 456 1225 l 347 1042 l 257 1042 z "},"Ż":{"ha":586,"x_min":43,"x_max":544,"o":"m 43 0 l 43 69 l 443 882 l 54 882 l 54 956 l 538 956 l 538 888 l 139 72 l 544 72 l 544 0 l 43 0 m 253 1118 l 253 1215 l 332 1215 l 332 1118 l 253 1118 z "},"Ẓ":{"ha":586,"x_min":43,"x_max":544,"o":"m 43 0 l 43 69 l 443 882 l 54 882 l 54 956 l 538 956 l 538 888 l 139 72 l 544 72 l 544 0 l 43 0 m 247 -197 l 247 -86 l 339 -86 l 339 -197 l 247 -197 z "},"a":{"ha":593,"x_min":51,"x_max":503,"o":"m 240 -11 q 132 6 172 -11 q 72 68 92 24 q 51 193 51 113 q 67 317 51 274 q 121 381 83 361 q 228 400 158 400 q 425 393 269 400 l 425 449 q 413 584 425 543 q 367 638 400 625 q 257 651 333 651 q 171 647 222 651 q 88 635 119 642 l 88 701 q 279 719 178 719 q 420 697 374 719 q 485 618 467 674 q 503 453 503 563 l 503 0 l 436 0 l 431 101 l 425 101 q 356 11 404 33 q 240 -11 307 -11 m 260 57 q 351 71 315 57 q 403 128 386 85 q 420 199 415 163 q 425 289 425 236 l 425 338 l 246 338 q 173 327 197 338 q 139 288 149 317 q 129 197 129 258 q 140 109 129 139 q 177 68 150 79 q 260 57 204 57 z "},"á":{"ha":593,"x_min":51,"x_max":503,"o":"m 240 -11 q 132 6 172 -11 q 72 68 92 24 q 51 193 51 113 q 67 317 51 274 q 121 381 83 361 q 228 400 158 400 q 425 393 269 400 l 425 449 q 413 584 425 543 q 367 638 400 625 q 257 651 333 651 q 171 647 222 651 q 88 635 119 642 l 88 701 q 279 719 178 719 q 420 697 374 719 q 485 618 467 674 q 503 453 503 563 l 503 0 l 436 0 l 431 101 l 425 101 q 356 11 404 33 q 240 -11 307 -11 m 260 57 q 351 71 315 57 q 403 128 386 85 q 420 199 415 163 q 425 289 425 236 l 425 338 l 246 338 q 173 327 197 338 q 139 288 149 317 q 129 197 129 258 q 140 109 129 139 q 177 68 150 79 q 260 57 204 57 m 256 838 l 256 844 l 333 1032 l 418 1032 l 418 1025 l 313 838 l 256 838 z "},"ă":{"ha":593,"x_min":51,"x_max":503,"o":"m 240 -11 q 132 6 172 -11 q 72 68 92 24 q 51 193 51 113 q 67 317 51 274 q 121 381 83 361 q 228 400 158 400 q 425 393 269 400 l 425 449 q 413 584 425 543 q 367 638 400 625 q 257 651 333 651 q 171 647 222 651 q 88 635 119 642 l 88 701 q 279 719 178 719 q 420 697 374 719 q 485 618 467 674 q 503 453 503 563 l 503 0 l 436 0 l 431 101 l 425 101 q 356 11 404 33 q 240 -11 307 -11 m 260 57 q 351 71 315 57 q 403 128 386 85 q 420 199 415 163 q 425 289 425 236 l 425 338 l 246 338 q 173 327 197 338 q 139 288 149 317 q 129 197 129 258 q 140 109 129 139 q 177 68 150 79 q 260 57 204 57 m 447 1032 q 438 923 447 963 q 397 860 429 883 q 294 836 364 836 q 193 860 225 836 q 153 922 161 883 q 144 1032 144 961 l 204 1032 q 209 947 204 975 q 233 904 214 919 q 294 889 251 889 q 358 904 339 889 q 383 947 378 919 q 388 1032 388 975 l 447 1032 z "},"ắ":{"ha":593,"x_min":51,"x_max":503,"o":"m 240 -11 q 132 6 172 -11 q 72 68 92 24 q 51 193 51 113 q 67 317 51 274 q 121 381 83 361 q 228 400 158 400 q 425 393 269 400 l 425 449 q 413 584 425 543 q 367 638 400 625 q 257 651 333 651 q 171 647 222 651 q 88 635 119 642 l 88 701 q 279 719 178 719 q 420 697 374 719 q 485 618 467 674 q 503 453 503 563 l 503 0 l 436 0 l 431 101 l 425 101 q 356 11 404 33 q 240 -11 307 -11 m 260 57 q 351 71 315 57 q 403 128 386 85 q 420 199 415 163 q 425 289 425 236 l 425 338 l 246 338 q 173 327 197 338 q 139 288 149 317 q 129 197 129 258 q 140 109 129 139 q 177 68 150 79 q 260 57 204 57 m 446 1032 q 437 923 446 963 q 395 860 428 883 q 293 836 363 836 q 192 860 224 836 q 151 922 160 883 q 143 1032 143 961 l 203 1032 q 208 947 203 975 q 231 904 213 919 q 293 889 250 889 q 357 904 338 889 q 381 947 376 919 q 386 1032 386 975 l 446 1032 m 264 1078 l 264 1085 l 342 1272 l 426 1272 l 426 1265 l 321 1078 l 264 1078 z "},"ặ":{"ha":593,"x_min":51,"x_max":503,"o":"m 240 -11 q 132 6 172 -11 q 72 68 92 24 q 51 193 51 113 q 67 317 51 274 q 121 381 83 361 q 228 400 158 400 q 425 393 269 400 l 425 449 q 413 584 425 543 q 367 638 400 625 q 257 651 333 651 q 171 647 222 651 q 88 635 119 642 l 88 701 q 279 719 178 719 q 420 697 374 719 q 485 618 467 674 q 503 453 503 563 l 503 0 l 436 0 l 431 101 l 425 101 q 356 11 404 33 q 240 -11 307 -11 m 260 57 q 351 71 315 57 q 403 128 386 85 q 420 199 415 163 q 425 289 425 236 l 425 338 l 246 338 q 173 327 197 338 q 139 288 149 317 q 129 197 129 258 q 140 109 129 139 q 177 68 150 79 q 260 57 204 57 m 251 -197 l 251 -86 l 343 -86 l 343 -197 l 251 -197 m 447 1032 q 438 923 447 963 q 397 860 429 883 q 294 836 364 836 q 193 860 225 836 q 153 922 161 883 q 144 1032 144 961 l 204 1032 q 209 947 204 975 q 233 904 214 919 q 294 889 251 889 q 358 904 339 889 q 383 947 378 919 q 388 1032 388 975 l 447 1032 z "},"ằ":{"ha":593,"x_min":51,"x_max":503,"o":"m 240 -11 q 132 6 172 -11 q 72 68 92 24 q 51 193 51 113 q 67 317 51 274 q 121 381 83 361 q 228 400 158 400 q 425 393 269 400 l 425 449 q 413 584 425 543 q 367 638 400 625 q 257 651 333 651 q 171 647 222 651 q 88 635 119 642 l 88 701 q 279 719 178 719 q 420 697 374 719 q 485 618 467 674 q 503 453 503 563 l 503 0 l 436 0 l 431 101 l 425 101 q 356 11 404 33 q 240 -11 307 -11 m 260 57 q 351 71 315 57 q 403 128 386 85 q 420 199 415 163 q 425 289 425 236 l 425 338 l 246 338 q 173 327 197 338 q 139 288 149 317 q 129 197 129 258 q 140 109 129 139 q 177 68 150 79 q 260 57 204 57 m 450 1032 q 441 923 450 963 q 399 860 432 883 q 297 836 367 836 q 196 860 228 836 q 156 922 164 883 q 147 1032 147 961 l 207 1032 q 212 947 207 975 q 235 904 217 919 q 297 889 254 889 q 361 904 342 889 q 385 947 381 919 q 390 1032 390 975 l 450 1032 m 278 1078 l 172 1265 l 172 1272 l 258 1272 l 335 1085 l 335 1078 l 278 1078 z "},"ẳ":{"ha":593,"x_min":51,"x_max":503,"o":"m 240 -11 q 132 6 172 -11 q 72 68 92 24 q 51 193 51 113 q 67 317 51 274 q 121 381 83 361 q 228 400 158 400 q 425 393 269 400 l 425 449 q 413 584 425 543 q 367 638 400 625 q 257 651 333 651 q 171 647 222 651 q 88 635 119 642 l 88 701 q 279 719 178 719 q 420 697 374 719 q 485 618 467 674 q 503 453 503 563 l 503 0 l 436 0 l 431 101 l 425 101 q 356 11 404 33 q 240 -11 307 -11 m 260 57 q 351 71 315 57 q 403 128 386 85 q 420 199 415 163 q 425 289 425 236 l 425 338 l 246 338 q 173 327 197 338 q 139 288 149 317 q 129 197 129 258 q 140 109 129 139 q 177 68 150 79 q 260 57 204 57 m 447 1032 q 438 923 447 963 q 397 860 429 883 q 294 836 364 836 q 193 860 225 836 q 153 922 161 883 q 144 1032 144 961 l 204 1032 q 209 947 204 975 q 233 904 214 919 q 294 889 251 889 q 358 904 339 889 q 383 947 378 919 q 388 1032 388 975 l 447 1032 m 244 1046 q 256 1089 244 1076 q 297 1111 267 1101 l 318 1117 q 365 1138 353 1128 q 376 1175 376 1149 q 370 1206 376 1196 q 344 1220 364 1217 q 285 1224 325 1224 q 168 1218 257 1224 l 168 1268 q 293 1278 239 1278 q 406 1257 375 1278 q 436 1182 436 1236 q 425 1121 436 1142 q 374 1086 414 1100 l 353 1079 q 307 1060 315 1067 q 299 1032 299 1053 l 244 1032 l 244 1046 z "},"ẵ":{"ha":593,"x_min":51,"x_max":503,"o":"m 240 -11 q 132 6 172 -11 q 72 68 92 24 q 51 193 51 113 q 67 317 51 274 q 121 381 83 361 q 228 400 158 400 q 425 393 269 400 l 425 449 q 413 584 425 543 q 367 638 400 625 q 257 651 333 651 q 171 647 222 651 q 88 635 119 642 l 88 701 q 279 719 178 719 q 420 697 374 719 q 485 618 467 674 q 503 453 503 563 l 503 0 l 436 0 l 431 101 l 425 101 q 356 11 404 33 q 240 -11 307 -11 m 260 57 q 351 71 315 57 q 403 128 386 85 q 420 199 415 163 q 425 289 425 236 l 425 338 l 246 338 q 173 327 197 338 q 139 288 149 317 q 129 197 129 258 q 140 109 129 139 q 177 68 150 79 q 260 57 204 57 m 444 1032 q 435 923 444 963 q 394 860 426 883 q 292 836 361 836 q 190 860 222 836 q 150 922 158 883 q 142 1032 142 961 l 201 1032 q 206 947 201 975 q 230 904 211 919 q 292 889 249 889 q 356 904 336 889 q 380 947 375 919 q 385 1032 385 975 l 444 1032 m 486 1275 q 472 1163 486 1193 q 407 1132 457 1132 q 355 1140 381 1132 q 288 1165 329 1149 q 233 1188 254 1181 q 190 1196 211 1196 q 163 1179 169 1196 q 157 1117 157 1163 l 106 1117 q 121 1228 106 1197 q 186 1260 136 1260 q 241 1251 214 1260 q 308 1224 268 1242 q 363 1203 343 1210 q 403 1196 383 1196 q 429 1212 424 1196 q 435 1275 435 1228 l 486 1275 z "},"ǎ":{"ha":593,"x_min":51,"x_max":503,"o":"m 240 -11 q 132 6 172 -11 q 72 68 92 24 q 51 193 51 113 q 67 317 51 274 q 121 381 83 361 q 228 400 158 400 q 425 393 269 400 l 425 449 q 413 584 425 543 q 367 638 400 625 q 257 651 333 651 q 171 647 222 651 q 88 635 119 642 l 88 701 q 279 719 178 719 q 420 697 374 719 q 485 618 467 674 q 503 453 503 563 l 503 0 l 436 0 l 431 101 l 425 101 q 356 11 404 33 q 240 -11 307 -11 m 260 57 q 351 71 315 57 q 403 128 386 85 q 420 199 415 163 q 425 289 425 236 l 425 338 l 246 338 q 173 327 197 338 q 139 288 149 317 q 129 197 129 258 q 140 109 129 139 q 177 68 150 79 q 260 57 204 57 m 251 840 l 143 1024 l 143 1032 l 200 1032 l 297 890 l 394 1032 l 450 1032 l 450 1024 l 342 840 l 251 840 z "},"â":{"ha":593,"x_min":51,"x_max":503,"o":"m 240 -11 q 132 6 172 -11 q 72 68 92 24 q 51 193 51 113 q 67 317 51 274 q 121 381 83 361 q 228 400 158 400 q 425 393 269 400 l 425 449 q 413 584 425 543 q 367 638 400 625 q 257 651 333 651 q 171 647 222 651 q 88 635 119 642 l 88 701 q 279 719 178 719 q 420 697 374 719 q 485 618 467 674 q 503 453 503 563 l 503 0 l 436 0 l 431 101 l 425 101 q 356 11 404 33 q 240 -11 307 -11 m 260 57 q 351 71 315 57 q 403 128 386 85 q 420 199 415 163 q 425 289 425 236 l 425 338 l 246 338 q 173 327 197 338 q 139 288 149 317 q 129 197 129 258 q 140 109 129 139 q 177 68 150 79 q 260 57 204 57 m 143 840 l 143 847 l 251 1032 l 342 1032 l 450 847 l 450 840 l 394 840 l 297 981 l 200 840 l 143 840 z "},"ấ":{"ha":593,"x_min":51,"x_max":531,"o":"m 240 -11 q 132 6 172 -11 q 72 68 92 24 q 51 193 51 113 q 67 317 51 274 q 121 381 83 361 q 228 400 158 400 q 425 393 269 400 l 425 449 q 413 584 425 543 q 367 638 400 625 q 257 651 333 651 q 171 647 222 651 q 88 635 119 642 l 88 701 q 279 719 178 719 q 420 697 374 719 q 485 618 467 674 q 503 453 503 563 l 503 0 l 436 0 l 431 101 l 425 101 q 356 11 404 33 q 240 -11 307 -11 m 260 57 q 351 71 315 57 q 403 128 386 85 q 420 199 415 163 q 425 289 425 236 l 425 338 l 246 338 q 173 327 197 338 q 139 288 149 317 q 129 197 129 258 q 140 109 129 139 q 177 68 150 79 q 260 57 204 57 m 142 840 l 142 847 l 250 1032 l 340 1032 l 449 847 l 449 840 l 393 840 l 296 981 l 199 840 l 142 840 m 368 1042 l 368 1049 l 446 1236 l 531 1236 l 531 1229 l 425 1042 l 368 1042 z "},"ậ":{"ha":593,"x_min":51,"x_max":503,"o":"m 240 -11 q 132 6 172 -11 q 72 68 92 24 q 51 193 51 113 q 67 317 51 274 q 121 381 83 361 q 228 400 158 400 q 425 393 269 400 l 425 449 q 413 584 425 543 q 367 638 400 625 q 257 651 333 651 q 171 647 222 651 q 88 635 119 642 l 88 701 q 279 719 178 719 q 420 697 374 719 q 485 618 467 674 q 503 453 503 563 l 503 0 l 436 0 l 431 101 l 425 101 q 356 11 404 33 q 240 -11 307 -11 m 260 57 q 351 71 315 57 q 403 128 386 85 q 420 199 415 163 q 425 289 425 236 l 425 338 l 246 338 q 173 327 197 338 q 139 288 149 317 q 129 197 129 258 q 140 109 129 139 q 177 68 150 79 q 260 57 204 57 m 251 -197 l 251 -86 l 343 -86 l 343 -197 l 251 -197 m 143 840 l 143 847 l 251 1032 l 342 1032 l 450 847 l 450 840 l 394 840 l 297 981 l 200 840 l 143 840 z "},"ầ":{"ha":593,"x_min":51,"x_max":503,"o":"m 240 -11 q 132 6 172 -11 q 72 68 92 24 q 51 193 51 113 q 67 317 51 274 q 121 381 83 361 q 228 400 158 400 q 425 393 269 400 l 425 449 q 413 584 425 543 q 367 638 400 625 q 257 651 333 651 q 171 647 222 651 q 88 635 119 642 l 88 701 q 279 719 178 719 q 420 697 374 719 q 485 618 467 674 q 503 453 503 563 l 503 0 l 436 0 l 431 101 l 425 101 q 356 11 404 33 q 240 -11 307 -11 m 260 57 q 351 71 315 57 q 403 128 386 85 q 420 199 415 163 q 425 289 425 236 l 425 338 l 246 338 q 173 327 197 338 q 139 288 149 317 q 129 197 129 258 q 140 109 129 139 q 177 68 150 79 q 260 57 204 57 m 142 840 l 142 847 l 250 1032 l 340 1032 l 449 847 l 449 840 l 393 840 l 296 981 l 199 840 l 142 840 m 389 1042 l 283 1229 l 283 1236 l 369 1236 l 446 1049 l 446 1042 l 389 1042 z "},"ẩ":{"ha":593,"x_min":51,"x_max":540,"o":"m 240 -11 q 132 6 172 -11 q 72 68 92 24 q 51 193 51 113 q 67 317 51 274 q 121 381 83 361 q 228 400 158 400 q 425 393 269 400 l 425 449 q 413 584 425 543 q 367 638 400 625 q 257 651 333 651 q 171 647 222 651 q 88 635 119 642 l 88 701 q 279 719 178 719 q 420 697 374 719 q 485 618 467 674 q 503 453 503 563 l 503 0 l 436 0 l 431 101 l 425 101 q 356 11 404 33 q 240 -11 307 -11 m 260 57 q 351 71 315 57 q 403 128 386 85 q 420 199 415 163 q 425 289 425 236 l 425 338 l 246 338 q 173 327 197 338 q 139 288 149 317 q 129 197 129 258 q 140 109 129 139 q 177 68 150 79 q 260 57 204 57 m 143 840 l 143 847 l 251 1032 l 342 1032 l 450 847 l 450 840 l 394 840 l 297 981 l 200 840 l 143 840 m 349 1053 q 360 1096 349 1083 q 401 1118 371 1108 l 422 1124 q 469 1145 457 1135 q 481 1182 481 1156 q 474 1213 481 1203 q 449 1227 468 1224 q 389 1231 429 1231 q 272 1225 361 1231 l 272 1275 q 397 1285 343 1285 q 510 1264 479 1285 q 540 1189 540 1243 q 529 1128 540 1149 q 478 1093 518 1107 l 457 1086 q 411 1067 419 1074 q 403 1039 403 1060 l 349 1039 l 349 1053 z "},"ẫ":{"ha":593,"x_min":51,"x_max":503,"o":"m 240 -11 q 132 6 172 -11 q 72 68 92 24 q 51 193 51 113 q 67 317 51 274 q 121 381 83 361 q 228 400 158 400 q 425 393 269 400 l 425 449 q 413 584 425 543 q 367 638 400 625 q 257 651 333 651 q 171 647 222 651 q 88 635 119 642 l 88 701 q 279 719 178 719 q 420 697 374 719 q 485 618 467 674 q 503 453 503 563 l 503 0 l 436 0 l 431 101 l 425 101 q 356 11 404 33 q 240 -11 307 -11 m 260 57 q 351 71 315 57 q 403 128 386 85 q 420 199 415 163 q 425 289 425 236 l 425 338 l 246 338 q 173 327 197 338 q 139 288 149 317 q 129 197 129 258 q 140 109 129 139 q 177 68 150 79 q 260 57 204 57 m 140 840 l 140 847 l 249 1032 l 339 1032 l 447 847 l 447 840 l 392 840 l 294 981 l 197 840 l 140 840 m 486 1272 q 472 1160 486 1190 q 407 1129 457 1129 q 355 1138 381 1129 q 288 1163 329 1146 q 233 1185 254 1178 q 190 1193 211 1193 q 163 1176 169 1193 q 157 1114 157 1160 l 106 1114 q 121 1226 106 1194 q 186 1257 136 1257 q 241 1248 214 1257 q 308 1221 268 1239 q 363 1200 343 1207 q 403 1193 383 1193 q 429 1209 424 1193 q 435 1272 435 1225 l 486 1272 z "},"ȁ":{"ha":593,"x_min":51,"x_max":503,"o":"m 240 -11 q 132 6 172 -11 q 72 68 92 24 q 51 193 51 113 q 67 317 51 274 q 121 381 83 361 q 228 400 158 400 q 425 393 269 400 l 425 449 q 413 584 425 543 q 367 638 400 625 q 257 651 333 651 q 171 647 222 651 q 88 635 119 642 l 88 701 q 279 719 178 719 q 420 697 374 719 q 485 618 467 674 q 503 453 503 563 l 503 0 l 436 0 l 431 101 l 425 101 q 356 11 404 33 q 240 -11 307 -11 m 260 57 q 351 71 315 57 q 403 128 386 85 q 420 199 415 163 q 425 289 425 236 l 425 338 l 246 338 q 173 327 197 338 q 139 288 149 317 q 129 197 129 258 q 140 109 129 139 q 177 68 150 79 q 260 57 204 57 m 238 846 l 186 846 l 88 1011 l 88 1018 l 165 1018 l 238 853 l 238 846 m 421 846 l 369 846 l 269 1011 l 269 1018 l 349 1018 l 421 853 l 421 846 z "},"ä":{"ha":593,"x_min":51,"x_max":503,"o":"m 240 -11 q 132 6 172 -11 q 72 68 92 24 q 51 193 51 113 q 67 317 51 274 q 121 381 83 361 q 228 400 158 400 q 425 393 269 400 l 425 449 q 413 584 425 543 q 367 638 400 625 q 257 651 333 651 q 171 647 222 651 q 88 635 119 642 l 88 701 q 279 719 178 719 q 420 697 374 719 q 485 618 467 674 q 503 453 503 563 l 503 0 l 436 0 l 431 101 l 425 101 q 356 11 404 33 q 240 -11 307 -11 m 260 57 q 351 71 315 57 q 403 128 386 85 q 420 199 415 163 q 425 289 425 236 l 425 338 l 246 338 q 173 327 197 338 q 139 288 149 317 q 129 197 129 258 q 140 109 129 139 q 177 68 150 79 q 260 57 204 57 m 136 915 l 136 1013 l 215 1013 l 215 915 l 136 915 m 381 915 l 381 1013 l 460 1013 l 460 915 l 381 915 z "},"ạ":{"ha":593,"x_min":51,"x_max":503,"o":"m 240 -11 q 132 6 172 -11 q 72 68 92 24 q 51 193 51 113 q 67 317 51 274 q 121 381 83 361 q 228 400 158 400 q 425 393 269 400 l 425 449 q 413 584 425 543 q 367 638 400 625 q 257 651 333 651 q 171 647 222 651 q 88 635 119 642 l 88 701 q 279 719 178 719 q 420 697 374 719 q 485 618 467 674 q 503 453 503 563 l 503 0 l 436 0 l 431 101 l 425 101 q 356 11 404 33 q 240 -11 307 -11 m 260 57 q 351 71 315 57 q 403 128 386 85 q 420 199 415 163 q 425 289 425 236 l 425 338 l 246 338 q 173 327 197 338 q 139 288 149 317 q 129 197 129 258 q 140 109 129 139 q 177 68 150 79 q 260 57 204 57 m 251 -197 l 251 -86 l 343 -86 l 343 -197 l 251 -197 z "},"à":{"ha":593,"x_min":51,"x_max":503,"o":"m 240 -11 q 132 6 172 -11 q 72 68 92 24 q 51 193 51 113 q 67 317 51 274 q 121 381 83 361 q 228 400 158 400 q 425 393 269 400 l 425 449 q 413 584 425 543 q 367 638 400 625 q 257 651 333 651 q 171 647 222 651 q 88 635 119 642 l 88 701 q 279 719 178 719 q 420 697 374 719 q 485 618 467 674 q 503 453 503 563 l 503 0 l 436 0 l 431 101 l 425 101 q 356 11 404 33 q 240 -11 307 -11 m 260 57 q 351 71 315 57 q 403 128 386 85 q 420 199 415 163 q 425 289 425 236 l 425 338 l 246 338 q 173 327 197 338 q 139 288 149 317 q 129 197 129 258 q 140 109 129 139 q 177 68 150 79 q 260 57 204 57 m 279 838 l 174 1025 l 174 1032 l 260 1032 l 336 844 l 336 838 l 279 838 z "},"ả":{"ha":593,"x_min":51,"x_max":503,"o":"m 240 -11 q 132 6 172 -11 q 72 68 92 24 q 51 193 51 113 q 67 317 51 274 q 121 381 83 361 q 228 400 158 400 q 425 393 269 400 l 425 449 q 413 584 425 543 q 367 638 400 625 q 257 651 333 651 q 171 647 222 651 q 88 635 119 642 l 88 701 q 279 719 178 719 q 420 697 374 719 q 485 618 467 674 q 503 453 503 563 l 503 0 l 436 0 l 431 101 l 425 101 q 356 11 404 33 q 240 -11 307 -11 m 260 57 q 351 71 315 57 q 403 128 386 85 q 420 199 415 163 q 425 289 425 236 l 425 338 l 246 338 q 173 327 197 338 q 139 288 149 317 q 129 197 129 258 q 140 109 129 139 q 177 68 150 79 q 260 57 204 57 m 239 861 q 250 904 239 892 q 292 926 261 917 l 313 932 q 359 953 347 943 q 371 990 371 964 q 365 1022 371 1011 q 339 1035 358 1032 q 279 1039 319 1039 q 163 1033 251 1039 l 163 1083 q 288 1093 233 1093 q 400 1072 369 1093 q 431 997 431 1051 q 419 936 431 957 q 368 901 408 915 l 347 894 q 301 875 310 882 q 293 847 293 868 l 239 847 l 239 861 z "},"ȃ":{"ha":593,"x_min":51,"x_max":503,"o":"m 240 -11 q 132 6 172 -11 q 72 68 92 24 q 51 193 51 113 q 67 317 51 274 q 121 381 83 361 q 228 400 158 400 q 425 393 269 400 l 425 449 q 413 584 425 543 q 367 638 400 625 q 257 651 333 651 q 171 647 222 651 q 88 635 119 642 l 88 701 q 279 719 178 719 q 420 697 374 719 q 485 618 467 674 q 503 453 503 563 l 503 0 l 436 0 l 431 101 l 425 101 q 356 11 404 33 q 240 -11 307 -11 m 260 57 q 351 71 315 57 q 403 128 386 85 q 420 199 415 163 q 425 289 425 236 l 425 338 l 246 338 q 173 327 197 338 q 139 288 149 317 q 129 197 129 258 q 140 109 129 139 q 177 68 150 79 q 260 57 204 57 m 144 844 q 153 953 144 914 q 195 1017 163 993 q 297 1040 228 1040 q 399 1017 367 1040 q 439 954 431 993 q 447 844 447 915 l 388 844 q 383 929 388 901 q 359 972 378 957 q 297 988 340 988 q 233 972 253 988 q 209 929 214 957 q 204 844 204 901 l 144 844 z "},"ā":{"ha":593,"x_min":51,"x_max":503,"o":"m 240 -11 q 132 6 172 -11 q 72 68 92 24 q 51 193 51 113 q 67 317 51 274 q 121 381 83 361 q 228 400 158 400 q 425 393 269 400 l 425 449 q 413 584 425 543 q 367 638 400 625 q 257 651 333 651 q 171 647 222 651 q 88 635 119 642 l 88 701 q 279 719 178 719 q 420 697 374 719 q 485 618 467 674 q 503 453 503 563 l 503 0 l 436 0 l 431 101 l 425 101 q 356 11 404 33 q 240 -11 307 -11 m 260 57 q 351 71 315 57 q 403 128 386 85 q 420 199 415 163 q 425 289 425 236 l 425 338 l 246 338 q 173 327 197 338 q 139 288 149 317 q 129 197 129 258 q 140 109 129 139 q 177 68 150 79 q 260 57 204 57 m 164 957 l 164 1032 l 429 1032 l 429 957 l 164 957 z "},"ą":{"ha":593,"x_min":51,"x_max":508,"o":"m 485 -214 q 508 -212 497 -214 l 508 -269 q 467 -272 490 -272 q 379 -244 407 -272 q 351 -171 351 -215 q 374 -83 351 -128 q 436 1 397 -39 l 431 101 l 425 101 q 356 11 404 33 q 240 -11 307 -11 q 132 6 172 -11 q 72 68 92 24 q 51 193 51 113 q 67 317 51 274 q 121 381 83 361 q 228 400 158 400 q 425 393 269 400 l 425 449 q 413 584 425 543 q 367 638 400 625 q 257 651 333 651 q 171 647 222 651 q 88 635 119 642 l 88 701 q 279 719 178 719 q 420 697 374 719 q 485 618 467 674 q 503 453 503 563 l 503 0 q 447 -70 474 -24 q 421 -156 421 -117 q 485 -214 421 -214 m 425 338 l 246 338 q 173 327 197 338 q 139 288 149 317 q 129 197 129 258 q 140 109 129 139 q 177 68 150 79 q 260 57 204 57 q 351 71 315 57 q 403 128 386 85 q 420 199 415 163 q 425 289 425 236 l 425 338 z "},"å":{"ha":593,"x_min":51,"x_max":503,"o":"m 240 -11 q 132 6 172 -11 q 72 68 92 24 q 51 193 51 113 q 67 317 51 274 q 121 381 83 361 q 228 400 158 400 q 425 393 269 400 l 425 449 q 413 584 425 543 q 367 638 400 625 q 257 651 333 651 q 171 647 222 651 q 88 635 119 642 l 88 701 q 279 719 178 719 q 420 697 374 719 q 485 618 467 674 q 503 453 503 563 l 503 0 l 436 0 l 431 101 l 425 101 q 356 11 404 33 q 240 -11 307 -11 m 260 57 q 351 71 315 57 q 403 128 386 85 q 420 199 415 163 q 425 289 425 236 l 425 338 l 246 338 q 173 327 197 338 q 139 288 149 317 q 129 197 129 258 q 140 109 129 139 q 177 68 150 79 q 260 57 204 57 m 296 844 q 205 857 233 844 q 168 895 176 869 q 160 974 160 921 q 168 1053 160 1026 q 205 1092 176 1079 q 296 1104 233 1104 q 387 1092 358 1104 q 424 1053 415 1079 q 432 974 432 1026 q 424 895 432 921 q 387 857 415 869 q 296 844 358 844 m 296 893 q 348 900 332 893 q 369 923 364 907 q 374 974 374 939 q 369 1024 374 1008 q 348 1047 364 1040 q 296 1054 332 1054 q 244 1047 260 1054 q 224 1025 228 1040 q 219 974 219 1010 q 224 922 219 938 q 244 900 228 907 q 296 893 260 893 z "},"ǻ":{"ha":593,"x_min":51,"x_max":503,"o":"m 240 -11 q 132 6 172 -11 q 72 68 92 24 q 51 193 51 113 q 67 317 51 274 q 121 381 83 361 q 228 400 158 400 q 425 393 269 400 l 425 449 q 413 584 425 543 q 367 638 400 625 q 257 651 333 651 q 171 647 222 651 q 88 635 119 642 l 88 701 q 279 719 178 719 q 420 697 374 719 q 485 618 467 674 q 503 453 503 563 l 503 0 l 436 0 l 431 101 l 425 101 q 356 11 404 33 q 240 -11 307 -11 m 260 57 q 351 71 315 57 q 403 128 386 85 q 420 199 415 163 q 425 289 425 236 l 425 338 l 246 338 q 173 327 197 338 q 139 288 149 317 q 129 197 129 258 q 140 109 129 139 q 177 68 150 79 q 260 57 204 57 m 296 853 q 205 865 233 853 q 168 903 176 878 q 160 982 160 929 q 168 1061 160 1035 q 205 1100 176 1088 q 296 1113 233 1113 q 387 1100 358 1113 q 424 1061 415 1088 q 432 982 432 1035 q 424 903 432 929 q 387 865 415 878 q 296 853 358 853 m 296 901 q 348 908 332 901 q 369 931 364 915 q 374 982 374 947 q 369 1033 374 1017 q 348 1056 364 1049 q 296 1063 332 1063 q 244 1056 260 1063 q 224 1033 228 1049 q 219 982 219 1018 q 224 931 219 946 q 244 908 228 915 q 296 901 260 901 m 264 1158 l 264 1165 l 342 1353 l 426 1353 l 426 1346 l 321 1158 l 264 1158 z "},"ã":{"ha":593,"x_min":51,"x_max":503,"o":"m 240 -11 q 132 6 172 -11 q 72 68 92 24 q 51 193 51 113 q 67 317 51 274 q 121 381 83 361 q 228 400 158 400 q 425 393 269 400 l 425 449 q 413 584 425 543 q 367 638 400 625 q 257 651 333 651 q 171 647 222 651 q 88 635 119 642 l 88 701 q 279 719 178 719 q 420 697 374 719 q 485 618 467 674 q 503 453 503 563 l 503 0 l 436 0 l 431 101 l 425 101 q 356 11 404 33 q 240 -11 307 -11 m 260 57 q 351 71 315 57 q 403 128 386 85 q 420 199 415 163 q 425 289 425 236 l 425 338 l 246 338 q 173 327 197 338 q 139 288 149 317 q 129 197 129 258 q 140 109 129 139 q 177 68 150 79 q 260 57 204 57 m 486 1032 q 472 919 486 950 q 407 889 457 889 q 355 897 381 889 q 288 922 329 906 q 233 945 254 938 q 190 953 211 953 q 163 936 169 953 q 157 874 157 919 l 106 874 q 121 985 106 954 q 186 1017 136 1017 q 241 1008 214 1017 q 308 981 268 999 q 363 960 343 967 q 403 953 383 953 q 429 969 424 953 q 435 1032 435 985 l 486 1032 z "},"æ":{"ha":951,"x_min":51,"x_max":881,"o":"m 881 332 l 503 332 q 514 155 503 210 q 562 78 525 100 q 682 57 599 57 q 774 62 724 57 q 861 75 824 67 l 861 8 q 775 -6 829 0 q 669 -11 721 -11 q 527 15 576 -11 q 456 104 478 40 q 376 11 429 33 q 249 -11 322 -11 q 135 6 176 -11 q 72 68 93 24 q 51 193 51 113 q 67 315 51 272 q 121 377 83 358 q 228 396 158 396 l 425 394 l 425 449 q 413 584 425 543 q 367 638 400 625 q 257 651 333 651 q 170 647 222 651 q 86 635 118 642 l 86 701 q 279 719 179 719 q 402 701 358 719 q 468 636 446 682 q 538 700 492 681 q 665 719 585 719 q 811 687 767 719 q 868 583 856 654 q 881 358 881 513 l 881 332 m 663 651 q 556 633 588 651 q 514 565 524 615 q 503 394 504 514 l 804 394 l 804 411 q 792 569 804 519 q 751 635 781 619 q 663 651 722 651 m 425 332 l 244 332 q 171 322 194 332 q 138 285 147 313 q 128 197 128 257 q 138 108 128 138 q 176 68 149 79 q 260 57 204 57 q 353 72 317 57 q 406 135 389 86 q 425 288 425 192 l 425 332 z "},"ǽ":{"ha":951,"x_min":51,"x_max":881,"o":"m 881 332 l 503 332 q 514 155 503 210 q 562 78 525 100 q 682 57 599 57 q 774 62 724 57 q 861 75 824 67 l 861 8 q 775 -6 829 0 q 669 -11 721 -11 q 527 15 576 -11 q 456 104 478 40 q 376 11 429 33 q 249 -11 322 -11 q 135 6 176 -11 q 72 68 93 24 q 51 193 51 113 q 67 315 51 272 q 121 377 83 358 q 228 396 158 396 l 425 394 l 425 449 q 413 584 425 543 q 367 638 400 625 q 257 651 333 651 q 170 647 222 651 q 86 635 118 642 l 86 701 q 279 719 179 719 q 402 701 358 719 q 468 636 446 682 q 538 700 492 681 q 665 719 585 719 q 811 687 767 719 q 868 583 856 654 q 881 358 881 513 l 881 332 m 663 651 q 556 633 588 651 q 514 565 524 615 q 503 394 504 514 l 804 394 l 804 411 q 792 569 804 519 q 751 635 781 619 q 663 651 722 651 m 425 332 l 244 332 q 171 322 194 332 q 138 285 147 313 q 128 197 128 257 q 138 108 128 138 q 176 68 149 79 q 260 57 204 57 q 353 72 317 57 q 406 135 389 86 q 425 288 425 192 l 425 332 m 440 838 l 440 844 l 518 1032 l 603 1032 l 603 1025 l 497 838 l 440 838 z "},"b":{"ha":628,"x_min":93,"x_max":557,"o":"m 349 -11 q 237 12 282 -11 q 172 101 192 35 l 165 101 l 160 0 l 93 0 l 93 1032 l 171 1032 l 171 619 l 178 619 q 238 697 196 674 q 350 719 281 719 q 480 689 436 719 q 540 582 524 658 q 557 354 557 506 q 540 126 557 203 q 480 19 524 50 q 349 -11 436 -11 m 324 60 q 427 80 396 60 q 469 159 458 100 q 479 354 479 218 q 469 549 479 490 q 427 628 458 608 q 324 649 396 649 q 234 627 267 649 q 189 558 201 606 q 174 472 178 519 q 171 354 171 425 q 174 237 171 282 q 188 154 176 192 q 233 83 200 106 q 324 60 267 60 z "},"c":{"ha":489,"x_min":69,"x_max":439,"o":"m 439 7 q 374 -6 414 -1 q 294 -11 333 -11 q 145 25 193 -11 q 83 134 97 61 q 69 353 69 207 q 87 578 69 501 q 151 687 104 654 q 290 719 197 719 q 367 715 326 719 q 435 703 408 710 l 435 636 q 306 651 365 651 q 202 628 235 651 q 158 544 169 604 q 147 356 147 485 q 159 163 147 224 q 203 79 171 101 q 308 57 236 57 q 376 62 339 57 q 439 74 413 67 l 439 7 z "},"ć":{"ha":489,"x_min":69,"x_max":439,"o":"m 439 7 q 374 -6 414 -1 q 294 -11 333 -11 q 145 25 193 -11 q 83 134 97 61 q 69 353 69 207 q 87 578 69 501 q 151 687 104 654 q 290 719 197 719 q 367 715 326 719 q 435 703 408 710 l 435 636 q 306 651 365 651 q 202 628 235 651 q 158 544 169 604 q 147 356 147 485 q 159 163 147 224 q 203 79 171 101 q 308 57 236 57 q 376 62 339 57 q 439 74 413 67 l 439 7 m 208 838 l 208 844 l 286 1032 l 371 1032 l 371 1025 l 265 838 l 208 838 z "},"č":{"ha":489,"x_min":69,"x_max":439,"o":"m 439 7 q 374 -6 414 -1 q 294 -11 333 -11 q 145 25 193 -11 q 83 134 97 61 q 69 353 69 207 q 87 578 69 501 q 151 687 104 654 q 290 719 197 719 q 367 715 326 719 q 435 703 408 710 l 435 636 q 306 651 365 651 q 202 628 235 651 q 158 544 169 604 q 147 356 147 485 q 159 163 147 224 q 203 79 171 101 q 308 57 236 57 q 376 62 339 57 q 439 74 413 67 l 439 7 m 199 840 l 90 1024 l 90 1032 l 147 1032 l 244 890 l 342 1032 l 397 1032 l 397 1024 l 289 840 l 199 840 z "},"ç":{"ha":489,"x_min":69,"x_max":439,"o":"m 308 57 q 376 62 339 57 q 439 74 413 67 l 439 7 q 374 -6 414 -1 q 294 -11 333 -11 l 271 -11 l 214 -264 l 135 -264 l 135 -257 l 214 -4 q 119 51 150 10 q 78 160 88 92 q 69 353 69 228 q 87 578 69 501 q 151 687 104 654 q 290 719 197 719 q 367 715 326 719 q 435 703 408 710 l 435 636 q 306 651 365 651 q 202 628 235 651 q 158 544 169 604 q 147 356 147 485 q 159 163 147 224 q 203 79 171 101 q 308 57 236 57 z "},"ĉ":{"ha":489,"x_min":69,"x_max":439,"o":"m 439 7 q 374 -6 414 -1 q 294 -11 333 -11 q 145 25 193 -11 q 83 134 97 61 q 69 353 69 207 q 87 578 69 501 q 151 687 104 654 q 290 719 197 719 q 367 715 326 719 q 435 703 408 710 l 435 636 q 306 651 365 651 q 202 628 235 651 q 158 544 169 604 q 147 356 147 485 q 159 163 147 224 q 203 79 171 101 q 308 57 236 57 q 376 62 339 57 q 439 74 413 67 l 439 7 m 90 840 l 90 847 l 199 1032 l 289 1032 l 397 847 l 397 840 l 342 840 l 244 981 l 147 840 l 90 840 z "},"ċ":{"ha":489,"x_min":69,"x_max":439,"o":"m 439 7 q 374 -6 414 -1 q 294 -11 333 -11 q 145 25 193 -11 q 83 134 97 61 q 69 353 69 207 q 87 578 69 501 q 151 687 104 654 q 290 719 197 719 q 367 715 326 719 q 435 703 408 710 l 435 636 q 306 651 365 651 q 202 628 235 651 q 158 544 169 604 q 147 356 147 485 q 159 163 147 224 q 203 79 171 101 q 308 57 236 57 q 376 62 339 57 q 439 74 413 67 l 439 7 m 204 917 l 204 1014 l 283 1014 l 283 917 l 204 917 z "},"d":{"ha":628,"x_min":69,"x_max":535,"o":"m 278 -11 q 148 19 192 -11 q 87 126 104 50 q 69 354 69 203 q 86 582 69 506 q 147 689 103 658 q 278 719 190 719 q 390 697 347 719 q 450 619 432 674 l 457 619 l 457 1032 l 535 1032 l 535 0 l 468 0 l 463 101 l 456 101 q 390 12 436 35 q 278 -11 344 -11 m 303 60 q 394 82 361 60 q 440 151 428 104 q 453 242 450 193 q 457 368 457 290 q 443 542 457 485 q 396 624 429 600 q 299 649 363 649 q 199 628 229 649 q 158 549 168 608 q 147 354 147 490 q 158 159 147 218 q 199 80 168 100 q 303 60 231 60 z "},"ð":{"ha":614,"x_min":69,"x_max":542,"o":"m 306 -11 q 146 19 194 -11 q 83 120 97 49 q 69 353 69 192 q 83 585 69 513 q 142 688 96 657 q 293 719 188 719 q 432 676 385 719 l 438 679 q 363 883 407 800 l 224 861 l 224 921 l 331 938 q 261 1026 310 968 l 261 1032 l 347 1032 q 410 950 386 988 l 522 968 l 522 910 l 442 896 q 497 747 474 829 q 529 585 519 665 q 542 382 542 496 q 530 128 542 203 q 469 22 518 54 q 306 -11 421 -11 m 306 57 q 418 80 386 57 q 457 157 450 103 q 464 353 464 211 q 456 535 464 479 q 415 622 449 592 q 306 651 382 651 q 193 630 225 651 q 154 553 161 608 q 147 353 147 499 q 154 157 147 211 q 193 80 161 103 q 306 57 225 57 z "},"ď":{"ha":635,"x_min":69,"x_max":679,"o":"m 278 -11 q 148 19 192 -11 q 87 126 104 50 q 69 354 69 203 q 86 582 69 506 q 147 689 103 658 q 278 719 190 719 q 390 697 347 719 q 450 619 432 674 l 457 619 l 457 1032 l 535 1032 l 535 0 l 468 0 l 463 101 l 456 101 q 390 12 436 35 q 278 -11 344 -11 m 303 60 q 394 82 361 60 q 440 151 428 104 q 453 242 450 193 q 457 368 457 290 q 443 542 457 485 q 396 624 429 600 q 299 649 363 649 q 199 628 229 649 q 158 549 168 608 q 147 354 147 490 q 158 159 147 218 q 199 80 168 100 q 303 60 231 60 m 582 624 l 600 842 l 600 956 l 679 956 l 679 842 l 635 624 l 582 624 z "},"đ":{"ha":628,"x_min":69,"x_max":613,"o":"m 613 888 l 535 888 l 535 0 l 468 0 l 463 101 l 456 101 q 390 12 436 35 q 278 -11 344 -11 q 148 19 192 -11 q 87 126 104 50 q 69 354 69 203 q 86 582 69 506 q 147 689 103 658 q 278 719 190 719 q 390 697 347 719 q 450 619 432 674 l 457 619 l 457 888 l 290 888 l 290 956 l 457 956 l 457 1032 l 535 1032 l 535 956 l 613 956 l 613 888 m 440 151 q 453 242 450 193 q 457 368 457 290 q 443 542 457 485 q 396 624 429 600 q 299 649 363 649 q 199 628 229 649 q 158 549 168 608 q 147 354 147 490 q 158 159 147 218 q 199 80 168 100 q 303 60 231 60 q 394 82 361 60 q 440 151 428 104 z "},"ḍ":{"ha":628,"x_min":69,"x_max":535,"o":"m 278 -11 q 148 19 192 -11 q 87 126 104 50 q 69 354 69 203 q 86 582 69 506 q 147 689 103 658 q 278 719 190 719 q 390 697 347 719 q 450 619 432 674 l 457 619 l 457 1032 l 535 1032 l 535 0 l 468 0 l 463 101 l 456 101 q 390 12 436 35 q 278 -11 344 -11 m 303 60 q 394 82 361 60 q 440 151 428 104 q 453 242 450 193 q 457 368 457 290 q 443 542 457 485 q 396 624 429 600 q 299 649 363 649 q 199 628 229 649 q 158 549 168 608 q 147 354 147 490 q 158 159 147 218 q 199 80 168 100 q 303 60 231 60 m 268 -197 l 268 -86 l 360 -86 l 360 -197 l 268 -197 z "},"ǳ":{"ha":1140,"x_min":69,"x_max":1092,"o":"m 278 -11 q 148 19 192 -11 q 87 126 104 50 q 69 354 69 203 q 86 582 69 506 q 147 689 103 658 q 278 719 190 719 q 390 697 347 719 q 450 619 432 674 l 457 619 l 457 1032 l 535 1032 l 535 0 l 468 0 l 463 101 l 456 101 q 390 12 436 35 q 278 -11 344 -11 m 303 60 q 394 82 361 60 q 440 151 428 104 q 453 242 450 193 q 457 368 457 290 q 443 542 457 485 q 396 624 429 600 q 299 649 363 649 q 199 628 229 649 q 158 549 168 608 q 147 354 147 490 q 158 159 147 218 q 199 80 168 100 q 303 60 231 60 m 676 0 l 676 63 l 996 640 l 688 640 l 688 708 l 1090 708 l 1090 647 l 769 68 l 1092 68 l 1092 0 l 676 0 z "},"ǆ":{"ha":1140,"x_min":69,"x_max":1092,"o":"m 278 -11 q 148 19 192 -11 q 87 126 104 50 q 69 354 69 203 q 86 582 69 506 q 147 689 103 658 q 278 719 190 719 q 390 697 347 719 q 450 619 432 674 l 457 619 l 457 1032 l 535 1032 l 535 0 l 468 0 l 463 101 l 456 101 q 390 12 436 35 q 278 -11 344 -11 m 303 60 q 394 82 361 60 q 440 151 428 104 q 453 242 450 193 q 457 368 457 290 q 443 542 457 485 q 396 624 429 600 q 299 649 363 649 q 199 628 229 649 q 158 549 168 608 q 147 354 147 490 q 158 159 147 218 q 199 80 168 100 q 303 60 231 60 m 676 0 l 676 63 l 996 640 l 688 640 l 688 708 l 1090 708 l 1090 647 l 769 68 l 1092 68 l 1092 0 l 676 0 m 833 840 l 725 1024 l 725 1032 l 782 1032 l 879 890 l 976 1032 l 1032 1032 l 1032 1024 l 924 840 l 833 840 z "},"e":{"ha":596,"x_min":69,"x_max":525,"o":"m 525 328 l 147 328 q 158 153 147 207 q 206 78 169 100 q 326 57 243 57 q 418 62 368 57 q 506 75 468 67 l 506 8 q 419 -6 474 0 q 314 -11 365 -11 q 153 20 204 -11 q 86 126 103 51 q 69 353 69 200 q 83 579 69 507 q 147 685 97 651 q 310 719 197 719 q 456 687 411 719 q 513 583 500 654 q 525 356 525 511 l 525 328 m 307 651 q 201 633 233 651 q 158 563 168 614 q 147 390 149 511 l 449 390 l 449 411 q 437 569 449 519 q 396 635 425 619 q 307 651 367 651 z "},"é":{"ha":596,"x_min":69,"x_max":525,"o":"m 525 328 l 147 328 q 158 153 147 207 q 206 78 169 100 q 326 57 243 57 q 418 62 368 57 q 506 75 468 67 l 506 8 q 419 -6 474 0 q 314 -11 365 -11 q 153 20 204 -11 q 86 126 103 51 q 69 353 69 200 q 83 579 69 507 q 147 685 97 651 q 310 719 197 719 q 456 687 411 719 q 513 583 500 654 q 525 356 525 511 l 525 328 m 307 651 q 201 633 233 651 q 158 563 168 614 q 147 390 149 511 l 449 390 l 449 411 q 437 569 449 519 q 396 635 425 619 q 307 651 367 651 m 272 838 l 272 844 l 350 1032 l 435 1032 l 435 1025 l 329 838 l 272 838 z "},"ĕ":{"ha":596,"x_min":69,"x_max":525,"o":"m 525 328 l 147 328 q 158 153 147 207 q 206 78 169 100 q 326 57 243 57 q 418 62 368 57 q 506 75 468 67 l 506 8 q 419 -6 474 0 q 314 -11 365 -11 q 153 20 204 -11 q 86 126 103 51 q 69 353 69 200 q 83 579 69 507 q 147 685 97 651 q 310 719 197 719 q 456 687 411 719 q 513 583 500 654 q 525 356 525 511 l 525 328 m 307 651 q 201 633 233 651 q 158 563 168 614 q 147 390 149 511 l 449 390 l 449 411 q 437 569 449 519 q 396 635 425 619 q 307 651 367 651 m 447 1032 q 438 923 447 963 q 397 860 429 883 q 294 836 364 836 q 193 860 225 836 q 153 922 161 883 q 144 1032 144 961 l 204 1032 q 209 947 204 975 q 233 904 214 919 q 294 889 251 889 q 358 904 339 889 q 383 947 378 919 q 388 1032 388 975 l 447 1032 z "},"ě":{"ha":596,"x_min":69,"x_max":525,"o":"m 525 328 l 147 328 q 158 153 147 207 q 206 78 169 100 q 326 57 243 57 q 418 62 368 57 q 506 75 468 67 l 506 8 q 419 -6 474 0 q 314 -11 365 -11 q 153 20 204 -11 q 86 126 103 51 q 69 353 69 200 q 83 579 69 507 q 147 685 97 651 q 310 719 197 719 q 456 687 411 719 q 513 583 500 654 q 525 356 525 511 l 525 328 m 307 651 q 201 633 233 651 q 158 563 168 614 q 147 390 149 511 l 449 390 l 449 411 q 437 569 449 519 q 396 635 425 619 q 307 651 367 651 m 251 840 l 143 1024 l 143 1032 l 200 1032 l 297 890 l 394 1032 l 450 1032 l 450 1024 l 342 840 l 251 840 z "},"ê":{"ha":596,"x_min":69,"x_max":525,"o":"m 525 328 l 147 328 q 158 153 147 207 q 206 78 169 100 q 326 57 243 57 q 418 62 368 57 q 506 75 468 67 l 506 8 q 419 -6 474 0 q 314 -11 365 -11 q 153 20 204 -11 q 86 126 103 51 q 69 353 69 200 q 83 579 69 507 q 147 685 97 651 q 310 719 197 719 q 456 687 411 719 q 513 583 500 654 q 525 356 525 511 l 525 328 m 307 651 q 201 633 233 651 q 158 563 168 614 q 147 390 149 511 l 449 390 l 449 411 q 437 569 449 519 q 396 635 425 619 q 307 651 367 651 m 147 840 l 147 847 l 256 1032 l 346 1032 l 454 847 l 454 840 l 399 840 l 301 981 l 204 840 l 147 840 z "},"ế":{"ha":596,"x_min":69,"x_max":531,"o":"m 525 328 l 147 328 q 158 153 147 207 q 206 78 169 100 q 326 57 243 57 q 418 62 368 57 q 506 75 468 67 l 506 8 q 419 -6 474 0 q 314 -11 365 -11 q 153 20 204 -11 q 86 126 103 51 q 69 353 69 200 q 83 579 69 507 q 147 685 97 651 q 310 719 197 719 q 456 687 411 719 q 513 583 500 654 q 525 356 525 511 l 525 328 m 307 651 q 201 633 233 651 q 158 563 168 614 q 147 390 149 511 l 449 390 l 449 411 q 437 569 449 519 q 396 635 425 619 q 307 651 367 651 m 142 840 l 142 847 l 250 1032 l 340 1032 l 449 847 l 449 840 l 393 840 l 296 981 l 199 840 l 142 840 m 368 1042 l 368 1049 l 446 1236 l 531 1236 l 531 1229 l 425 1042 l 368 1042 z "},"ệ":{"ha":596,"x_min":69,"x_max":525,"o":"m 525 328 l 147 328 q 158 153 147 207 q 206 78 169 100 q 326 57 243 57 q 418 62 368 57 q 506 75 468 67 l 506 8 q 419 -6 474 0 q 314 -11 365 -11 q 153 20 204 -11 q 86 126 103 51 q 69 353 69 200 q 83 579 69 507 q 147 685 97 651 q 310 719 197 719 q 456 687 411 719 q 513 583 500 654 q 525 356 525 511 l 525 328 m 307 651 q 201 633 233 651 q 158 563 168 614 q 147 390 149 511 l 449 390 l 449 411 q 437 569 449 519 q 396 635 425 619 q 307 651 367 651 m 251 -197 l 251 -86 l 343 -86 l 343 -197 l 251 -197 m 143 840 l 143 847 l 251 1032 l 342 1032 l 450 847 l 450 840 l 394 840 l 297 981 l 200 840 l 143 840 z "},"ề":{"ha":596,"x_min":69,"x_max":525,"o":"m 525 328 l 147 328 q 158 153 147 207 q 206 78 169 100 q 326 57 243 57 q 418 62 368 57 q 506 75 468 67 l 506 8 q 419 -6 474 0 q 314 -11 365 -11 q 153 20 204 -11 q 86 126 103 51 q 69 353 69 200 q 83 579 69 507 q 147 685 97 651 q 310 719 197 719 q 456 687 411 719 q 513 583 500 654 q 525 356 525 511 l 525 328 m 307 651 q 201 633 233 651 q 158 563 168 614 q 147 390 149 511 l 449 390 l 449 411 q 437 569 449 519 q 396 635 425 619 q 307 651 367 651 m 142 840 l 142 847 l 250 1032 l 340 1032 l 449 847 l 449 840 l 393 840 l 296 981 l 199 840 l 142 840 m 389 1042 l 283 1229 l 283 1236 l 369 1236 l 446 1049 l 446 1042 l 389 1042 z "},"ể":{"ha":596,"x_min":69,"x_max":540,"o":"m 525 328 l 147 328 q 158 153 147 207 q 206 78 169 100 q 326 57 243 57 q 418 62 368 57 q 506 75 468 67 l 506 8 q 419 -6 474 0 q 314 -11 365 -11 q 153 20 204 -11 q 86 126 103 51 q 69 353 69 200 q 83 579 69 507 q 147 685 97 651 q 310 719 197 719 q 456 687 411 719 q 513 583 500 654 q 525 356 525 511 l 525 328 m 307 651 q 201 633 233 651 q 158 563 168 614 q 147 390 149 511 l 449 390 l 449 411 q 437 569 449 519 q 396 635 425 619 q 307 651 367 651 m 143 840 l 143 847 l 251 1032 l 342 1032 l 450 847 l 450 840 l 394 840 l 297 981 l 200 840 l 143 840 m 349 1053 q 360 1096 349 1083 q 401 1118 371 1108 l 422 1124 q 469 1145 457 1135 q 481 1182 481 1156 q 474 1213 481 1203 q 449 1227 468 1224 q 389 1231 429 1231 q 272 1225 361 1231 l 272 1275 q 397 1285 343 1285 q 510 1264 479 1285 q 540 1189 540 1243 q 529 1128 540 1149 q 478 1093 518 1107 l 457 1086 q 411 1067 419 1074 q 403 1039 403 1060 l 349 1039 l 349 1053 z "},"ễ":{"ha":596,"x_min":69,"x_max":525,"o":"m 525 328 l 147 328 q 158 153 147 207 q 206 78 169 100 q 326 57 243 57 q 418 62 368 57 q 506 75 468 67 l 506 8 q 419 -6 474 0 q 314 -11 365 -11 q 153 20 204 -11 q 86 126 103 51 q 69 353 69 200 q 83 579 69 507 q 147 685 97 651 q 310 719 197 719 q 456 687 411 719 q 513 583 500 654 q 525 356 525 511 l 525 328 m 307 651 q 201 633 233 651 q 158 563 168 614 q 147 390 149 511 l 449 390 l 449 411 q 437 569 449 519 q 396 635 425 619 q 307 651 367 651 m 140 840 l 140 847 l 249 1032 l 339 1032 l 447 847 l 447 840 l 392 840 l 294 981 l 197 840 l 140 840 m 486 1272 q 472 1160 486 1190 q 407 1129 457 1129 q 355 1138 381 1129 q 288 1163 329 1146 q 233 1185 254 1178 q 190 1193 211 1193 q 163 1176 169 1193 q 157 1114 157 1160 l 106 1114 q 121 1226 106 1194 q 186 1257 136 1257 q 241 1248 214 1257 q 308 1221 268 1239 q 363 1200 343 1207 q 403 1193 383 1193 q 429 1209 424 1193 q 435 1272 435 1225 l 486 1272 z "},"ȅ":{"ha":596,"x_min":69,"x_max":525,"o":"m 525 328 l 147 328 q 158 153 147 207 q 206 78 169 100 q 326 57 243 57 q 418 62 368 57 q 506 75 468 67 l 506 8 q 419 -6 474 0 q 314 -11 365 -11 q 153 20 204 -11 q 86 126 103 51 q 69 353 69 200 q 83 579 69 507 q 147 685 97 651 q 310 719 197 719 q 456 687 411 719 q 513 583 500 654 q 525 356 525 511 l 525 328 m 307 651 q 201 633 233 651 q 158 563 168 614 q 147 390 149 511 l 449 390 l 449 411 q 437 569 449 519 q 396 635 425 619 q 307 651 367 651 m 238 846 l 186 846 l 88 1011 l 88 1018 l 165 1018 l 238 853 l 238 846 m 421 846 l 369 846 l 269 1011 l 269 1018 l 349 1018 l 421 853 l 421 846 z "},"ë":{"ha":596,"x_min":69,"x_max":525,"o":"m 525 328 l 147 328 q 158 153 147 207 q 206 78 169 100 q 326 57 243 57 q 418 62 368 57 q 506 75 468 67 l 506 8 q 419 -6 474 0 q 314 -11 365 -11 q 153 20 204 -11 q 86 126 103 51 q 69 353 69 200 q 83 579 69 507 q 147 685 97 651 q 310 719 197 719 q 456 687 411 719 q 513 583 500 654 q 525 356 525 511 l 525 328 m 307 651 q 201 633 233 651 q 158 563 168 614 q 147 390 149 511 l 449 390 l 449 411 q 437 569 449 519 q 396 635 425 619 q 307 651 367 651 m 142 915 l 142 1013 l 221 1013 l 221 915 l 142 915 m 386 915 l 386 1013 l 465 1013 l 465 915 l 386 915 z "},"ė":{"ha":596,"x_min":69,"x_max":525,"o":"m 525 328 l 147 328 q 158 153 147 207 q 206 78 169 100 q 326 57 243 57 q 418 62 368 57 q 506 75 468 67 l 506 8 q 419 -6 474 0 q 314 -11 365 -11 q 153 20 204 -11 q 86 126 103 51 q 69 353 69 200 q 83 579 69 507 q 147 685 97 651 q 310 719 197 719 q 456 687 411 719 q 513 583 500 654 q 525 356 525 511 l 525 328 m 307 651 q 201 633 233 651 q 158 563 168 614 q 147 390 149 511 l 449 390 l 449 411 q 437 569 449 519 q 396 635 425 619 q 307 651 367 651 m 257 917 l 257 1014 l 336 1014 l 336 917 l 257 917 z "},"ẹ":{"ha":596,"x_min":69,"x_max":525,"o":"m 525 328 l 147 328 q 158 153 147 207 q 206 78 169 100 q 326 57 243 57 q 418 62 368 57 q 506 75 468 67 l 506 8 q 419 -6 474 0 q 314 -11 365 -11 q 153 20 204 -11 q 86 126 103 51 q 69 353 69 200 q 83 579 69 507 q 147 685 97 651 q 310 719 197 719 q 456 687 411 719 q 513 583 500 654 q 525 356 525 511 l 525 328 m 307 651 q 201 633 233 651 q 158 563 168 614 q 147 390 149 511 l 449 390 l 449 411 q 437 569 449 519 q 396 635 425 619 q 307 651 367 651 m 251 -197 l 251 -86 l 343 -86 l 343 -197 l 251 -197 z "},"è":{"ha":596,"x_min":69,"x_max":525,"o":"m 525 328 l 147 328 q 158 153 147 207 q 206 78 169 100 q 326 57 243 57 q 418 62 368 57 q 506 75 468 67 l 506 8 q 419 -6 474 0 q 314 -11 365 -11 q 153 20 204 -11 q 86 126 103 51 q 69 353 69 200 q 83 579 69 507 q 147 685 97 651 q 310 719 197 719 q 456 687 411 719 q 513 583 500 654 q 525 356 525 511 l 525 328 m 307 651 q 201 633 233 651 q 158 563 168 614 q 147 390 149 511 l 449 390 l 449 411 q 437 569 449 519 q 396 635 425 619 q 307 651 367 651 m 286 838 l 181 1025 l 181 1032 l 267 1032 l 343 844 l 343 838 l 286 838 z "},"ẻ":{"ha":596,"x_min":69,"x_max":525,"o":"m 525 328 l 147 328 q 158 153 147 207 q 206 78 169 100 q 326 57 243 57 q 418 62 368 57 q 506 75 468 67 l 506 8 q 419 -6 474 0 q 314 -11 365 -11 q 153 20 204 -11 q 86 126 103 51 q 69 353 69 200 q 83 579 69 507 q 147 685 97 651 q 310 719 197 719 q 456 687 411 719 q 513 583 500 654 q 525 356 525 511 l 525 328 m 307 651 q 201 633 233 651 q 158 563 168 614 q 147 390 149 511 l 449 390 l 449 411 q 437 569 449 519 q 396 635 425 619 q 307 651 367 651 m 239 861 q 250 904 239 892 q 292 926 261 917 l 313 932 q 359 953 347 943 q 371 990 371 964 q 365 1022 371 1011 q 339 1035 358 1032 q 279 1039 319 1039 q 163 1033 251 1039 l 163 1083 q 288 1093 233 1093 q 400 1072 369 1093 q 431 997 431 1051 q 419 936 431 957 q 368 901 408 915 l 347 894 q 301 875 310 882 q 293 847 293 868 l 239 847 l 239 861 z "},"ȇ":{"ha":596,"x_min":69,"x_max":525,"o":"m 525 328 l 147 328 q 158 153 147 207 q 206 78 169 100 q 326 57 243 57 q 418 62 368 57 q 506 75 468 67 l 506 8 q 419 -6 474 0 q 314 -11 365 -11 q 153 20 204 -11 q 86 126 103 51 q 69 353 69 200 q 83 579 69 507 q 147 685 97 651 q 310 719 197 719 q 456 687 411 719 q 513 583 500 654 q 525 356 525 511 l 525 328 m 307 651 q 201 633 233 651 q 158 563 168 614 q 147 390 149 511 l 449 390 l 449 411 q 437 569 449 519 q 396 635 425 619 q 307 651 367 651 m 144 844 q 153 953 144 914 q 195 1017 163 993 q 297 1040 228 1040 q 399 1017 367 1040 q 439 954 431 993 q 447 844 447 915 l 388 844 q 383 929 388 901 q 359 972 378 957 q 297 988 340 988 q 233 972 253 988 q 209 929 214 957 q 204 844 204 901 l 144 844 z "},"ē":{"ha":596,"x_min":69,"x_max":525,"o":"m 525 328 l 147 328 q 158 153 147 207 q 206 78 169 100 q 326 57 243 57 q 418 62 368 57 q 506 75 468 67 l 506 8 q 419 -6 474 0 q 314 -11 365 -11 q 153 20 204 -11 q 86 126 103 51 q 69 353 69 200 q 83 579 69 507 q 147 685 97 651 q 310 719 197 719 q 456 687 411 719 q 513 583 500 654 q 525 356 525 511 l 525 328 m 307 651 q 201 633 233 651 q 158 563 168 614 q 147 390 149 511 l 449 390 l 449 411 q 437 569 449 519 q 396 635 425 619 q 307 651 367 651 m 164 957 l 164 1032 l 429 1032 l 429 957 l 164 957 z "},"ę":{"ha":596,"x_min":69,"x_max":525,"o":"m 525 328 l 147 328 q 158 153 147 207 q 206 78 169 100 q 326 57 243 57 q 418 62 368 57 q 506 75 468 67 l 506 8 q 437 -67 469 -19 q 404 -156 404 -115 q 419 -197 404 -181 q 468 -214 435 -214 q 492 -212 482 -214 l 492 -269 q 451 -272 467 -272 q 363 -244 392 -272 q 335 -172 335 -217 q 358 -87 335 -131 q 421 -6 381 -43 q 314 -11 354 -11 q 153 20 204 -11 q 86 126 103 51 q 69 353 69 200 q 83 579 69 507 q 147 685 97 651 q 310 719 197 719 q 456 687 411 719 q 513 583 500 654 q 525 356 525 511 l 525 328 m 307 651 q 201 633 233 651 q 158 563 168 614 q 147 390 149 511 l 449 390 l 449 411 q 437 569 449 519 q 396 635 425 619 q 307 651 367 651 z "},"ẽ":{"ha":596,"x_min":69,"x_max":525,"o":"m 525 328 l 147 328 q 158 153 147 207 q 206 78 169 100 q 326 57 243 57 q 418 62 368 57 q 506 75 468 67 l 506 8 q 419 -6 474 0 q 314 -11 365 -11 q 153 20 204 -11 q 86 126 103 51 q 69 353 69 200 q 83 579 69 507 q 147 685 97 651 q 310 719 197 719 q 456 687 411 719 q 513 583 500 654 q 525 356 525 511 l 525 328 m 307 651 q 201 633 233 651 q 158 563 168 614 q 147 390 149 511 l 449 390 l 449 411 q 437 569 449 519 q 396 635 425 619 q 307 651 367 651 m 486 1032 q 472 919 486 950 q 407 889 457 889 q 355 897 381 889 q 288 922 329 906 q 233 945 254 938 q 190 953 211 953 q 163 936 169 953 q 157 874 157 919 l 106 874 q 121 985 106 954 q 186 1017 136 1017 q 241 1008 214 1017 q 308 981 268 999 q 363 960 343 967 q 403 953 383 953 q 429 969 424 953 q 435 1032 435 985 l 486 1032 z "},"ə":{"ha":596,"x_min":71,"x_max":526,"o":"m 282 719 q 442 688 392 719 q 510 583 493 657 q 526 356 526 508 q 513 129 526 201 q 449 23 499 57 q 286 -11 399 -11 q 140 22 185 -11 q 83 126 96 54 q 71 353 71 197 l 71 381 l 449 381 q 438 555 449 501 q 390 630 426 608 q 269 651 353 651 q 178 647 228 651 q 90 633 128 642 l 90 700 q 176 714 122 708 q 282 719 231 719 m 289 57 q 395 76 363 57 q 438 146 428 94 q 449 318 447 197 l 147 318 l 147 297 q 159 139 147 189 q 200 73 171 89 q 289 57 229 57 z "},"f":{"ha":379,"x_min":31,"x_max":347,"o":"m 136 640 l 31 640 l 31 708 l 136 708 l 136 844 q 157 968 136 928 q 221 1020 178 1008 q 347 1032 264 1032 l 347 969 q 263 961 290 969 q 225 929 236 953 q 214 858 214 906 l 214 708 l 347 708 l 347 640 l 214 640 l 214 0 l 136 0 l 136 640 z "},"g":{"ha":626,"x_min":69,"x_max":533,"o":"m 278 -276 q 92 -268 171 -276 l 92 -201 q 265 -208 178 -208 q 391 -185 351 -208 q 443 -104 431 -161 q 456 76 456 -47 l 456 92 l 450 92 q 390 15 432 38 q 278 -8 349 -8 q 147 22 190 -8 q 86 128 103 51 q 69 354 69 204 q 87 582 69 506 q 148 689 104 658 q 279 719 192 719 q 391 697 346 719 q 456 607 436 674 l 463 607 l 467 708 l 533 708 l 533 106 q 516 -127 533 -49 q 444 -241 499 -206 q 278 -276 390 -276 m 303 61 q 394 84 361 61 q 440 158 426 107 q 453 238 450 193 q 456 354 456 282 q 453 467 456 424 q 443 542 451 510 q 396 624 429 600 q 303 649 363 649 q 199 629 231 649 q 158 551 168 610 q 147 354 147 492 q 158 160 147 218 q 199 81 168 101 q 303 61 231 61 z "},"ǵ":{"ha":626,"x_min":69,"x_max":533,"o":"m 278 -276 q 92 -268 171 -276 l 92 -201 q 265 -208 178 -208 q 391 -185 351 -208 q 443 -104 431 -161 q 456 76 456 -47 l 456 92 l 450 92 q 390 15 432 38 q 278 -8 349 -8 q 147 22 190 -8 q 86 128 103 51 q 69 354 69 204 q 87 582 69 506 q 148 689 104 658 q 279 719 192 719 q 391 697 346 719 q 456 607 436 674 l 463 607 l 467 708 l 533 708 l 533 106 q 516 -127 533 -49 q 444 -241 499 -206 q 278 -276 390 -276 m 303 61 q 394 84 361 61 q 440 158 426 107 q 453 238 450 193 q 456 354 456 282 q 453 467 456 424 q 443 542 451 510 q 396 624 429 600 q 303 649 363 649 q 199 629 231 649 q 158 551 168 610 q 147 354 147 492 q 158 160 147 218 q 199 81 168 101 q 303 61 231 61 m 278 838 l 278 844 l 356 1032 l 440 1032 l 440 1025 l 335 838 l 278 838 z "},"ğ":{"ha":626,"x_min":69,"x_max":533,"o":"m 278 -276 q 92 -268 171 -276 l 92 -201 q 265 -208 178 -208 q 391 -185 351 -208 q 443 -104 431 -161 q 456 76 456 -47 l 456 92 l 450 92 q 390 15 432 38 q 278 -8 349 -8 q 147 22 190 -8 q 86 128 103 51 q 69 354 69 204 q 87 582 69 506 q 148 689 104 658 q 279 719 192 719 q 391 697 346 719 q 456 607 436 674 l 463 607 l 467 708 l 533 708 l 533 106 q 516 -127 533 -49 q 444 -241 499 -206 q 278 -276 390 -276 m 303 61 q 394 84 361 61 q 440 158 426 107 q 453 238 450 193 q 456 354 456 282 q 453 467 456 424 q 443 542 451 510 q 396 624 429 600 q 303 649 363 649 q 199 629 231 649 q 158 551 168 610 q 147 354 147 492 q 158 160 147 218 q 199 81 168 101 q 303 61 231 61 m 464 1032 q 455 923 464 963 q 413 860 446 883 q 311 836 381 836 q 210 860 242 836 q 169 922 178 883 q 161 1032 161 961 l 221 1032 q 226 947 221 975 q 249 904 231 919 q 311 889 268 889 q 375 904 356 889 q 399 947 394 919 q 404 1032 404 975 l 464 1032 z "},"ǧ":{"ha":626,"x_min":69,"x_max":533,"o":"m 278 -276 q 92 -268 171 -276 l 92 -201 q 265 -208 178 -208 q 391 -185 351 -208 q 443 -104 431 -161 q 456 76 456 -47 l 456 92 l 450 92 q 390 15 432 38 q 278 -8 349 -8 q 147 22 190 -8 q 86 128 103 51 q 69 354 69 204 q 87 582 69 506 q 148 689 104 658 q 279 719 192 719 q 391 697 346 719 q 456 607 436 674 l 463 607 l 467 708 l 533 708 l 533 106 q 516 -127 533 -49 q 444 -241 499 -206 q 278 -276 390 -276 m 303 61 q 394 84 361 61 q 440 158 426 107 q 453 238 450 193 q 456 354 456 282 q 453 467 456 424 q 443 542 451 510 q 396 624 429 600 q 303 649 363 649 q 199 629 231 649 q 158 551 168 610 q 147 354 147 492 q 158 160 147 218 q 199 81 168 101 q 303 61 231 61 m 268 840 l 160 1024 l 160 1032 l 217 1032 l 314 890 l 411 1032 l 467 1032 l 467 1024 l 358 840 l 268 840 z "},"ĝ":{"ha":626,"x_min":69,"x_max":533,"o":"m 278 -276 q 92 -268 171 -276 l 92 -201 q 265 -208 178 -208 q 391 -185 351 -208 q 443 -104 431 -161 q 456 76 456 -47 l 456 92 l 450 92 q 390 15 432 38 q 278 -8 349 -8 q 147 22 190 -8 q 86 128 103 51 q 69 354 69 204 q 87 582 69 506 q 148 689 104 658 q 279 719 192 719 q 391 697 346 719 q 456 607 436 674 l 463 607 l 467 708 l 533 708 l 533 106 q 516 -127 533 -49 q 444 -241 499 -206 q 278 -276 390 -276 m 303 61 q 394 84 361 61 q 440 158 426 107 q 453 238 450 193 q 456 354 456 282 q 453 467 456 424 q 443 542 451 510 q 396 624 429 600 q 303 649 363 649 q 199 629 231 649 q 158 551 168 610 q 147 354 147 492 q 158 160 147 218 q 199 81 168 101 q 303 61 231 61 m 160 840 l 160 847 l 268 1032 l 358 1032 l 467 847 l 467 840 l 411 840 l 314 981 l 217 840 l 160 840 z "},"ģ":{"ha":626,"x_min":69,"x_max":533,"o":"m 278 -276 q 92 -268 171 -276 l 92 -201 q 265 -208 178 -208 q 391 -185 351 -208 q 443 -104 431 -161 q 456 76 456 -47 l 456 92 l 450 92 q 390 15 432 38 q 278 -8 349 -8 q 147 22 190 -8 q 86 128 103 51 q 69 354 69 204 q 87 582 69 506 q 148 689 104 658 q 279 719 192 719 q 391 697 346 719 q 456 607 436 674 l 463 607 l 467 708 l 533 708 l 533 106 q 516 -127 533 -49 q 444 -241 499 -206 q 278 -276 390 -276 m 303 61 q 394 84 361 61 q 440 158 426 107 q 453 238 450 193 q 456 354 456 282 q 453 467 456 424 q 443 542 451 510 q 396 624 429 600 q 303 649 363 649 q 199 629 231 649 q 158 551 168 610 q 147 354 147 492 q 158 160 147 218 q 199 81 168 101 q 303 61 231 61 m 390 1053 q 334 1038 346 1053 q 322 972 322 1022 l 322 949 l 361 949 l 361 840 l 268 840 l 268 947 q 277 1038 268 1008 q 312 1081 286 1068 q 390 1093 338 1093 l 390 1053 z "},"ġ":{"ha":626,"x_min":69,"x_max":533,"o":"m 278 -276 q 92 -268 171 -276 l 92 -201 q 265 -208 178 -208 q 391 -185 351 -208 q 443 -104 431 -161 q 456 76 456 -47 l 456 92 l 450 92 q 390 15 432 38 q 278 -8 349 -8 q 147 22 190 -8 q 86 128 103 51 q 69 354 69 204 q 87 582 69 506 q 148 689 104 658 q 279 719 192 719 q 391 697 346 719 q 456 607 436 674 l 463 607 l 467 708 l 533 708 l 533 106 q 516 -127 533 -49 q 444 -241 499 -206 q 278 -276 390 -276 m 303 61 q 394 84 361 61 q 440 158 426 107 q 453 238 450 193 q 456 354 456 282 q 453 467 456 424 q 443 542 451 510 q 396 624 429 600 q 303 649 363 649 q 199 629 231 649 q 158 551 168 610 q 147 354 147 492 q 158 160 147 218 q 199 81 168 101 q 303 61 231 61 m 274 917 l 274 1014 l 353 1014 l 353 917 l 274 917 z "},"h":{"ha":632,"x_min":93,"x_max":542,"o":"m 464 422 q 454 572 464 526 q 416 633 444 618 q 325 649 388 649 q 220 615 253 649 q 179 525 188 581 q 171 367 171 469 l 171 0 l 93 0 l 93 1032 l 171 1032 l 171 621 l 178 621 q 233 692 194 664 q 353 719 272 719 q 474 692 433 719 q 528 609 514 665 q 542 447 542 553 l 542 0 l 464 0 l 464 422 z "},"ħ":{"ha":632,"x_min":15,"x_max":542,"o":"m 353 719 q 474 692 433 719 q 528 609 514 665 q 542 447 542 553 l 542 0 l 464 0 l 464 422 q 454 572 464 526 q 416 633 444 618 q 325 649 388 649 q 220 615 253 649 q 179 525 188 581 q 171 367 171 469 l 171 0 l 93 0 l 93 888 l 15 888 l 15 956 l 93 956 l 93 1032 l 171 1032 l 171 956 l 338 956 l 338 888 l 171 888 l 171 621 l 178 621 q 233 692 194 664 q 353 719 272 719 z "},"ĥ":{"ha":632,"x_min":-22,"x_max":542,"o":"m 464 422 q 454 572 464 526 q 416 633 444 618 q 325 649 388 649 q 220 615 253 649 q 179 525 188 581 q 171 367 171 469 l 171 0 l 93 0 l 93 1032 l 171 1032 l 171 621 l 178 621 q 233 692 194 664 q 353 719 272 719 q 474 692 433 719 q 528 609 514 665 q 542 447 542 553 l 542 0 l 464 0 l 464 422 m -22 1088 l -22 1094 l 86 1279 l 176 1279 l 285 1094 l 285 1088 l 229 1088 l 132 1228 l 35 1088 l -22 1088 z "},"ḥ":{"ha":632,"x_min":93,"x_max":542,"o":"m 464 422 q 454 572 464 526 q 416 633 444 618 q 325 649 388 649 q 220 615 253 649 q 179 525 188 581 q 171 367 171 469 l 171 0 l 93 0 l 93 1032 l 171 1032 l 171 621 l 178 621 q 233 692 194 664 q 353 719 272 719 q 474 692 433 719 q 528 609 514 665 q 542 447 542 553 l 542 0 l 464 0 l 464 422 m 269 -197 l 269 -86 l 361 -86 l 361 -197 l 269 -197 z "},"i":{"ha":264,"x_min":90,"x_max":174,"o":"m 90 928 l 90 1032 l 174 1032 l 174 928 l 90 928 m 93 0 l 93 708 l 171 708 l 171 0 l 93 0 z "},"ı":{"ha":264,"x_min":93,"x_max":171,"o":"m 93 0 l 93 708 l 171 708 l 171 0 l 93 0 z "},"í":{"ha":264,"x_min":93,"x_max":256,"o":"m 93 0 l 93 708 l 171 708 l 171 0 l 93 0 m 93 838 l 93 844 l 171 1032 l 256 1032 l 256 1025 l 150 838 l 93 838 z "},"ĭ":{"ha":264,"x_min":-21,"x_max":282,"o":"m 93 0 l 93 708 l 171 708 l 171 0 l 93 0 m 282 1032 q 273 923 282 963 q 231 860 264 883 q 129 836 199 836 q 28 860 60 836 q -12 922 -4 883 q -21 1032 -21 961 l 39 1032 q 44 947 39 975 q 67 904 49 919 q 129 889 86 889 q 193 904 174 889 q 217 947 213 919 q 222 1032 222 975 l 282 1032 z "},"ǐ":{"ha":264,"x_min":-22,"x_max":285,"o":"m 93 0 l 93 708 l 171 708 l 171 0 l 93 0 m 86 840 l -22 1024 l -22 1032 l 35 1032 l 132 890 l 229 1032 l 285 1032 l 285 1024 l 176 840 l 86 840 z "},"î":{"ha":264,"x_min":-21,"x_max":286,"o":"m 93 0 l 93 708 l 171 708 l 171 0 l 93 0 m -21 840 l -21 847 l 88 1032 l 178 1032 l 286 847 l 286 840 l 231 840 l 133 981 l 36 840 l -21 840 z "},"ȉ":{"ha":264,"x_min":-78,"x_max":256,"o":"m 93 0 l 93 708 l 171 708 l 171 0 l 93 0 m 72 846 l 21 846 l -78 1011 l -78 1018 l 0 1018 l 72 853 l 72 846 m 256 846 l 204 846 l 104 1011 l 104 1018 l 183 1018 l 256 853 l 256 846 z "},"ï":{"ha":264,"x_min":-29,"x_max":294,"o":"m 93 0 l 93 708 l 171 708 l 171 0 l 93 0 m -29 915 l -29 1013 l 50 1013 l 50 915 l -29 915 m 215 915 l 215 1013 l 294 1013 l 294 915 l 215 915 z "},"ị":{"ha":264,"x_min":79,"x_max":174,"o":"m 90 928 l 90 1032 l 174 1032 l 174 928 l 90 928 m 93 0 l 93 708 l 171 708 l 171 0 l 93 0 m 79 -197 l 79 -86 l 171 -86 l 171 -197 l 79 -197 z "},"ì":{"ha":264,"x_min":10,"x_max":172,"o":"m 93 0 l 93 708 l 171 708 l 171 0 l 93 0 m 115 838 l 10 1025 l 10 1032 l 96 1032 l 172 844 l 172 838 l 115 838 z "},"ỉ":{"ha":264,"x_min":-3,"x_max":265,"o":"m 93 0 l 93 708 l 171 708 l 171 0 l 93 0 m 74 861 q 85 904 74 892 q 126 926 96 917 l 147 932 q 194 953 182 943 q 206 990 206 964 q 199 1022 206 1011 q 174 1035 193 1032 q 114 1039 154 1039 q -3 1033 86 1039 l -3 1083 q 122 1093 68 1093 q 235 1072 204 1093 q 265 997 265 1051 q 254 936 265 957 q 203 901 243 915 l 182 894 q 136 875 144 882 q 128 847 128 868 l 74 847 l 74 861 z "},"ȋ":{"ha":264,"x_min":-21,"x_max":282,"o":"m 93 0 l 93 708 l 171 708 l 171 0 l 93 0 m -21 844 q -12 953 -21 914 q 30 1017 -3 993 q 132 1040 63 1040 q 233 1017 201 1040 q 274 954 265 993 q 282 844 282 915 l 222 844 q 217 929 222 901 q 194 972 213 957 q 132 988 175 988 q 68 972 88 988 q 44 929 49 957 q 39 844 39 901 l -21 844 z "},"ĳ":{"ha":528,"x_min":90,"x_max":438,"o":"m 90 928 l 90 1032 l 174 1032 l 174 928 l 90 928 m 93 0 l 93 708 l 171 708 l 171 0 l 93 0 m 354 928 l 354 1032 l 438 1032 l 438 928 l 354 928 m 258 -204 q 324 -197 304 -204 q 351 -175 344 -190 q 357 -126 357 -160 l 357 708 l 435 708 l 435 -104 q 418 -215 435 -181 q 366 -258 401 -249 q 258 -268 331 -268 l 258 -204 z "},"ī":{"ha":264,"x_min":-1,"x_max":264,"o":"m 93 0 l 93 708 l 171 708 l 171 0 l 93 0 m -1 957 l -1 1032 l 264 1032 l 264 957 l -1 957 z "},"į":{"ha":264,"x_min":15,"x_max":172,"o":"m 92 1014 l 172 1014 l 172 917 l 92 917 l 92 1014 m 85 -154 q 149 -214 85 -214 q 172 -212 161 -214 l 172 -269 q 132 -272 156 -272 q 43 -244 71 -272 q 15 -169 15 -215 q 39 -83 15 -128 q 101 0 63 -37 l 93 0 l 93 708 l 171 708 l 171 0 q 113 -72 140 -26 q 85 -154 85 -117 z "},"ĩ":{"ha":264,"x_min":-60,"x_max":321,"o":"m 93 0 l 93 708 l 171 708 l 171 0 l 93 0 m 321 1032 q 306 919 321 950 q 242 889 292 889 q 190 897 215 889 q 122 922 164 906 q 67 945 89 938 q 25 953 46 953 q -2 936 4 953 q -8 874 -8 919 l -60 874 q -44 985 -60 954 q 21 1017 -29 1017 q 76 1008 49 1017 q 143 981 103 999 q 198 960 178 967 q 238 953 218 953 q 264 969 258 953 q 269 1032 269 985 l 321 1032 z "},"j":{"ha":264,"x_min":-6,"x_max":174,"o":"m 90 928 l 90 1032 l 174 1032 l 174 928 l 90 928 m -6 -204 q 60 -197 40 -204 q 87 -175 81 -190 q 93 -126 93 -160 l 93 708 l 171 708 l 171 -104 q 154 -215 171 -181 q 102 -258 138 -249 q -6 -268 67 -268 l -6 -204 z "},"ȷ":{"ha":264,"x_min":-6,"x_max":171,"o":"m -6 -204 q 60 -197 40 -204 q 87 -175 81 -190 q 93 -126 93 -160 l 93 708 l 171 708 l 171 -104 q 154 -215 171 -181 q 102 -258 138 -249 q -6 -268 67 -268 l -6 -204 z "},"ĵ":{"ha":264,"x_min":-22,"x_max":285,"o":"m -6 -204 q 60 -197 40 -204 q 87 -175 81 -190 q 93 -126 93 -160 l 93 708 l 171 708 l 171 -104 q 154 -215 171 -181 q 102 -258 138 -249 q -6 -268 67 -268 l -6 -204 m -22 840 l -22 847 l 86 1032 l 176 1032 l 285 847 l 285 840 l 229 840 l 132 981 l 35 840 l -22 840 z "},"k":{"ha":558,"x_min":93,"x_max":529,"o":"m 440 0 l 254 324 l 171 324 l 171 0 l 93 0 l 93 1032 l 171 1032 l 171 394 l 254 394 l 438 708 l 524 708 l 317 365 l 529 0 l 440 0 z "},"ķ":{"ha":558,"x_min":93,"x_max":529,"o":"m 440 0 l 254 324 l 171 324 l 171 0 l 93 0 l 93 1032 l 171 1032 l 171 394 l 254 394 l 438 708 l 524 708 l 317 365 l 529 0 l 440 0 m 218 -300 q 274 -284 263 -300 q 286 -218 286 -268 l 286 -194 l 247 -194 l 247 -86 l 340 -86 l 340 -193 q 331 -285 340 -254 q 297 -328 322 -315 q 218 -340 271 -340 l 218 -300 z "},"ĸ":{"ha":558,"x_min":93,"x_max":529,"o":"m 440 0 l 254 324 l 171 324 l 171 0 l 93 0 l 93 708 l 171 708 l 171 394 l 254 394 l 438 708 l 524 708 l 317 365 l 529 0 l 440 0 z "},"l":{"ha":264,"x_min":93,"x_max":171,"o":"m 93 0 l 93 1032 l 171 1032 l 171 0 l 93 0 z "},"ĺ":{"ha":264,"x_min":93,"x_max":258,"o":"m 93 0 l 93 1032 l 171 1032 l 171 0 l 93 0 m 96 1085 l 96 1092 l 174 1279 l 258 1279 l 258 1272 l 153 1085 l 96 1085 z "},"ľ":{"ha":274,"x_min":93,"x_max":315,"o":"m 93 0 l 93 1032 l 171 1032 l 171 0 l 93 0 m 218 624 l 236 842 l 236 956 l 315 956 l 315 842 l 271 624 l 218 624 z "},"ļ":{"ha":264,"x_min":71,"x_max":193,"o":"m 93 0 l 93 1032 l 171 1032 l 171 0 l 93 0 m 71 -300 q 127 -284 115 -300 q 139 -218 139 -268 l 139 -194 l 100 -194 l 100 -86 l 193 -86 l 193 -193 q 184 -285 193 -254 q 149 -328 175 -315 q 71 -340 124 -340 l 71 -300 z "},"ŀ":{"ha":321,"x_min":93,"x_max":336,"o":"m 93 0 l 93 1032 l 171 1032 l 171 0 l 93 0 m 244 360 l 244 471 l 336 471 l 336 360 l 244 360 z "},"ǉ":{"ha":528,"x_min":93,"x_max":438,"o":"m 93 0 l 93 1032 l 171 1032 l 171 0 l 93 0 m 354 928 l 354 1032 l 438 1032 l 438 928 l 354 928 m 258 -204 q 324 -197 304 -204 q 351 -175 344 -190 q 357 -126 357 -160 l 357 708 l 435 708 l 435 -104 q 418 -215 435 -181 q 366 -258 401 -249 q 258 -268 331 -268 l 258 -204 z "},"ł":{"ha":271,"x_min":24,"x_max":247,"o":"m 94 0 l 94 449 l 24 424 l 24 494 l 94 519 l 94 1032 l 172 1032 l 172 547 l 247 574 l 247 503 l 172 476 l 172 0 l 94 0 z "},"m":{"ha":964,"x_min":93,"x_max":874,"o":"m 796 422 q 787 572 796 526 q 752 633 778 618 q 669 649 726 649 q 569 617 600 649 q 530 530 538 585 q 522 367 522 475 l 522 0 l 444 0 l 444 422 q 435 572 444 526 q 401 633 426 618 q 318 649 376 649 q 218 615 250 649 q 178 525 186 581 q 171 367 171 469 l 171 0 l 93 0 l 93 708 l 160 708 l 165 607 l 172 607 q 226 690 188 660 q 343 719 265 719 q 460 694 422 719 q 511 607 497 668 l 518 607 q 693 719 551 719 q 808 692 769 719 q 860 608 846 665 q 874 447 874 551 l 874 0 l 796 0 l 796 422 z "},"n":{"ha":632,"x_min":93,"x_max":542,"o":"m 464 422 q 454 572 464 526 q 416 633 444 618 q 325 649 388 649 q 220 615 253 649 q 179 525 188 581 q 171 367 171 469 l 171 0 l 93 0 l 93 708 l 160 708 l 165 607 l 172 607 q 229 690 189 660 q 353 719 269 719 q 474 692 433 719 q 528 608 514 665 q 542 446 542 551 l 542 0 l 464 0 l 464 422 z "},"ń":{"ha":632,"x_min":93,"x_max":542,"o":"m 464 422 q 454 572 464 526 q 416 633 444 618 q 325 649 388 649 q 220 615 253 649 q 179 525 188 581 q 171 367 171 469 l 171 0 l 93 0 l 93 708 l 160 708 l 165 607 l 172 607 q 229 690 189 660 q 353 719 269 719 q 474 692 433 719 q 528 608 514 665 q 542 446 542 551 l 542 0 l 464 0 l 464 422 m 279 838 l 279 844 l 357 1032 l 442 1032 l 442 1025 l 336 838 l 279 838 z "},"ŉ":{"ha":664,"x_min":7,"x_max":574,"o":"m 7 821 q 52 828 38 821 q 71 853 67 836 q 75 908 75 871 l 75 932 l 38 932 l 38 1032 l 129 1032 l 129 933 q 120 838 129 869 q 85 793 111 806 q 7 781 60 781 l 7 821 m 496 422 q 486 572 496 526 q 448 633 476 618 q 357 649 419 649 q 252 615 285 649 q 211 525 219 581 q 203 367 203 469 l 203 0 l 125 0 l 125 708 l 192 708 l 197 607 l 204 607 q 261 690 221 660 q 385 719 301 719 q 506 692 465 719 q 560 608 546 665 q 574 446 574 551 l 574 0 l 496 0 l 496 422 z "},"ň":{"ha":632,"x_min":93,"x_max":542,"o":"m 464 422 q 454 572 464 526 q 416 633 444 618 q 325 649 388 649 q 220 615 253 649 q 179 525 188 581 q 171 367 171 469 l 171 0 l 93 0 l 93 708 l 160 708 l 165 607 l 172 607 q 229 690 189 660 q 353 719 269 719 q 474 692 433 719 q 528 608 514 665 q 542 446 542 551 l 542 0 l 464 0 l 464 422 m 269 840 l 161 1024 l 161 1032 l 218 1032 l 315 890 l 413 1032 l 468 1032 l 468 1024 l 360 840 l 269 840 z "},"ņ":{"ha":632,"x_min":93,"x_max":542,"o":"m 464 422 q 454 572 464 526 q 416 633 444 618 q 325 649 388 649 q 220 615 253 649 q 179 525 188 581 q 171 367 171 469 l 171 0 l 93 0 l 93 708 l 160 708 l 165 607 l 172 607 q 229 690 189 660 q 353 719 269 719 q 474 692 433 719 q 528 608 514 665 q 542 446 542 551 l 542 0 l 464 0 l 464 422 m 254 -300 q 310 -284 299 -300 q 322 -218 322 -268 l 322 -194 l 283 -194 l 283 -86 l 376 -86 l 376 -193 q 367 -285 376 -254 q 333 -328 358 -315 q 254 -340 307 -340 l 254 -300 z "},"ṅ":{"ha":632,"x_min":93,"x_max":542,"o":"m 464 422 q 454 572 464 526 q 416 633 444 618 q 325 649 388 649 q 220 615 253 649 q 179 525 188 581 q 171 367 171 469 l 171 0 l 93 0 l 93 708 l 160 708 l 165 607 l 172 607 q 229 690 189 660 q 353 719 269 719 q 474 692 433 719 q 528 608 514 665 q 542 446 542 551 l 542 0 l 464 0 l 464 422 m 275 917 l 275 1014 l 354 1014 l 354 917 l 275 917 z "},"ŋ":{"ha":632,"x_min":93,"x_max":542,"o":"m 353 719 q 474 692 433 719 q 528 608 514 665 q 542 446 542 551 l 542 -104 q 525 -215 542 -181 q 473 -258 508 -249 q 365 -268 438 -268 l 365 -204 q 431 -197 411 -204 q 458 -175 451 -190 q 464 -126 464 -160 l 464 422 q 454 572 464 526 q 416 633 444 618 q 325 649 388 649 q 220 615 253 649 q 179 525 188 581 q 171 367 171 469 l 171 0 l 93 0 l 93 708 l 160 708 l 165 607 l 172 607 q 229 690 189 660 q 353 719 269 719 z "},"ɲ":{"ha":632,"x_min":-6,"x_max":542,"o":"m -6 -204 q 60 -197 40 -204 q 87 -175 81 -190 q 93 -126 93 -160 l 93 708 l 160 708 l 165 607 l 172 607 q 229 690 189 660 q 353 719 269 719 q 474 692 433 719 q 528 608 514 665 q 542 446 542 551 l 542 0 l 464 0 l 464 422 q 454 572 464 526 q 416 633 444 618 q 325 649 388 649 q 220 615 253 649 q 179 526 188 581 q 171 368 171 471 l 171 -104 q 154 -215 171 -181 q 102 -258 138 -249 q -6 -268 67 -268 l -6 -204 z "},"ǌ":{"ha":896,"x_min":93,"x_max":806,"o":"m 464 422 q 454 572 464 526 q 416 633 444 618 q 325 649 388 649 q 220 615 253 649 q 179 525 188 581 q 171 367 171 469 l 171 0 l 93 0 l 93 708 l 160 708 l 165 607 l 172 607 q 229 690 189 660 q 353 719 269 719 q 474 692 433 719 q 528 608 514 665 q 542 446 542 551 l 542 0 l 464 0 l 464 422 m 722 928 l 722 1032 l 806 1032 l 806 928 l 722 928 m 626 -204 q 692 -197 672 -204 q 719 -175 713 -190 q 725 -126 725 -160 l 725 708 l 803 708 l 803 -104 q 786 -215 803 -181 q 734 -258 769 -249 q 626 -268 699 -268 l 626 -204 z "},"ñ":{"ha":632,"x_min":93,"x_max":542,"o":"m 464 422 q 454 572 464 526 q 416 633 444 618 q 325 649 388 649 q 220 615 253 649 q 179 525 188 581 q 171 367 171 469 l 171 0 l 93 0 l 93 708 l 160 708 l 165 607 l 172 607 q 229 690 189 660 q 353 719 269 719 q 474 692 433 719 q 528 608 514 665 q 542 446 542 551 l 542 0 l 464 0 l 464 422 m 511 1032 q 497 919 511 950 q 432 889 482 889 q 380 897 406 889 q 313 922 354 906 q 258 945 279 938 q 215 953 236 953 q 188 936 194 953 q 182 874 182 919 l 131 874 q 146 985 131 954 q 211 1017 161 1017 q 266 1008 239 1017 q 333 981 293 999 q 388 960 368 967 q 428 953 408 953 q 454 969 449 953 q 460 1032 460 985 l 511 1032 z "},"o":{"ha":613,"x_min":69,"x_max":542,"o":"m 306 -11 q 147 18 194 -11 q 84 119 99 47 q 69 353 69 190 q 84 589 69 517 q 147 690 99 661 q 306 719 194 719 q 465 690 417 719 q 528 589 514 661 q 542 353 542 517 q 528 119 542 190 q 465 18 514 47 q 306 -11 417 -11 m 306 57 q 416 78 385 57 q 456 155 447 99 q 464 353 464 211 q 456 551 464 494 q 415 630 447 608 q 306 651 383 651 q 196 630 228 651 q 156 551 164 608 q 147 353 147 494 q 156 155 147 211 q 195 78 164 99 q 306 57 226 57 z "},"ó":{"ha":613,"x_min":69,"x_max":542,"o":"m 306 -11 q 147 18 194 -11 q 84 119 99 47 q 69 353 69 190 q 84 589 69 517 q 147 690 99 661 q 306 719 194 719 q 465 690 417 719 q 528 589 514 661 q 542 353 542 517 q 528 119 542 190 q 465 18 514 47 q 306 -11 417 -11 m 306 57 q 416 78 385 57 q 456 155 447 99 q 464 353 464 211 q 456 551 464 494 q 415 630 447 608 q 306 651 383 651 q 196 630 228 651 q 156 551 164 608 q 147 353 147 494 q 156 155 147 211 q 195 78 164 99 q 306 57 226 57 m 263 838 l 263 844 l 340 1032 l 425 1032 l 425 1025 l 319 838 l 263 838 z "},"ŏ":{"ha":613,"x_min":69,"x_max":542,"o":"m 306 -11 q 147 18 194 -11 q 84 119 99 47 q 69 353 69 190 q 84 589 69 517 q 147 690 99 661 q 306 719 194 719 q 465 690 417 719 q 528 589 514 661 q 542 353 542 517 q 528 119 542 190 q 465 18 514 47 q 306 -11 417 -11 m 306 57 q 416 78 385 57 q 456 155 447 99 q 464 353 464 211 q 456 551 464 494 q 415 630 447 608 q 306 651 383 651 q 196 630 228 651 q 156 551 164 608 q 147 353 147 494 q 156 155 147 211 q 195 78 164 99 q 306 57 226 57 m 456 1032 q 447 923 456 963 q 405 860 438 883 q 303 836 372 836 q 201 860 233 836 q 161 922 169 883 q 153 1032 153 961 l 213 1032 q 217 947 213 975 q 241 904 222 919 q 303 889 260 889 q 367 904 347 889 q 391 947 386 919 q 396 1032 396 975 l 456 1032 z "},"ǒ":{"ha":613,"x_min":69,"x_max":542,"o":"m 306 -11 q 147 18 194 -11 q 84 119 99 47 q 69 353 69 190 q 84 589 69 517 q 147 690 99 661 q 306 719 194 719 q 465 690 417 719 q 528 589 514 661 q 542 353 542 517 q 528 119 542 190 q 465 18 514 47 q 306 -11 417 -11 m 306 57 q 416 78 385 57 q 456 155 447 99 q 464 353 464 211 q 456 551 464 494 q 415 630 447 608 q 306 651 383 651 q 196 630 228 651 q 156 551 164 608 q 147 353 147 494 q 156 155 147 211 q 195 78 164 99 q 306 57 226 57 m 260 840 l 151 1024 l 151 1032 l 208 1032 l 306 890 l 403 1032 l 458 1032 l 458 1024 l 350 840 l 260 840 z "},"ô":{"ha":613,"x_min":69,"x_max":542,"o":"m 306 -11 q 147 18 194 -11 q 84 119 99 47 q 69 353 69 190 q 84 589 69 517 q 147 690 99 661 q 306 719 194 719 q 465 690 417 719 q 528 589 514 661 q 542 353 542 517 q 528 119 542 190 q 465 18 514 47 q 306 -11 417 -11 m 306 57 q 416 78 385 57 q 456 155 447 99 q 464 353 464 211 q 456 551 464 494 q 415 630 447 608 q 306 651 383 651 q 196 630 228 651 q 156 551 164 608 q 147 353 147 494 q 156 155 147 211 q 195 78 164 99 q 306 57 226 57 m 154 840 l 154 847 l 263 1032 l 353 1032 l 461 847 l 461 840 l 406 840 l 308 981 l 211 840 l 154 840 z "},"ố":{"ha":613,"x_min":69,"x_max":542,"o":"m 306 -11 q 147 18 194 -11 q 84 119 99 47 q 69 353 69 190 q 84 589 69 517 q 147 690 99 661 q 306 719 194 719 q 465 690 417 719 q 528 589 514 661 q 542 353 542 517 q 528 119 542 190 q 465 18 514 47 q 306 -11 417 -11 m 306 57 q 416 78 385 57 q 456 155 447 99 q 464 353 464 211 q 456 551 464 494 q 415 630 447 608 q 306 651 383 651 q 196 630 228 651 q 156 551 164 608 q 147 353 147 494 q 156 155 147 211 q 195 78 164 99 q 306 57 226 57 m 150 840 l 150 847 l 258 1032 l 349 1032 l 457 847 l 457 840 l 401 840 l 304 981 l 207 840 l 150 840 m 376 1042 l 376 1049 l 454 1236 l 539 1236 l 539 1229 l 433 1042 l 376 1042 z "},"ộ":{"ha":613,"x_min":69,"x_max":542,"o":"m 306 -11 q 147 18 194 -11 q 84 119 99 47 q 69 353 69 190 q 84 589 69 517 q 147 690 99 661 q 306 719 194 719 q 465 690 417 719 q 528 589 514 661 q 542 353 542 517 q 528 119 542 190 q 465 18 514 47 q 306 -11 417 -11 m 306 57 q 416 78 385 57 q 456 155 447 99 q 464 353 464 211 q 456 551 464 494 q 415 630 447 608 q 306 651 383 651 q 196 630 228 651 q 156 551 164 608 q 147 353 147 494 q 156 155 147 211 q 195 78 164 99 q 306 57 226 57 m 260 -197 l 260 -86 l 351 -86 l 351 -197 l 260 -197 m 151 840 l 151 847 l 260 1032 l 350 1032 l 458 847 l 458 840 l 403 840 l 306 981 l 208 840 l 151 840 z "},"ồ":{"ha":613,"x_min":69,"x_max":542,"o":"m 306 -11 q 147 18 194 -11 q 84 119 99 47 q 69 353 69 190 q 84 589 69 517 q 147 690 99 661 q 306 719 194 719 q 465 690 417 719 q 528 589 514 661 q 542 353 542 517 q 528 119 542 190 q 465 18 514 47 q 306 -11 417 -11 m 306 57 q 416 78 385 57 q 456 155 447 99 q 464 353 464 211 q 456 551 464 494 q 415 630 447 608 q 306 651 383 651 q 196 630 228 651 q 156 551 164 608 q 147 353 147 494 q 156 155 147 211 q 195 78 164 99 q 306 57 226 57 m 150 840 l 150 847 l 258 1032 l 349 1032 l 457 847 l 457 840 l 401 840 l 304 981 l 207 840 l 150 840 m 397 1042 l 292 1229 l 292 1236 l 378 1236 l 454 1049 l 454 1042 l 397 1042 z "},"ổ":{"ha":613,"x_min":69,"x_max":549,"o":"m 306 -11 q 147 18 194 -11 q 84 119 99 47 q 69 353 69 190 q 84 589 69 517 q 147 690 99 661 q 306 719 194 719 q 465 690 417 719 q 528 589 514 661 q 542 353 542 517 q 528 119 542 190 q 465 18 514 47 q 306 -11 417 -11 m 306 57 q 416 78 385 57 q 456 155 447 99 q 464 353 464 211 q 456 551 464 494 q 415 630 447 608 q 306 651 383 651 q 196 630 228 651 q 156 551 164 608 q 147 353 147 494 q 156 155 147 211 q 195 78 164 99 q 306 57 226 57 m 151 840 l 151 847 l 260 1032 l 350 1032 l 458 847 l 458 840 l 403 840 l 306 981 l 208 840 l 151 840 m 357 1053 q 368 1096 357 1083 q 410 1118 379 1108 l 431 1124 q 477 1145 465 1135 q 489 1182 489 1156 q 483 1213 489 1203 q 457 1227 476 1224 q 397 1231 438 1231 q 281 1225 369 1231 l 281 1275 q 406 1285 351 1285 q 518 1264 488 1285 q 549 1189 549 1243 q 538 1128 549 1149 q 486 1093 526 1107 l 465 1086 q 419 1067 428 1074 q 411 1039 411 1060 l 357 1039 l 357 1053 z "},"ỗ":{"ha":613,"x_min":69,"x_max":542,"o":"m 306 -11 q 147 18 194 -11 q 84 119 99 47 q 69 353 69 190 q 84 589 69 517 q 147 690 99 661 q 306 719 194 719 q 465 690 417 719 q 528 589 514 661 q 542 353 542 517 q 528 119 542 190 q 465 18 514 47 q 306 -11 417 -11 m 306 57 q 416 78 385 57 q 456 155 447 99 q 464 353 464 211 q 456 551 464 494 q 415 630 447 608 q 306 651 383 651 q 196 630 228 651 q 156 551 164 608 q 147 353 147 494 q 156 155 147 211 q 195 78 164 99 q 306 57 226 57 m 149 840 l 149 847 l 257 1032 l 347 1032 l 456 847 l 456 840 l 400 840 l 303 981 l 206 840 l 149 840 m 494 1272 q 480 1160 494 1190 q 415 1129 465 1129 q 363 1138 389 1129 q 296 1163 338 1146 q 241 1185 263 1178 q 199 1193 219 1193 q 172 1176 178 1193 q 165 1114 165 1160 l 114 1114 q 129 1226 114 1194 q 194 1257 144 1257 q 249 1248 222 1257 q 317 1221 276 1239 q 372 1200 351 1207 q 411 1193 392 1193 q 438 1209 432 1193 q 443 1272 443 1225 l 494 1272 z "},"ȍ":{"ha":613,"x_min":69,"x_max":542,"o":"m 306 -11 q 147 18 194 -11 q 84 119 99 47 q 69 353 69 190 q 84 589 69 517 q 147 690 99 661 q 306 719 194 719 q 465 690 417 719 q 528 589 514 661 q 542 353 542 517 q 528 119 542 190 q 465 18 514 47 q 306 -11 417 -11 m 306 57 q 416 78 385 57 q 456 155 447 99 q 464 353 464 211 q 456 551 464 494 q 415 630 447 608 q 306 651 383 651 q 196 630 228 651 q 156 551 164 608 q 147 353 147 494 q 156 155 147 211 q 195 78 164 99 q 306 57 226 57 m 246 846 l 194 846 l 96 1011 l 96 1018 l 174 1018 l 246 853 l 246 846 m 429 846 l 378 846 l 278 1011 l 278 1018 l 357 1018 l 429 853 l 429 846 z "},"ö":{"ha":613,"x_min":69,"x_max":542,"o":"m 306 -11 q 147 18 194 -11 q 84 119 99 47 q 69 353 69 190 q 84 589 69 517 q 147 690 99 661 q 306 719 194 719 q 465 690 417 719 q 528 589 514 661 q 542 353 542 517 q 528 119 542 190 q 465 18 514 47 q 306 -11 417 -11 m 306 57 q 416 78 385 57 q 456 155 447 99 q 464 353 464 211 q 456 551 464 494 q 415 630 447 608 q 306 651 383 651 q 196 630 228 651 q 156 551 164 608 q 147 353 147 494 q 156 155 147 211 q 195 78 164 99 q 306 57 226 57 m 146 915 l 146 1013 l 225 1013 l 225 915 l 146 915 m 390 915 l 390 1013 l 469 1013 l 469 915 l 390 915 z "},"ọ":{"ha":613,"x_min":69,"x_max":542,"o":"m 306 -11 q 147 18 194 -11 q 84 119 99 47 q 69 353 69 190 q 84 589 69 517 q 147 690 99 661 q 306 719 194 719 q 465 690 417 719 q 528 589 514 661 q 542 353 542 517 q 528 119 542 190 q 465 18 514 47 q 306 -11 417 -11 m 306 57 q 416 78 385 57 q 456 155 447 99 q 464 353 464 211 q 456 551 464 494 q 415 630 447 608 q 306 651 383 651 q 196 630 228 651 q 156 551 164 608 q 147 353 147 494 q 156 155 147 211 q 195 78 164 99 q 306 57 226 57 m 260 -197 l 260 -86 l 351 -86 l 351 -197 l 260 -197 z "},"ò":{"ha":613,"x_min":69,"x_max":542,"o":"m 306 -11 q 147 18 194 -11 q 84 119 99 47 q 69 353 69 190 q 84 589 69 517 q 147 690 99 661 q 306 719 194 719 q 465 690 417 719 q 528 589 514 661 q 542 353 542 517 q 528 119 542 190 q 465 18 514 47 q 306 -11 417 -11 m 306 57 q 416 78 385 57 q 456 155 447 99 q 464 353 464 211 q 456 551 464 494 q 415 630 447 608 q 306 651 383 651 q 196 630 228 651 q 156 551 164 608 q 147 353 147 494 q 156 155 147 211 q 195 78 164 99 q 306 57 226 57 m 289 838 l 183 1025 l 183 1032 l 269 1032 l 346 844 l 346 838 l 289 838 z "},"ỏ":{"ha":613,"x_min":69,"x_max":542,"o":"m 306 -11 q 147 18 194 -11 q 84 119 99 47 q 69 353 69 190 q 84 589 69 517 q 147 690 99 661 q 306 719 194 719 q 465 690 417 719 q 528 589 514 661 q 542 353 542 517 q 528 119 542 190 q 465 18 514 47 q 306 -11 417 -11 m 306 57 q 416 78 385 57 q 456 155 447 99 q 464 353 464 211 q 456 551 464 494 q 415 630 447 608 q 306 651 383 651 q 196 630 228 651 q 156 551 164 608 q 147 353 147 494 q 156 155 147 211 q 195 78 164 99 q 306 57 226 57 m 247 861 q 258 904 247 892 q 300 926 269 917 l 321 932 q 367 953 356 943 q 379 990 379 964 q 373 1022 379 1011 q 347 1035 367 1032 q 288 1039 328 1039 q 171 1033 260 1039 l 171 1083 q 296 1093 242 1093 q 408 1072 378 1093 q 439 997 439 1051 q 428 936 439 957 q 376 901 417 915 l 356 894 q 310 875 318 882 q 301 847 301 868 l 247 847 l 247 861 z "},"ơ":{"ha":613,"x_min":69,"x_max":613,"o":"m 613 843 l 613 797 q 603 715 613 743 q 570 675 594 688 q 497 661 546 663 q 533 556 525 625 q 542 353 542 488 q 528 119 542 190 q 465 18 514 47 q 306 -11 417 -11 q 147 18 194 -11 q 84 119 99 47 q 69 353 69 190 q 84 589 69 517 q 147 690 99 661 q 306 719 194 719 q 421 708 381 719 l 481 708 q 540 724 526 708 q 553 785 553 740 l 553 843 l 613 843 m 306 57 q 416 78 385 57 q 456 155 447 99 q 464 353 464 211 q 456 551 464 494 q 415 630 447 608 q 306 651 383 651 q 196 630 228 651 q 156 551 164 608 q 147 353 147 494 q 156 155 147 211 q 195 78 164 99 q 306 57 226 57 z "},"ớ":{"ha":613,"x_min":69,"x_max":613,"o":"m 613 843 l 613 797 q 603 715 613 743 q 570 675 594 688 q 497 661 546 663 q 533 556 525 625 q 542 353 542 488 q 528 119 542 190 q 465 18 514 47 q 306 -11 417 -11 q 147 18 194 -11 q 84 119 99 47 q 69 353 69 190 q 84 589 69 517 q 147 690 99 661 q 306 719 194 719 q 421 708 381 719 l 481 708 q 540 724 526 708 q 553 785 553 740 l 553 843 l 613 843 m 306 57 q 416 78 385 57 q 456 155 447 99 q 464 353 464 211 q 456 551 464 494 q 415 630 447 608 q 306 651 383 651 q 196 630 228 651 q 156 551 164 608 q 147 353 147 494 q 156 155 147 211 q 195 78 164 99 q 306 57 226 57 m 269 838 l 269 844 l 347 1032 l 432 1032 l 432 1025 l 326 838 l 269 838 z "},"ợ":{"ha":613,"x_min":69,"x_max":613,"o":"m 613 843 l 613 797 q 603 715 613 743 q 570 675 594 688 q 497 661 546 663 q 533 556 525 625 q 542 353 542 488 q 528 119 542 190 q 465 18 514 47 q 306 -11 417 -11 q 147 18 194 -11 q 84 119 99 47 q 69 353 69 190 q 84 589 69 517 q 147 690 99 661 q 306 719 194 719 q 421 708 381 719 l 481 708 q 540 724 526 708 q 553 785 553 740 l 553 843 l 613 843 m 306 57 q 416 78 385 57 q 456 155 447 99 q 464 353 464 211 q 456 551 464 494 q 415 630 447 608 q 306 651 383 651 q 196 630 228 651 q 156 551 164 608 q 147 353 147 494 q 156 155 147 211 q 195 78 164 99 q 306 57 226 57 m 260 -197 l 260 -86 l 351 -86 l 351 -197 l 260 -197 z "},"ờ":{"ha":613,"x_min":69,"x_max":613,"o":"m 613 843 l 613 797 q 603 715 613 743 q 570 675 594 688 q 497 661 546 663 q 533 556 525 625 q 542 353 542 488 q 528 119 542 190 q 465 18 514 47 q 306 -11 417 -11 q 147 18 194 -11 q 84 119 99 47 q 69 353 69 190 q 84 589 69 517 q 147 690 99 661 q 306 719 194 719 q 421 708 381 719 l 481 708 q 540 724 526 708 q 553 785 553 740 l 553 843 l 613 843 m 306 57 q 416 78 385 57 q 456 155 447 99 q 464 353 464 211 q 456 551 464 494 q 415 630 447 608 q 306 651 383 651 q 196 630 228 651 q 156 551 164 608 q 147 353 147 494 q 156 155 147 211 q 195 78 164 99 q 306 57 226 57 m 281 838 l 175 1025 l 175 1032 l 261 1032 l 338 844 l 338 838 l 281 838 z "},"ở":{"ha":613,"x_min":69,"x_max":613,"o":"m 613 843 l 613 797 q 603 715 613 743 q 570 675 594 688 q 497 661 546 663 q 533 556 525 625 q 542 353 542 488 q 528 119 542 190 q 465 18 514 47 q 306 -11 417 -11 q 147 18 194 -11 q 84 119 99 47 q 69 353 69 190 q 84 589 69 517 q 147 690 99 661 q 306 719 194 719 q 421 708 381 719 l 481 708 q 540 724 526 708 q 553 785 553 740 l 553 843 l 613 843 m 306 57 q 416 78 385 57 q 456 155 447 99 q 464 353 464 211 q 456 551 464 494 q 415 630 447 608 q 306 651 383 651 q 196 630 228 651 q 156 551 164 608 q 147 353 147 494 q 156 155 147 211 q 195 78 164 99 q 306 57 226 57 m 247 861 q 258 904 247 892 q 300 926 269 917 l 321 932 q 367 953 356 943 q 379 990 379 964 q 373 1022 379 1011 q 347 1035 367 1032 q 288 1039 328 1039 q 171 1033 260 1039 l 171 1083 q 296 1093 242 1093 q 408 1072 378 1093 q 439 997 439 1051 q 428 936 439 957 q 376 901 417 915 l 356 894 q 310 875 318 882 q 301 847 301 868 l 247 847 l 247 861 z "},"ỡ":{"ha":613,"x_min":69,"x_max":613,"o":"m 613 843 l 613 797 q 603 715 613 743 q 570 675 594 688 q 497 661 546 663 q 533 556 525 625 q 542 353 542 488 q 528 119 542 190 q 465 18 514 47 q 306 -11 417 -11 q 147 18 194 -11 q 84 119 99 47 q 69 353 69 190 q 84 589 69 517 q 147 690 99 661 q 306 719 194 719 q 421 708 381 719 l 481 708 q 540 724 526 708 q 553 785 553 740 l 553 843 l 613 843 m 306 57 q 416 78 385 57 q 456 155 447 99 q 464 353 464 211 q 456 551 464 494 q 415 630 447 608 q 306 651 383 651 q 196 630 228 651 q 156 551 164 608 q 147 353 147 494 q 156 155 147 211 q 195 78 164 99 q 306 57 226 57 m 494 1032 q 480 919 494 950 q 415 889 465 889 q 363 897 389 889 q 296 922 338 906 q 241 945 263 938 q 199 953 219 953 q 172 936 178 953 q 165 874 165 919 l 114 874 q 129 985 114 954 q 194 1017 144 1017 q 249 1008 222 1017 q 317 981 276 999 q 372 960 351 967 q 411 953 392 953 q 438 969 432 953 q 443 1032 443 985 l 494 1032 z "},"ő":{"ha":613,"x_min":69,"x_max":542,"o":"m 306 -11 q 147 18 194 -11 q 84 119 99 47 q 69 353 69 190 q 84 589 69 517 q 147 690 99 661 q 306 719 194 719 q 465 690 417 719 q 528 589 514 661 q 542 353 542 517 q 528 119 542 190 q 465 18 514 47 q 306 -11 417 -11 m 306 57 q 416 78 385 57 q 456 155 447 99 q 464 353 464 211 q 456 551 464 494 q 415 630 447 608 q 306 651 383 651 q 196 630 228 651 q 156 551 164 608 q 147 353 147 494 q 156 155 147 211 q 195 78 164 99 q 306 57 226 57 m 199 846 l 199 853 l 271 1018 l 350 1018 l 350 1011 l 250 846 l 199 846 m 382 846 l 382 853 l 454 1018 l 532 1018 l 532 1011 l 433 846 l 382 846 z "},"ȏ":{"ha":613,"x_min":69,"x_max":542,"o":"m 306 -11 q 147 18 194 -11 q 84 119 99 47 q 69 353 69 190 q 84 589 69 517 q 147 690 99 661 q 306 719 194 719 q 465 690 417 719 q 528 589 514 661 q 542 353 542 517 q 528 119 542 190 q 465 18 514 47 q 306 -11 417 -11 m 306 57 q 416 78 385 57 q 456 155 447 99 q 464 353 464 211 q 456 551 464 494 q 415 630 447 608 q 306 651 383 651 q 196 630 228 651 q 156 551 164 608 q 147 353 147 494 q 156 155 147 211 q 195 78 164 99 q 306 57 226 57 m 153 844 q 162 953 153 914 q 203 1017 171 993 q 306 1040 236 1040 q 407 1017 375 1040 q 447 954 439 993 q 456 844 456 915 l 396 844 q 391 929 396 901 q 367 972 386 957 q 306 988 349 988 q 242 972 261 988 q 217 929 222 957 q 213 844 213 901 l 153 844 z "},"ō":{"ha":613,"x_min":69,"x_max":542,"o":"m 306 -11 q 147 18 194 -11 q 84 119 99 47 q 69 353 69 190 q 84 589 69 517 q 147 690 99 661 q 306 719 194 719 q 465 690 417 719 q 528 589 514 661 q 542 353 542 517 q 528 119 542 190 q 465 18 514 47 q 306 -11 417 -11 m 306 57 q 416 78 385 57 q 456 155 447 99 q 464 353 464 211 q 456 551 464 494 q 415 630 447 608 q 306 651 383 651 q 196 630 228 651 q 156 551 164 608 q 147 353 147 494 q 156 155 147 211 q 195 78 164 99 q 306 57 226 57 m 172 957 l 172 1032 l 438 1032 l 438 957 l 172 957 z "},"ǫ":{"ha":613,"x_min":69,"x_max":542,"o":"m 306 719 q 465 690 417 719 q 528 589 514 661 q 542 353 542 517 q 529 124 542 194 q 472 22 517 53 q 406 -56 436 -3 q 375 -154 375 -110 q 439 -214 375 -214 q 463 -212 451 -214 l 463 -269 q 421 -272 438 -272 q 333 -244 360 -272 q 306 -169 306 -217 q 325 -88 306 -131 q 378 -8 344 -46 q 306 -11 336 -11 q 147 18 194 -11 q 84 119 99 47 q 69 353 69 190 q 84 589 69 517 q 147 690 99 661 q 306 719 194 719 m 306 57 q 416 78 385 57 q 456 155 447 99 q 464 353 464 211 q 456 551 464 494 q 415 630 447 608 q 306 651 383 651 q 196 630 228 651 q 156 551 164 608 q 147 353 147 494 q 156 155 147 211 q 195 78 164 99 q 306 57 226 57 z "},"ø":{"ha":613,"x_min":69,"x_max":542,"o":"m 489 671 q 532 567 522 636 q 542 353 542 497 q 528 119 542 190 q 465 18 514 47 q 306 -11 417 -11 q 178 4 222 -11 l 140 -76 l 69 -76 l 122 38 q 79 142 89 72 q 69 353 69 211 q 84 589 69 517 q 147 690 99 661 q 306 719 194 719 q 433 704 389 719 l 471 785 l 542 785 l 489 671 m 147 353 q 149 199 147 247 q 161 121 151 151 l 403 639 q 306 651 374 651 q 196 630 228 651 q 156 551 164 608 q 147 353 147 494 m 464 353 q 461 508 464 458 q 449 586 458 557 l 208 68 q 306 57 238 57 q 416 78 385 57 q 456 155 447 99 q 464 353 464 211 z "},"ǿ":{"ha":613,"x_min":69,"x_max":542,"o":"m 489 671 q 532 567 522 636 q 542 353 542 497 q 528 119 542 190 q 465 18 514 47 q 306 -11 417 -11 q 178 4 222 -11 l 140 -76 l 69 -76 l 122 38 q 79 142 89 72 q 69 353 69 211 q 84 589 69 517 q 147 690 99 661 q 306 719 194 719 q 433 704 389 719 l 471 785 l 542 785 l 489 671 m 147 353 q 149 199 147 247 q 161 121 151 151 l 403 639 q 306 651 374 651 q 196 630 228 651 q 156 551 164 608 q 147 353 147 494 m 464 353 q 461 508 464 458 q 449 586 458 557 l 208 68 q 306 57 238 57 q 416 78 385 57 q 456 155 447 99 q 464 353 464 211 m 269 838 l 269 844 l 347 1032 l 432 1032 l 432 1025 l 326 838 l 269 838 z "},"õ":{"ha":613,"x_min":69,"x_max":542,"o":"m 306 -11 q 147 18 194 -11 q 84 119 99 47 q 69 353 69 190 q 84 589 69 517 q 147 690 99 661 q 306 719 194 719 q 465 690 417 719 q 528 589 514 661 q 542 353 542 517 q 528 119 542 190 q 465 18 514 47 q 306 -11 417 -11 m 306 57 q 416 78 385 57 q 456 155 447 99 q 464 353 464 211 q 456 551 464 494 q 415 630 447 608 q 306 651 383 651 q 196 630 228 651 q 156 551 164 608 q 147 353 147 494 q 156 155 147 211 q 195 78 164 99 q 306 57 226 57 m 496 1032 q 481 919 496 950 q 417 889 467 889 q 365 897 390 889 q 297 922 339 906 q 242 945 264 938 q 200 953 221 953 q 173 936 179 953 q 167 874 167 919 l 115 874 q 131 985 115 954 q 196 1017 146 1017 q 251 1008 224 1017 q 318 981 278 999 q 373 960 353 967 q 413 953 393 953 q 439 969 433 953 q 444 1032 444 985 l 496 1032 z "},"œ":{"ha":990,"x_min":69,"x_max":919,"o":"m 919 328 l 543 328 q 554 153 543 207 q 601 78 565 100 q 721 57 638 57 q 813 62 763 57 q 900 75 863 67 l 900 8 q 814 -6 868 0 q 708 -11 760 -11 q 577 10 625 -11 q 504 81 529 31 q 438 9 483 29 q 306 -11 392 -11 q 147 18 194 -11 q 84 119 99 47 q 69 353 69 190 q 84 589 69 517 q 147 690 99 661 q 306 719 194 719 q 436 700 390 719 q 503 632 482 681 q 574 699 526 678 q 704 719 621 719 q 851 687 806 719 q 908 583 896 654 q 919 354 919 511 l 919 328 m 306 57 q 416 78 385 57 q 456 155 447 99 q 464 353 464 211 q 456 551 464 494 q 415 630 447 608 q 306 651 383 651 q 196 630 228 651 q 156 551 164 608 q 147 353 147 494 q 156 155 147 211 q 195 78 164 99 q 306 57 226 57 m 701 651 q 596 633 628 651 q 553 562 564 614 q 543 390 543 510 l 844 390 l 844 411 q 832 569 844 519 q 791 635 819 619 q 701 651 763 651 z "},"p":{"ha":628,"x_min":93,"x_max":557,"o":"m 93 708 l 160 708 l 165 607 l 172 607 q 237 697 192 674 q 349 719 282 719 q 480 689 436 719 q 540 582 524 658 q 557 354 557 506 q 540 126 557 203 q 480 19 524 50 q 350 -11 436 -11 q 238 13 281 -11 q 178 90 196 36 l 171 90 l 171 -268 l 93 -268 l 93 708 m 324 60 q 427 80 396 60 q 469 159 458 100 q 479 354 479 218 q 469 549 479 490 q 427 628 458 608 q 324 649 396 649 q 232 625 265 649 q 185 549 199 601 q 174 469 176 514 q 171 354 171 425 q 183 172 171 224 q 231 85 197 111 q 324 60 264 60 z "},"þ":{"ha":628,"x_min":93,"x_max":557,"o":"m 93 1032 l 171 1032 l 171 617 l 178 617 q 238 696 196 672 q 349 719 281 719 q 480 689 436 719 q 540 582 524 658 q 557 354 557 506 q 540 126 557 203 q 480 19 524 50 q 350 -11 436 -11 q 238 13 281 -11 q 178 90 196 36 l 171 90 l 171 -264 l 93 -264 l 93 1032 m 324 60 q 427 80 396 60 q 469 159 458 100 q 479 354 479 218 q 469 549 479 490 q 427 628 458 608 q 324 649 396 649 q 231 624 265 649 q 183 543 197 600 q 173 467 175 511 q 171 354 171 422 q 182 179 171 228 q 229 87 196 114 q 324 60 263 60 z "},"q":{"ha":628,"x_min":69,"x_max":535,"o":"m 457 90 l 450 90 q 390 13 432 36 q 278 -11 347 -11 q 147 19 190 -11 q 86 126 103 50 q 69 354 69 203 q 87 582 69 506 q 148 689 104 658 q 278 719 192 719 q 390 697 344 719 q 456 607 436 674 l 463 607 l 468 708 l 535 708 l 535 -268 l 457 -268 l 457 90 m 303 60 q 396 84 363 60 q 443 164 429 108 q 457 354 457 224 q 454 472 457 426 q 440 557 451 517 q 394 626 428 604 q 303 649 361 649 q 199 628 231 649 q 158 549 168 608 q 147 354 147 490 q 158 159 147 218 q 199 80 168 100 q 303 60 231 60 z "},"r":{"ha":385,"x_min":93,"x_max":358,"o":"m 93 708 l 160 708 l 165 572 l 172 572 q 237 688 190 657 q 358 719 283 719 l 358 640 q 244 608 285 640 q 187 512 203 575 q 171 346 171 449 l 171 0 l 93 0 l 93 708 z "},"ŕ":{"ha":385,"x_min":93,"x_max":358,"o":"m 93 708 l 160 708 l 165 572 l 172 572 q 237 688 190 657 q 358 719 283 719 l 358 640 q 244 608 285 640 q 187 512 203 575 q 171 346 171 449 l 171 0 l 93 0 l 93 708 m 157 838 l 157 844 l 235 1032 l 319 1032 l 319 1025 l 214 838 l 157 838 z "},"ř":{"ha":385,"x_min":39,"x_max":358,"o":"m 93 708 l 160 708 l 165 572 l 172 572 q 237 688 190 657 q 358 719 283 719 l 358 640 q 244 608 285 640 q 187 512 203 575 q 171 346 171 449 l 171 0 l 93 0 l 93 708 m 147 840 l 39 1024 l 39 1032 l 96 1032 l 193 890 l 290 1032 l 346 1032 l 346 1024 l 238 840 l 147 840 z "},"ŗ":{"ha":385,"x_min":71,"x_max":358,"o":"m 93 708 l 160 708 l 165 572 l 172 572 q 237 688 190 657 q 358 719 283 719 l 358 640 q 244 608 285 640 q 187 512 203 575 q 171 346 171 449 l 171 0 l 93 0 l 93 708 m 71 -300 q 127 -284 115 -300 q 139 -218 139 -268 l 139 -194 l 100 -194 l 100 -86 l 193 -86 l 193 -193 q 184 -285 193 -254 q 149 -328 175 -315 q 71 -340 124 -340 l 71 -300 z "},"ȑ":{"ha":385,"x_min":-17,"x_max":358,"o":"m 93 708 l 160 708 l 165 572 l 172 572 q 237 688 190 657 q 358 719 283 719 l 358 640 q 244 608 285 640 q 187 512 203 575 q 171 346 171 449 l 171 0 l 93 0 l 93 708 m 133 846 l 82 846 l -17 1011 l -17 1018 l 61 1018 l 133 853 l 133 846 m 317 846 l 265 846 l 165 1011 l 165 1018 l 244 1018 l 317 853 l 317 846 z "},"ṛ":{"ha":385,"x_min":86,"x_max":358,"o":"m 93 708 l 160 708 l 165 572 l 172 572 q 237 688 190 657 q 358 719 283 719 l 358 640 q 244 608 285 640 q 187 512 203 575 q 171 346 171 449 l 171 0 l 93 0 l 93 708 m 86 -197 l 86 -86 l 178 -86 l 178 -197 l 86 -197 z "},"ȓ":{"ha":385,"x_min":40,"x_max":358,"o":"m 93 708 l 160 708 l 165 572 l 172 572 q 237 688 190 657 q 358 719 283 719 l 358 640 q 244 608 285 640 q 187 512 203 575 q 171 346 171 449 l 171 0 l 93 0 l 93 708 m 40 844 q 49 953 40 914 q 91 1017 58 993 q 193 1040 124 1040 q 294 1017 263 1040 q 335 954 326 993 q 343 844 343 915 l 283 844 q 278 929 283 901 q 255 972 274 957 q 193 988 236 988 q 129 972 149 988 q 105 929 110 957 q 100 844 100 901 l 40 844 z "},"s":{"ha":525,"x_min":57,"x_max":468,"o":"m 260 -11 q 160 -6 213 -11 q 74 6 107 -1 l 74 72 q 261 57 157 57 q 366 88 340 57 q 392 189 392 119 q 385 269 392 244 q 365 303 379 294 q 317 315 350 311 l 174 335 q 82 385 107 344 q 57 515 57 425 q 83 643 57 599 q 154 703 108 688 q 274 719 200 719 q 361 714 314 719 q 439 701 408 708 l 439 635 q 267 651 365 651 q 165 625 197 651 q 133 522 133 599 q 140 449 133 472 q 160 417 146 425 q 207 404 175 408 l 347 385 q 419 361 394 378 q 456 306 444 344 q 468 192 468 267 q 419 33 468 78 q 260 -11 371 -11 z "},"ś":{"ha":525,"x_min":57,"x_max":468,"o":"m 260 -11 q 160 -6 213 -11 q 74 6 107 -1 l 74 72 q 261 57 157 57 q 366 88 340 57 q 392 189 392 119 q 385 269 392 244 q 365 303 379 294 q 317 315 350 311 l 174 335 q 82 385 107 344 q 57 515 57 425 q 83 643 57 599 q 154 703 108 688 q 274 719 200 719 q 361 714 314 719 q 439 701 408 708 l 439 635 q 267 651 365 651 q 165 625 197 651 q 133 522 133 599 q 140 449 133 472 q 160 417 146 425 q 207 404 175 408 l 347 385 q 419 361 394 378 q 456 306 444 344 q 468 192 468 267 q 419 33 468 78 q 260 -11 371 -11 m 226 838 l 226 844 l 304 1032 l 389 1032 l 389 1025 l 283 838 l 226 838 z "},"ꞌ":{"ha":147,"x_min":33,"x_max":113,"o":"m 33 401 l 33 1032 l 113 1032 l 113 710 l 88 401 l 33 401 z "},"š":{"ha":525,"x_min":57,"x_max":468,"o":"m 260 -11 q 160 -6 213 -11 q 74 6 107 -1 l 74 72 q 261 57 157 57 q 366 88 340 57 q 392 189 392 119 q 385 269 392 244 q 365 303 379 294 q 317 315 350 311 l 174 335 q 82 385 107 344 q 57 515 57 425 q 83 643 57 599 q 154 703 108 688 q 274 719 200 719 q 361 714 314 719 q 439 701 408 708 l 439 635 q 267 651 365 651 q 165 625 197 651 q 133 522 133 599 q 140 449 133 472 q 160 417 146 425 q 207 404 175 408 l 347 385 q 419 361 394 378 q 456 306 444 344 q 468 192 468 267 q 419 33 468 78 q 260 -11 371 -11 m 221 840 l 113 1024 l 113 1032 l 169 1032 l 267 890 l 364 1032 l 419 1032 l 419 1024 l 311 840 l 221 840 z "},"ş":{"ha":525,"x_min":57,"x_max":468,"o":"m 468 192 q 426 40 468 86 q 289 -11 383 -6 l 232 -264 l 153 -264 l 153 -257 l 229 -11 q 74 6 125 -6 l 74 72 q 261 57 157 57 q 366 88 340 57 q 392 189 392 119 q 385 269 392 244 q 365 303 379 294 q 317 315 350 311 l 174 335 q 82 385 107 344 q 57 515 57 425 q 83 643 57 599 q 154 703 108 688 q 274 719 200 719 q 361 714 314 719 q 439 701 408 708 l 439 635 q 267 651 365 651 q 165 625 197 651 q 133 522 133 599 q 140 449 133 472 q 160 417 146 425 q 207 404 175 408 l 347 385 q 419 361 394 378 q 456 306 444 344 q 468 192 468 267 z "},"ŝ":{"ha":525,"x_min":57,"x_max":468,"o":"m 260 -11 q 160 -6 213 -11 q 74 6 107 -1 l 74 72 q 261 57 157 57 q 366 88 340 57 q 392 189 392 119 q 385 269 392 244 q 365 303 379 294 q 317 315 350 311 l 174 335 q 82 385 107 344 q 57 515 57 425 q 83 643 57 599 q 154 703 108 688 q 274 719 200 719 q 361 714 314 719 q 439 701 408 708 l 439 635 q 267 651 365 651 q 165 625 197 651 q 133 522 133 599 q 140 449 133 472 q 160 417 146 425 q 207 404 175 408 l 347 385 q 419 361 394 378 q 456 306 444 344 q 468 192 468 267 q 419 33 468 78 q 260 -11 371 -11 m 108 840 l 108 847 l 217 1032 l 307 1032 l 415 847 l 415 840 l 360 840 l 263 981 l 165 840 l 108 840 z "},"ș":{"ha":525,"x_min":57,"x_max":468,"o":"m 260 -11 q 160 -6 213 -11 q 74 6 107 -1 l 74 72 q 261 57 157 57 q 366 88 340 57 q 392 189 392 119 q 385 269 392 244 q 365 303 379 294 q 317 315 350 311 l 174 335 q 82 385 107 344 q 57 515 57 425 q 83 643 57 599 q 154 703 108 688 q 274 719 200 719 q 361 714 314 719 q 439 701 408 708 l 439 635 q 267 651 365 651 q 165 625 197 651 q 133 522 133 599 q 140 449 133 472 q 160 417 146 425 q 207 404 175 408 l 347 385 q 419 361 394 378 q 456 306 444 344 q 468 192 468 267 q 419 33 468 78 q 260 -11 371 -11 m 201 -300 q 258 -284 246 -300 q 269 -218 269 -268 l 269 -194 l 231 -194 l 231 -86 l 324 -86 l 324 -193 q 315 -285 324 -254 q 280 -328 306 -315 q 201 -340 254 -340 l 201 -300 z "},"ṣ":{"ha":525,"x_min":57,"x_max":468,"o":"m 260 -11 q 160 -6 213 -11 q 74 6 107 -1 l 74 72 q 261 57 157 57 q 366 88 340 57 q 392 189 392 119 q 385 269 392 244 q 365 303 379 294 q 317 315 350 311 l 174 335 q 82 385 107 344 q 57 515 57 425 q 83 643 57 599 q 154 703 108 688 q 274 719 200 719 q 361 714 314 719 q 439 701 408 708 l 439 635 q 267 651 365 651 q 165 625 197 651 q 133 522 133 599 q 140 449 133 472 q 160 417 146 425 q 207 404 175 408 l 347 385 q 419 361 394 378 q 456 306 444 344 q 468 192 468 267 q 419 33 468 78 q 260 -11 371 -11 m 217 -197 l 217 -86 l 308 -86 l 308 -197 l 217 -197 z "},"ß":{"ha":646,"x_min":93,"x_max":574,"o":"m 276 0 l 276 68 l 331 68 q 442 85 410 68 q 485 153 474 101 q 496 331 496 204 q 483 483 496 431 q 438 555 469 535 q 346 575 406 575 l 310 575 l 310 643 l 346 643 q 456 681 424 643 q 488 807 488 718 q 472 908 488 872 q 423 958 457 943 q 328 974 389 974 q 235 956 269 974 q 185 894 201 938 q 169 771 169 850 l 169 0 l 93 0 l 93 769 q 117 930 93 871 q 193 1015 142 989 q 331 1042 244 1042 q 512 990 458 1042 q 565 811 565 938 q 535 675 565 719 q 438 617 504 631 l 438 611 q 541 534 508 596 q 574 339 574 472 q 557 134 574 204 q 493 32 540 64 q 350 0 446 0 l 276 0 z "},"ſ":{"ha":357,"x_min":31,"x_max":347,"o":"m 136 640 l 31 640 l 31 708 l 136 708 l 136 844 q 157 968 136 928 q 221 1020 178 1008 q 347 1032 264 1032 l 347 969 q 263 961 290 969 q 225 929 236 953 q 214 858 214 906 l 214 0 l 136 0 l 136 640 z "},"t":{"ha":368,"x_min":29,"x_max":338,"o":"m 136 0 l 136 640 l 29 640 l 29 708 l 136 708 l 136 914 l 214 914 l 214 708 l 338 708 l 338 640 l 214 640 l 214 0 l 136 0 z "},"ŧ":{"ha":368,"x_min":29,"x_max":338,"o":"m 338 640 l 214 640 l 214 389 l 332 389 l 332 321 l 214 321 l 214 0 l 136 0 l 136 321 l 40 321 l 40 389 l 136 389 l 136 640 l 29 640 l 29 708 l 136 708 l 136 914 l 214 914 l 214 708 l 338 708 l 338 640 z "},"ť":{"ha":392,"x_min":29,"x_max":476,"o":"m 136 0 l 136 640 l 29 640 l 29 708 l 136 708 l 136 914 l 214 914 l 214 708 l 338 708 l 338 640 l 214 640 l 214 0 l 136 0 m 379 624 l 397 842 l 397 956 l 476 956 l 476 842 l 432 624 l 379 624 z "},"ţ":{"ha":368,"x_min":29,"x_max":338,"o":"m 214 708 l 338 708 l 338 640 l 214 640 l 214 0 l 203 0 l 144 -264 l 65 -264 l 65 -257 l 146 0 l 136 0 l 136 640 l 29 640 l 29 708 l 136 708 l 136 914 l 214 914 l 214 708 z "},"ț":{"ha":368,"x_min":29,"x_max":338,"o":"m 136 0 l 136 640 l 29 640 l 29 708 l 136 708 l 136 914 l 214 914 l 214 708 l 338 708 l 338 640 l 214 640 l 214 0 l 136 0 m 114 -300 q 170 -284 158 -300 q 182 -218 182 -268 l 182 -194 l 143 -194 l 143 -86 l 236 -86 l 236 -193 q 227 -285 236 -254 q 192 -328 218 -315 q 114 -340 167 -340 l 114 -300 z "},"ṭ":{"ha":368,"x_min":29,"x_max":338,"o":"m 136 0 l 136 640 l 29 640 l 29 708 l 136 708 l 136 914 l 214 914 l 214 708 l 338 708 l 338 640 l 214 640 l 214 0 l 136 0 m 129 -197 l 129 -86 l 221 -86 l 221 -197 l 129 -197 z "},"u":{"ha":632,"x_min":89,"x_max":538,"o":"m 467 101 l 460 101 q 402 19 443 49 q 279 -11 361 -11 q 158 16 199 -11 q 103 100 117 43 q 89 263 89 157 l 89 708 l 167 708 l 167 286 q 177 136 167 182 q 215 75 188 90 q 307 60 243 60 q 411 94 378 60 q 452 183 444 128 q 460 342 460 239 l 460 708 l 538 708 l 538 0 l 472 0 l 467 101 z "},"ú":{"ha":632,"x_min":89,"x_max":538,"o":"m 467 101 l 460 101 q 402 19 443 49 q 279 -11 361 -11 q 158 16 199 -11 q 103 100 117 43 q 89 263 89 157 l 89 708 l 167 708 l 167 286 q 177 136 167 182 q 215 75 188 90 q 307 60 243 60 q 411 94 378 60 q 452 183 444 128 q 460 342 460 239 l 460 708 l 538 708 l 538 0 l 472 0 l 467 101 m 283 838 l 283 844 l 361 1032 l 446 1032 l 446 1025 l 340 838 l 283 838 z "},"ŭ":{"ha":632,"x_min":89,"x_max":538,"o":"m 467 101 l 460 101 q 402 19 443 49 q 279 -11 361 -11 q 158 16 199 -11 q 103 100 117 43 q 89 263 89 157 l 89 708 l 167 708 l 167 286 q 177 136 167 182 q 215 75 188 90 q 307 60 243 60 q 411 94 378 60 q 452 183 444 128 q 460 342 460 239 l 460 708 l 538 708 l 538 0 l 472 0 l 467 101 m 465 1032 q 456 923 465 963 q 415 860 447 883 q 313 836 382 836 q 211 860 243 836 q 171 922 179 883 q 163 1032 163 961 l 222 1032 q 227 947 222 975 q 251 904 232 919 q 313 889 269 889 q 376 904 357 889 q 401 947 396 919 q 406 1032 406 975 l 465 1032 z "},"ǔ":{"ha":632,"x_min":89,"x_max":538,"o":"m 467 101 l 460 101 q 402 19 443 49 q 279 -11 361 -11 q 158 16 199 -11 q 103 100 117 43 q 89 263 89 157 l 89 708 l 167 708 l 167 286 q 177 136 167 182 q 215 75 188 90 q 307 60 243 60 q 411 94 378 60 q 452 183 444 128 q 460 342 460 239 l 460 708 l 538 708 l 538 0 l 472 0 l 467 101 m 269 840 l 161 1024 l 161 1032 l 218 1032 l 315 890 l 413 1032 l 468 1032 l 468 1024 l 360 840 l 269 840 z "},"û":{"ha":632,"x_min":89,"x_max":538,"o":"m 467 101 l 460 101 q 402 19 443 49 q 279 -11 361 -11 q 158 16 199 -11 q 103 100 117 43 q 89 263 89 157 l 89 708 l 167 708 l 167 286 q 177 136 167 182 q 215 75 188 90 q 307 60 243 60 q 411 94 378 60 q 452 183 444 128 q 460 342 460 239 l 460 708 l 538 708 l 538 0 l 472 0 l 467 101 m 161 840 l 161 847 l 269 1032 l 360 1032 l 468 847 l 468 840 l 413 840 l 315 981 l 218 840 l 161 840 z "},"ȕ":{"ha":632,"x_min":89,"x_max":538,"o":"m 467 101 l 460 101 q 402 19 443 49 q 279 -11 361 -11 q 158 16 199 -11 q 103 100 117 43 q 89 263 89 157 l 89 708 l 167 708 l 167 286 q 177 136 167 182 q 215 75 188 90 q 307 60 243 60 q 411 94 378 60 q 452 183 444 128 q 460 342 460 239 l 460 708 l 538 708 l 538 0 l 472 0 l 467 101 m 256 846 l 204 846 l 106 1011 l 106 1018 l 183 1018 l 256 853 l 256 846 m 439 846 l 388 846 l 288 1011 l 288 1018 l 367 1018 l 439 853 l 439 846 z "},"ü":{"ha":632,"x_min":89,"x_max":538,"o":"m 467 101 l 460 101 q 402 19 443 49 q 279 -11 361 -11 q 158 16 199 -11 q 103 100 117 43 q 89 263 89 157 l 89 708 l 167 708 l 167 286 q 177 136 167 182 q 215 75 188 90 q 307 60 243 60 q 411 94 378 60 q 452 183 444 128 q 460 342 460 239 l 460 708 l 538 708 l 538 0 l 472 0 l 467 101 m 151 915 l 151 1013 l 231 1013 l 231 915 l 151 915 m 396 915 l 396 1013 l 475 1013 l 475 915 l 396 915 z "},"ǘ":{"ha":632,"x_min":89,"x_max":538,"o":"m 467 101 l 460 101 q 402 19 443 49 q 279 -11 361 -11 q 158 16 199 -11 q 103 100 117 43 q 89 263 89 157 l 89 708 l 167 708 l 167 286 q 177 136 167 182 q 215 75 188 90 q 307 60 243 60 q 411 94 378 60 q 452 183 444 128 q 460 342 460 239 l 460 708 l 538 708 l 538 0 l 472 0 l 467 101 m 153 917 l 153 1014 l 232 1014 l 232 917 l 153 917 m 397 917 l 397 1014 l 476 1014 l 476 917 l 397 917 m 282 1060 l 282 1067 l 360 1254 l 444 1254 l 444 1247 l 339 1060 l 282 1060 z "},"ǚ":{"ha":632,"x_min":89,"x_max":538,"o":"m 467 101 l 460 101 q 402 19 443 49 q 279 -11 361 -11 q 158 16 199 -11 q 103 100 117 43 q 89 263 89 157 l 89 708 l 167 708 l 167 286 q 177 136 167 182 q 215 75 188 90 q 307 60 243 60 q 411 94 378 60 q 452 183 444 128 q 460 342 460 239 l 460 708 l 538 708 l 538 0 l 472 0 l 467 101 m 153 917 l 153 1014 l 232 1014 l 232 917 l 153 917 m 397 917 l 397 1014 l 476 1014 l 476 917 l 397 917 m 272 1063 l 164 1246 l 164 1254 l 221 1254 l 318 1113 l 415 1254 l 471 1254 l 471 1246 l 363 1063 l 272 1063 z "},"ǜ":{"ha":632,"x_min":89,"x_max":538,"o":"m 467 101 l 460 101 q 402 19 443 49 q 279 -11 361 -11 q 158 16 199 -11 q 103 100 117 43 q 89 263 89 157 l 89 708 l 167 708 l 167 286 q 177 136 167 182 q 215 75 188 90 q 307 60 243 60 q 411 94 378 60 q 452 183 444 128 q 460 342 460 239 l 460 708 l 538 708 l 538 0 l 472 0 l 467 101 m 153 917 l 153 1014 l 232 1014 l 232 917 l 153 917 m 397 917 l 397 1014 l 476 1014 l 476 917 l 397 917 m 293 1060 l 188 1247 l 188 1254 l 274 1254 l 350 1067 l 350 1060 l 293 1060 z "},"ǖ":{"ha":632,"x_min":89,"x_max":538,"o":"m 467 101 l 460 101 q 402 19 443 49 q 279 -11 361 -11 q 158 16 199 -11 q 103 100 117 43 q 89 263 89 157 l 89 708 l 167 708 l 167 286 q 177 136 167 182 q 215 75 188 90 q 307 60 243 60 q 411 94 378 60 q 452 183 444 128 q 460 342 460 239 l 460 708 l 538 708 l 538 0 l 472 0 l 467 101 m 153 917 l 153 1014 l 232 1014 l 232 917 l 153 917 m 397 917 l 397 1014 l 476 1014 l 476 917 l 397 917 m 185 1179 l 185 1254 l 450 1254 l 450 1179 l 185 1179 z "},"ụ":{"ha":632,"x_min":89,"x_max":538,"o":"m 467 101 l 460 101 q 402 19 443 49 q 279 -11 361 -11 q 158 16 199 -11 q 103 100 117 43 q 89 263 89 157 l 89 708 l 167 708 l 167 286 q 177 136 167 182 q 215 75 188 90 q 307 60 243 60 q 411 94 378 60 q 452 183 444 128 q 460 342 460 239 l 460 708 l 538 708 l 538 0 l 472 0 l 467 101 m 253 -197 l 253 -86 l 344 -86 l 344 -197 l 253 -197 z "},"ù":{"ha":632,"x_min":89,"x_max":538,"o":"m 467 101 l 460 101 q 402 19 443 49 q 279 -11 361 -11 q 158 16 199 -11 q 103 100 117 43 q 89 263 89 157 l 89 708 l 167 708 l 167 286 q 177 136 167 182 q 215 75 188 90 q 307 60 243 60 q 411 94 378 60 q 452 183 444 128 q 460 342 460 239 l 460 708 l 538 708 l 538 0 l 472 0 l 467 101 m 299 838 l 193 1025 l 193 1032 l 279 1032 l 356 844 l 356 838 l 299 838 z "}}}
